<?xml version="1.0" encoding="UTF-8"?><svg id="Capa_2" xmlns="http://www.w3.org/2000/svg" xmlns:xlink="http://www.w3.org/1999/xlink" viewBox="0 0 274 47"><defs><linearGradient id="Degradado_sin_nombre_52" x1="137" y1="46.5" x2="137" y2=".5" gradientUnits="userSpaceOnUse"><stop offset="0" stop-color="#e3b98e"/><stop offset=".29462" stop-color="#ecc9b3"/><stop offset=".56952" stop-color="#f3d5cd"/><stop offset=".81309" stop-color="#f7ddde"/><stop offset="1" stop-color="#f9e0e4"/></linearGradient><linearGradient id="Degradado_sin_nombre_15" x1="37.42191" y1="32.5" x2="37.42191" y2="14.47539" gradientUnits="userSpaceOnUse"><stop offset="0" stop-color="#d37f3e"/><stop offset="1" stop-color="#fce3b5"/></linearGradient></defs><g id="Capa_1-2"><rect x=".5" y=".5" width="273" height="46" rx="22.99998" ry="22.99998" fill="url(#Degradado_sin_nombre_52)" stroke="#d18550" stroke-miterlimit="10"/><rect x="4.5" y="3.84653" width="264" height="40.15347" rx="19.99998" ry="19.99998" fill="none" stroke="#d18550" stroke-miterlimit="10"/><text transform="translate(57.91602 29.12354)" fill="#5c4005" font-family="Gabriola, Gabriola" font-size="24"><tspan x="0" y="0" letter-spacing=".05001em">Confirma</tspan><tspan x="78.60107" y="0" letter-spacing=".03778em">r</tspan><tspan x="86.58594" y="0" xml:space="preserve" letter-spacing=".05001em"> Asis</tspan><tspan x="127.17383" y="0" letter-spacing=".04513em">t</tspan><tspan x="134.0752" y="0" letter-spacing=".05001em">encia</tspan></text><path d="m37.34382,32.5c7.42941-5.47272,11.5123-11.43484,10-15-.56735-1.33752-2.11664-2.79596-4-3-2.24207-.24289-4.62067,1.32846-6,4h.15618c-1.37933-2.67154-3.75793-4.24289-6-4-1.88336.20404-3.43265,1.66248-4,3-1.5123,3.56516,2.57059,9.52728,10,15" fill="url(#Degradado_sin_nombre_15)" stroke="#d48618" stroke-miterlimit="10"/></g></svg>