<?xml version="1.0" encoding="UTF-8"?><svg id="Capa_2" xmlns="http://www.w3.org/2000/svg" viewBox="0 0 270.10781 273.34719"><g id="Capa_3"><path d="m235.03548,177.98147c1.09854.89245,1.36289,6.22291.29967,11.29229-1.06461,5.0712-3.61338,6.04119-5.09623,5.13425-1.48045-.90608-.00365-3.19209.93592-6.1366.93913-2.94559,2.76487-11.18057,3.86064-10.28994Z" fill="#9ab800"/><path d="m235.98734,177.03284c1.33965.04966,4.96291.39506,8.01131.71911,3.04886.32705,8.83529-.29039,8.47086,2.65377-.36429,2.96642-4.35705,2.39361-7.58433,1.85063-3.22798-.54511-7.34909-2.1863-9.17552-3.74331-1.8266-1.55653-1.06075-1.52857.27768-1.4802Z" fill="#9ab800"/><path d="m240.98018,186.44877c.05625,1.24827,14.43964,6.33984,20.21203,3.48486,3.99182-1.97677-1.0911-6.45231-7.75102-6.543-6.65762-.09046-12.51819,1.80933-12.46101,3.05814Z" fill="#9ab800"/><path d="m241.00534,184.9105c-1.45244-1.40981-.73955,4.88628-3.24963,10.45644-2.50999,5.56957-1.33233,11.93693,1.06563,11.82319,2.39667-.11191,3.36941-4.96319,3.66536-8.48863.29635-3.52538-.02803-12.38107-1.48136-13.791Z" fill="#9ab800"/><path d="m247.34444,194.91506c.71939,1.53731,6.43072,3.11562,12.15604,3.03158,5.72455-.08567,7.34682-2.93415,6.69764-4.93589-.64854-2.00265-3.45451-.76179-6.85342-.32423-3.39844.43712-12.71905.69121-12.00026,2.22853Z" fill="#9ab800"/><path d="m246.14613,194.97122c-.24691,1.6289-.68354,6.08558-1.01481,9.84366-.33064,3.75726-2.29371,10.59835.97354,10.85752,3.29314.26108,3.56785-4.69598,3.70132-8.72218.13344-4.0253-.72042-9.3916-1.99631-11.9649-1.27572-2.57377-1.41685-1.64291-1.66374-.0141Z" fill="#9ab800"/><path d="m251.89987,199.41325c-1.03605.55699,4.20635,14.78292,10.52734,18.49338,4.37118,2.56665,4.8225-3.5543.44404-9.21542-4.37885-5.66118-9.93541-9.83507-10.97138-9.27797Z" fill="#9ab800"/><path d="m252.40758,200.56585c-7.20585-6.55122-13.58458-14.76046-18.5608-23.20692-1.81474-3.08141-3.83934-5.75211-5.60626-8.74265,1.93816,8.50363,3.24889,15.97303,3.41114,16.92501,1.54164,9.05202,2.5842,18.11168,2.85694,27.22276.17372.31744.32277.64447.44441.94975.59104,1.48042,1.44929,2.73572,2.39386,4.00823.94142,1.26709,1.80639,2.58707,2.75592,3.8499.97949,1.30295,2.36291,2.05447,3.38478,3.25199.34864.40942-.2419.86107-.63249.60537-1.28582-.84414-2.38827-.8764-3.52586-2.01805-1.19265-1.1972-2.19838-2.57358-3.26531-3.87996-.49764-.60968-1.00325-1.21953-1.48902-1.84322-.00559,2.56095-.05805,5.12436-.20379,7.69511,1.02838.90886,1.82946,3.89219,2.25816,4.60166.81275,1.34288,1.71455,2.61402,2.47715,3.99184,1.26579,2.29098,1.68518,4.89497,2.99287,7.16647.39407.68322-.50156,1.39523-1.00655.7416-2.39088-3.09072-3.65926-6.8889-5.98725-10.05765-.31245-.42378-.66601-.91682-1.00802-1.44424-.16649,3.15803-.32134,6.33365-.56018,9.49281.43308.99356.65768,2.04747,1.05517,3.09097.63478,1.66854,1.56638,3.20914,2.19968,4.88424,1.30861,3.46609,2.33301,6.942,3.50494,10.43478.12325.3682-.32665.59683-.57369.31788-2.35082-2.64395-3.65407-6.70394-4.79524-10.01102-.38785-1.12506-1.18218-2.42913-1.85249-3.77065-.07805.67798-.15111,1.35578-.24341,2.02963-.867,6.31167-1.90227,13.22045-1.61498,19.60066.03126.70304-1.00161.8415-1.09616.1296-.60526-4.55803-.45404-9.26385.14883-13.80704.29496-2.22438.45463-4.45806.55888-6.69438-.69583.93313-1.40003,1.84631-1.938,2.77014-1.83639,3.15202-3.91942,6.13856-6.02893,9.11138-.31089.4363-1.08993-.0294-.80934-.49526,2.06303-3.41852,3.98431-6.92372,6.01808-10.36183.83159-1.40464,1.79905-2.66585,2.78295-3.9685.03447-.04575.06221-.08703.09288-.13041.09036-2.73694.15653-5.473.34782-8.20138.01736-.24722.02676-.49117.0439-.73691-.2339.28282-.4646.56106-.6868.83176-2.08154,2.54319-4.47239,4.83815-7.14145,6.75533-.73719.52862-1.52385-.55667-.82975-1.12472,3.3488-2.73472,6.30826-6.31784,8.85901-9.93028.18254-3.63694.25732-7.23553.24981-10.8191-.66962.63293-1.37351,1.21389-1.9056,1.73099-2.05633,2.00236-4.24304,4.16173-6.5643,5.85984-.77533.56645-1.58097-.57098-.87188-1.18372,2.16928-1.88163,3.8474-4.26028,5.98396-6.19406.94667-.85751,2.05776-2.47605,3.33623-3.32693-.12485-7.36161-.63793-14.69138-1.5137-22.20166-.28844-2.47161-.6727-4.94607-1.10499-7.41288-1.83963,2.36275-3.5173,5.60283-4.72162,7.8783,1.51267,4.4094.75395,9.01799,1.1772,13.5777.05324.57154-.77147.65789-.87557.1035-.48114-2.5268-.47522-5.09609-.81878-7.64207-.1553-1.14242-.52255-2.23724-.80888-3.33789-.15738.34296-.31664.68565-.46624,1.03279-.00696.03749-.02152.07233-.04498.10384-1.12142,2.60616-2.06564,5.29231-3.05473,7.94422-.3633.97787-.76258,1.94202-1.17758,2.90243,1.21521,4.68525-.00022,10.37282-.2661,15.00982-.03785.65976-1.15794.64359-1.16522-.0179-.0422-3.32517.18489-6.63516-.2647-9.94316-.02862-.20358-.05751-.42853-.08548-.66315-.17108.24561-.36723.48367-.58608.7119-2.50433,5.13765-5.14617,10.22423-6.47402,15.75405-.15228.63586-1.13408.50893-1.01778-.15358.8079-4.60414,2.4609-8.9185,4.30477-13.17147-.2356.15762-.46108.31037-.66408.45806-3.07229,2.22671-5.83144,4.8028-8.39857,7.58905-.603.65613-1.66441-.17362-1.087-.8775,2.09486-2.55598,4.32871-4.95068,6.8185-7.12385,1.36138-1.18859,2.99047-2.0706,4.46406-3.11027.09251-.06436.19635-.10277.29203-.15574,1.40616-3.13559,2.82505-6.26778,3.99335-9.49092.46744-1.2917.94386-2.57025,1.43911-3.83611-1.1876.68075-2.36862,1.3738-3.45284,2.29678-2.25425,1.9189-4.16378,4.18285-6.75198,5.6668-.59489.34092-1.48527-.37325-.90755-.94871,2.47026-2.46487,4.93685-5.01216,7.59575-7.27687,1.16316-.98985,2.98678-2.53019,4.67362-2.5615,1.08586-2.53591,2.29583-5.01292,3.75455-7.40633,1.27559-2.09368,2.38124-3.99183,4.2924-4.92937-.49505-2.6631-1.0477-5.314-1.63973-7.93515-1.3848-6.1384-2.04227-12.95538-4.50345-18.77466-1.09749-2.59775-1.85271-5.37041-2.82631-8.01847-.41831-1.13988-1.94254-7.02587-3.11066-7.47452-.58803-.22618-.50156-1.06091.02614-1.28794,3.31959-1.42601,6.9016,8.7249,9.71616,19.59949.47945.80987.94959,1.60897,1.37851,2.39004,2.3653,4.29766,4.79708,8.16978,7.75562,12.08776,2.80286,3.71229,5.1681,7.81697,7.97167,11.56141,3.08622,4.12641,6.41042,8.27862,9.19737,12.57891.17489.26919-.16235.64034-.42206.40399Z" fill="#906059"/><path d="m232.48827,272.35201c-1.08623.79986-2.46292,1.14069-3.79721.93786-1.335-.20141-2.54978-.93537-3.3497-2.0212-.74852-1.01647-1.23249-2.52978-.93836-3.79728.03593-.15269.07051-.30648.10691-.459.31422-1.35339.85959-2.48102,2.00673-3.32566,1.07866-.79512,2.44467-1.13348,3.7699-.93301,1.32559.20144,2.52999.929,3.32544,2.00821.84429,1.14608,1.03226,2.38472.93104,3.76951-.01051.15786-.02277.31455-.03349.47036-.09376,1.29815-1.0046,2.60029-2.02128,3.35019Z" fill="#ffb700"/><path d="m225.71521,261.30998c-.77199.87394-1.61984,1.47071-2.72683,1.73638-.72829.32564-1.55611.44944-2.31656.33503-.72291-.11188-1.36659-.39512-1.93633-.8516-.73618-.59553-1.47491-1.67818-1.47651-2.66858-.01027-.07066-.00122-.13796-.00683-.20733-.07599-.42388-.04883-.8508.07416-1.25859.16851-.82209.56043-1.58,1.10945-2.21844.27235-.46617.53362-.80761,1.04856-1.18553.69538-.51317,1.10038-.56476,1.92796-.75724.50808-.11833,1.03329-.05449,1.54055.07675.39397.05585.77998.16278,1.15766.32873.69359.31286,1.26745.7749,1.72104,1.38585,1.11488,1.51252,1.16409,3.83623-.11632,5.28456Z" fill="#fc0"/><path d="m240.00376,263.81635c-6.04977-.9161-4.62868-10.29643,1.42052-9.3799,6.04828.91588,4.62727,10.29571-1.42052,9.3799Z" fill="#ffa200"/><path d="m221.29093,245.92763c-2.39788-.36308-4.09563-2.66701-3.73296-5.06555.36399-2.39785,2.66744-4.09516,5.06591-3.73199,2.39805.3626,4.09572,2.66712,3.73263,5.065-.36366,2.3984-2.66776,4.09663-5.06559,3.73255Z" fill="#ffa200"/><path d="m242.54046,230.56261c-2.13389-.32312-3.64497-2.37391-3.32145-4.50774.3226-2.13447,2.37403-3.64647,4.50753-3.3235,2.1352.32382,3.6467,2.37517,3.32355,4.50997-.32395,2.13336-2.37424,3.64451-4.50963,3.32127Z" fill="#ffa200"/><path d="m208.97271,236.11826c-5.86149-.88775-4.48445-9.97648,1.37603-9.08939,5.8609.88766,4.48395,9.9764-1.37603,9.08939Z" fill="#ffa200"/><path d="m241.62051,246.8498c-2.51681-.38118-4.29879-2.79976-3.91805-5.31704.38102-2.51573,2.79985-4.29868,5.31663-3.91801,2.51714.38173,4.29904,2.80081,3.91802,5.31654-.38074,2.51728-2.79982,4.29919-5.31661,3.91852Z" fill="#fc0"/><path d="m222.1311,230.95136c-2.34008-.35403-3.99719-2.60261-3.64317-4.94269.35516-2.34093,2.60383-3.99792,4.94391-3.6439,2.34083.35515,3.99737,2.60415,3.64334,4.94423-.35459,2.34051-2.60365,3.99744-4.94409,3.64236Z" fill="#fc0"/><path d="m208.77923,212.24559c-2.49399-.37831-4.26084-2.77545-3.88261-5.26894.37795-2.49495,2.77485-4.26093,5.26941-3.88304,2.49453.37738,4.26099,2.77446,3.88253,5.26943-.37829,2.49389-2.77438,4.26049-5.26934,3.88255Z" fill="#fc0"/><path d="m201.86965,229.58224c-5.57948-.84451-4.26861-9.49683,1.3109-8.65181s4.2691,9.4969-1.3109,8.65181Z" fill="#ffb700"/><path d="m225.64094,214.06741c-5.48647-.83025-4.1975-9.33721,1.2879-8.50661,5.48635.83033,4.19731,9.33779-1.2879,8.50661Z" fill="#ffb700"/><path d="m216.56159,230.00865c-5.11062-.77425-3.91057-8.70057,1.20057-7.92574,5.11076.77326,3.90973,8.69943-1.20057,7.92574Z" fill="#ffb700"/><path d="m119.64475,14.02338c5.59045,2.56979,11.57141,4.10751,17.24373,6.50038,3.02131,1.27462,13.88617,6.30437,23.8344,13.4996,10.70973,7.7467,20.561,17.79384,24.39711,22.27894,8.58631,10.03926,14.61287,22.0139,19.25734,34.30237,2.34461,6.20274,4.42993,12.47044,6.00679,18.91505,1.62794,6.65353,3.21906,14.79084,1.94428,21.59999-.15246.81405,1.14039,1.20676,1.41344.40852,4.0294-11.79374-.71426-26.21488-4.29149-37.59269-4.20493-13.37445-10.62974-26.17353-19.12884-37.33269-4.10849-5.39364-20.35956-20.03661-25.39774-23.64324-8.3071-5.94706-28.71387-17.04476-45.14979-19.38263-.26395-.03753-.36953.33584-.12921.4464Z" fill="#799f59"/><path d="m180.82768,48.45406c3.20009,1.1471,7.6698,2.96774,8.73396,3.29841,5.10917,1.5884,10.06262,3.69924,14.88235,6.06274.28098.68367.62411,1.34702.98482,2.00499-.04723.05276-.09749.10213-.14011.15992-.24136.3271-.23516.66171-.348,1.02754-.15666.50895-.44061.9265-.521,1.42692-.03607.12699-.04259.26128-.0202.40379.00054.00594-.00157.01058-.00097.01613.00093-.00289.00193-.00618.00284-.00898.01555.0951.0242.18968.06923.28914.32134.71087,1.06532.84367,1.70056.4801.35979-.20648.61788-.63371.82383-1.05491.05529.09704.11309.19292.16732.29031-.10956.23358-.19012.49117-.24028.8139-.12958.8323-.40528,1.82211-.84338,2.53134-.51365.83321.5868,1.7961,1.21962.97799.48955-.63338.74679-1.26807,1.0221-1.95791.01383.03359.02983.06557.04305.09917.04589.11687.09069.23156.13658.34844-.13884.39807-.20386.84446-.25786,1.12275-.2926,1.51752-.42734,2.94234-.41524,4.48906.00374.45858.75247.56195.89457.13232.1297-.39295.59191-1.5058.96974-2.70562.17584.44664.34986.89877.52688,1.34356-.01349.08433-.02721.17369-.0415.25052-.27568,1.47008-.31689,2.93644-.38903,4.42874-.03189.65569.84537.78545,1.00467.14861.1772-.70728.3687-1.41144.53383-2.12051.50107,1.19407,1.01513,2.3837,1.568,3.56178.11547.24655.46058.1495.45003-.1161-.05239-1.32766-.2671-2.57561-.5664-3.79563.68052.58437,1.3022,1.2405,1.96352,1.84528.29386.26859.76282-.18184.50192-.48397-.66228-.76777-1.27154-1.57764-1.96741-2.31581-.30254-.32062-.64043-.57247-.98717-.81088-.16962-.55226-.35892-1.10744-.54497-1.66203.88365.70024,2.04832,1.14899,2.96612,1.79808.4522.31961.95572-.30433.53754-.67076-1.21267-1.06188-2.60576-2.22848-4.11839-2.99769-.15152-.45386-.30484-.89898-.45044-1.36622-.01267-.0414-.02911-.08679-.04213-.12865.88198.51743,1.76322,1.02686,2.59472,1.62517.40727.29325.88218-.29105.48909-.6098-1.11929-.90593-2.28233-1.65205-3.51316-2.31782-.16551-.47614-.35065-.96308-.54574-1.45249.67185.40648,1.3547.78579,2.09034,1.06787.66003.2527,1.0728-.6858.4422-1.00077-1.10774-.55274-2.22079-1.74757-3.46895-2.16905-.18093-.35894-.3696-.71468-.57069-1.06032,1.0905.5695,2.17663,1.14533,3.25318,1.73197,1.35581.73864,2.68597,1.51332,4.00264,2.30884.46087,1.12889.93958,2.26092,1.4099,3.39222-.25521.3941-.3738.88553-.44152,1.35973-.14054.98019-.39567,1.93412-.74155,2.86119-.27804.74524.79665,1.51528,1.25813.76412.30992-.50357.77932-1.23374,1.15832-2.01773.06687.15889.13132.31703.19808.47601-.19277.41617-.26893.92076-.355,1.38921-.28076,1.53453-.60912,3.05657-.76053,4.61125-.0593.60726.79102.72161.92741.13718.30446-1.30793.73975-2.57224,1.15866-3.84545.21451.50502.4255,1.01064.64114,1.51482-.02944.04255-.06908.08359-.08304.12742-.22563.70801-.34724,1.42695-.4868,2.15658-.30757,1.61255-.19638,3.11267-.25006,4.74054-.02614.79726,1.05632.98103,1.23655.18291.31594-1.39852.46568-2.78463.58805-4.20926.01507-.17498.03602-.3501.05551-.52493.17573.40366.34343.81098.52023,1.21419-.09634-.0191-.2117.063-.18873.16809.02748.12446.071.23755.11067.3535-.08473.61583-.02997,1.27352-.10144,1.8804-.17155,1.4495.47949,3.21861.84712,4.60068.07592.28427.56242.29204.64796.01103.16079-.52664.43523-1.20721.39017-1.75338-.05061-.6126-.17084-1.27795-.21998-1.92986.69501,1.53815,1.39153,3.07562,2.11259,4.59145.14607.30688.66176.2109.60037-.15451-.16866-1.00227-.38888-1.98942-.63437-2.96908.22665.22954.45374.45954.68039.68908.37442.37866,1.01827-.24676.66994-.64532-.64895-.74103-1.29742-1.48261-1.94596-2.22368-.08704-.28976-.18521-.57671-.27621-.86563.63411.42446,1.33794.77542,2.01614,1.00847.79943.27524,1.32895-.86212.53712-1.21468-1.31099-.58442-2.27257-1.81851-3.48022-2.56031-.31162-.87977-.63843-1.75733-.9612-2.63481.15605.16966.32505.32496.54086.43098.87632.42925,1.70518.93882,2.61207,1.30496.46806.18913.76941-.49636.31594-.71446-.88377-.4254-1.95714-.94394-2.66244-1.64509-.37695-.37459-.81593-.62704-1.3063-.74598-.11084-.30177-.21971-.60314-.33009-.90524-.03897-.10695-.08222-.20817-.12176-.3147.31803.16946.64371.33025.91943.51508.55282.37058,1.08069.77932,1.61111,1.18116.60588.4588,1.29643-.41537.73348-.91431-.90857-.80511-1.82399-1.58718-2.83349-2.26419-.4158-.27864-.8692-.49036-1.32091-.70669-.64631-1.47373-1.36877-2.87281-2.25157-4.16924,3.32623,2.13611,6.55598,4.41059,9.69445,6.81218.31591.82753.63747,1.65307.95606,2.47959-.08553.16749-.15995.344-.22822.51505-.17009.42549-.14526.98889-.20142,1.44164-.0816.66168-.16377,1.32378-.24527,1.98548-.12375.99996,1.37455,1.22158,1.54568.22863.07596-.44043.15193-.88085.22805-1.32166.13105.33872.26061.67722.39165,1.01594-.83637,1.62016-.81706,4.01546-.83928,5.58036-.01231.86097,1.07644,1.02201,1.3139.19435.28321-.98729.46473-1.95403.61743-2.94333.16528.42779.33008.85541.49489,1.28302-.32866.38627-.48761.94078-.4773,1.43147.02657,1.24529.06756,2.44632-.50487,3.58673-.43951.87531.88309,1.39766,1.35845.59983.47686-.80115.68836-1.66035.79627-2.5566.13011.34505.26648.6881.39554,1.0334-.28323.64025-.187,1.49109-.24768,2.17123-.11282,1.26369.2346,2.49872.3348,3.74308.03654.45757.68875.42617.77406.00937.16326-.79618.32188-1.65532.39451-2.49007.53629,1.49992,1.07001,3.00087,1.56848,4.51592.15292.46488.90293.26578.82569-.21257-.29492-1.81752-.69889-3.58465-1.17036-5.32871.92279.91194,1.76847,1.90235,2.47452,2.99543.38998.60356,1.21849-.0552.87824-.65191-.72888-1.27912-1.65031-2.40113-2.61599-3.50704-.42638-.48804-.92547-.86443-1.43031-1.23276-.07204-.23669-.15381-.47189-.22796-.70798.83109.52526,1.72843.99553,2.45709,1.64878.4227.37893.91144-.2852.53754-.67076-1.05085-1.08434-2.29065-1.85272-3.53091-2.64473-.34681-1.05531-.70789-2.11464-1.06932-3.17504.26207.29694.55291.55316.96415.72256.892.36697,1.64896,1.09881,2.4473,1.62813.45492.30121.97907-.3221.53754-.67076-.65136-.51495-1.25387-1.08677-1.91736-1.58674-.74253-.55947-1.50813-.8563-2.38321-1.13676-.00384-.01098-.00717-.02189-.01102-.03277-.12723-.37071-.26387-.72218-.393-1.0868.52785.28248,1.08645.50329,1.6838.57285.77342.09024.8766-.95723.17147-1.15919-.94995-.27183-1.412-1.13584-2.22622-1.57076-.2133-.11343-.40456-.26515-.60136-.39646-.26767-.65957-.53098-1.32193-.83083-1.95805,2.35527,1.87654,4.67602,3.79982,6.96908,5.75652.6712.80114,1.36293,1.58712,1.94832,2.4353.95858,1.3876,1.66846,2.98234,2.49707,4.46474.07567.32901.14902.66072.22364.99069-.00641.00643-.01505.00809-.02093.0151-.47741.57796-1.06875.98168-1.316,1.69235-.33123.95451-.30653,1.90829-1.11277,2.64747-.61784.56649.09027,1.58891.79183,1.06675,1.16384-.86734,1.75169-2.20835,1.79346-3.62175.06037-.08832.12738-.17707.17395-.265.08788.85405.17274,1.70867.25798,2.56344-.5583.91839-.74846,2.10696-1.11454,3.10018-.45763,1.2418-.67342,2.54758-.75407,3.86638-.02262.36684.55022.59866.66942.19333.40234-1.36552,1.05254-2.62777,1.5211-3.97006.23112,2.29533.47036,4.58841.74966,6.8751.07013.57354.91687.57879,1.00649.01261.35062-2.20978.39446-4.46888.21306-6.72238.67968.80047,1.40363,1.56554,2.05021,2.39366.43361.55533,1.29977-.08462.87824-.65191-.7439-1.00052-1.60553-1.90635-2.3706-2.89019-.3188-.41097-.59098-.85003-.84158-1.30176-.04603-.30593-.09762-.61116-.15132-.9158.77487.89845,1.76525,1.82778,2.92361,2.02186.80911.13596.94865-1.04382.18291-1.23655-1.01129-.25421-1.82605-1.54998-2.37251-2.34702-.30481-.4454-.58977-.90807-.88256-1.3616-.08197-1.15432-.20021-2.29722-.37709-3.35054,2.10503,1.85287,3.4038,4.18127,5.10648,5.63456s2.19569,4.02279,2.43942,5.3185c.37531,1.99782.6282,3.94842.52411,5.98683-.04345.84797,1.13613,1.04216,1.3139.19435.3964-1.89257.59294-3.86848.39319-5.80181.96557,1.59799,1.85256,3.24602,2.43779,5.08282.29348.92247,1.62969.35165,1.37701-.55346-.37383-1.34013-.863-2.70823-1.45355-4.0512,1.06153.69501,2.172,1.22996,3.52575,1.17748,1.13845-.04439,1.16878-1.96139.02484-2.01313-1.86905-.0845-2.97603-1.92105-4.45947-2.8206-.62096-.37672-1.21975-.81718-1.83955-1.19221-.14744-.20397-5.29199-5.72468-7.63206-7.94448,1.13826.42705,2.2716.84095,3.40866,1.23578.35472.36837.72881.70554.99265,1.00072,1.08652,1.21699,2.01012,2.53825,2.68215,4.02813.37047.82226,1.65279.31847,1.30463-.52475-.52751-1.27845-1.22617-2.44201-2.03974-3.54563.17511.05451.34743.1176.52315.17069.32433.41321.71251.79249,1.23639,1.16809,1.54533,1.10916,2.70344,2.6862,3.84216,4.18445.64094.84306,1.94002-.12123,1.31748-.97794-.86287-1.18785-1.752-2.33419-2.76319-3.39002,1.79511.42788,3.63517.78153,5.56029,1.01797.8533.10448,1.0323-1.14942.19435-1.3139-.65377-.12824-1.30606-.29044-1.95875-.45603.5303-.31499.69062-1.20198-.04474-1.52294-3.00196-1.31179-6.6756-2.20364-9.98279-1.70621-.15292-.05072-.30585-.09801-.45883-.14834.37083-.00438.73413-.01383,1.07378-.02474,1.85329-.05905,3.66124-.18202,5.24162-1.23905,1.05891-.70808-.10593-2.21706-1.16389-1.56798-1.4075.86283-3.26638.68219-4.84913.67066-1.48206-.01088-3.0674.37853-4.43462.94234-.00364.00138-.00471.00517-.00836.00665-.30322-.07548-3.63174-2.65672-8.19159-6.14367.14238-.10833.26307-.25384.31822-.46332.08792-.33403.07416-.68108.01155-1.02252.47978.38737.90419.84156,1.40542,1.20694.60594.44202,1.18168.91466,1.71409,1.44305.54612.54235,1.21756-.29966.89276-.86002-.57006-.98461-1.25886-1.82394-2.02426-2.63264.28658.05472.57694.08726.8822.05599.13389.01879.26739.03066.40116.05095.29887.89214,1.47724,1.60847,2.1508,2.20707,1.06981.94997,2.22808,1.78918,3.22253,2.82424.44995.46878,1.15975-.03528.81511-.60504-.71503-1.18276-1.54311-2.26478-2.50917-3.24236.27049-.0627.53987-.15558.80934-.2722.54732.13716,1.09227.29379,1.63821.44369.3276.26469.64133.5534.95723.80008.03407.02667.06769.05287.10174.07965.12212.72639.8845,1.26171,1.48625,1.60839,1.04597.60335,1.83002,1.50265,2.81484,2.19279.86009.60254,1.86452-.62156,1.02663-1.28056-.85871-.67542-1.54894-1.5283-2.40806-2.20368-.03054-.02383-.06664-.05039-.09893-.07539,2.00615.61265,3.99607,1.23523,5.95482,1.76778.85029.23141,1.25717-1.20097.42982-1.48772-1.94096-.67265-3.84871-1.34029-5.76572-1.9719.86278-.14279,1.66614-.28163,2.60597-.00493.94559.27806,1.59794-1.11559.63102-1.42986-1.35117-.43924-2.56738-.41585-3.95242-.12863-1.01341.21048-1.78085.14336-2.56381.54137-.13673-.03994-.27592-.0769-.41272-.11634.63548-.29549,1.27979-.49971,1.94086-.45429,1.04172.0717,1.3014-1.49658.24006-1.62294-1.38913-.16555-2.57801.19315-3.81179.81571-.33173.16716-.66461.37216-1.00753.55141-.26281-.06506-.52175-.13641-.78711-.19791-.30774-.0716-.6215-.11953-.93278-.1774.13274-.09641.27162-.19131.39501-.2881.76129-.59521-.08407-1.70394-.88489-1.19211-.76876.49191-1.62669.8295-2.50557,1.0716-.44029-.03996-.88187-.07464-1.32387-.10646.15535-.09893.30577-.19809.43146-.26391.50202-.26388,1.01891-.49443,1.54263-.71163.33395-.13913.12785-.59712-.20427-.50796-.84663.22767-1.66763.5124-2.48458.82987-.41063.15994-.8547.35536-1.30497.51681-2.33258-.15802-4.65075-.35677-6.85108-1.00501-1.02337-.7664-2.06188-1.53705-3.10189-2.30439-.16275-.19137-.31289-.38735-.48548-.57574-.0989-.10844-.24067-.09787-.33269-.02657-1.24848-.91615-2.48372-1.80567-3.70563-2.67796.71175.41077,1.4203.82612,2.14332,1.21682.65992.35731,1.31631-.71994.68384-1.12545-.3061-.19681-.60702-.40124-.90809-.60469.8038-.04203,1.50726-.07273,2.02538-.04835.05413.33179.19233.64539.43435.93441.4791.57237.92913,1.13356,1.15503,1.85548.26321.84006,1.69437.47818,1.50092-.38654-.18553-.8315-.56492-1.5367-1.0407-2.23747-.01142-.01645-.0219-.03235-.03322-.04879,1.05686.05615,2.11102.10048,3.16101.1265.07383.06126.14823.12554.22213.18287.79376.61699,1.63118,1.1623,2.39233,1.82278.19852.17301.5143-.12277.33444-.32213-.52684-.5859-1.10122-1.121-1.67263-1.65911.9318.0139,1.86256.02178,2.79229.0196.79785,1.10666,1.57046,2.30339,2.94377,2.72619.5812.17877,1.20407-.59532.60352-.99318-.5745-.38056-.94886-1.08017-1.34413-1.74769.74468-.00933,1.48924-.01717,2.23527-.03217.25629.19935.58219.33884.89995.46974.64469.2662,1.28066.8455,1.87661,1.21841.60356.37748,1.19924.76178,1.77863,1.17622.32859.23471.69242-.21985.39102-.48804-.95155-.84463-1.98074-1.59217-2.95201-2.41354-.00225-.00185-.0045-.00309-.00665-.00493,1.59592-.03788,3.19889-.07968,4.81615-.11491.55309-.0119.50479-.83007.01159-.92921-1.04307-.20948-2.12041-.36096-3.21009-.48908.11872-.04815.23973-.08847.3569-.14322.7821-.36549.32008-1.48323-.49503-1.2322-1.2354.38002-3.11119.32465-4.37262,1.02409-.27222-.01166-.5447-.01547-.81712-.02514.47654-.24541.94707-.50354,1.39474-.78678.61206-.38731.04039-1.34052-.60553-1.08175-.86683.3472-1.77101.56686-2.6654.83042-.42217.12457-.75165.43025-1.14143.61945-.17026.08288-.32166.21252-.47099.34732-1.00975-.00764-2.01066-.0081-3.00189-.00764.80979-.34219,1.66685-.58368,2.49363-.86715.81937-.28052.31394-1.4718-.49503-1.2322-1.07614.31816-2.16003.58826-3.19293,1.03372-.49085.21165-.8773.55531-1.28031.89752-.06326.05382-.116.11314-.16677.17276-.71454.00237-1.46546.02655-2.23577.05878.06821-.07088.13817-.13655.20472-.21607.50119-.59861.8387-1.32221,1.31853-1.93974.29339-.37814-.20625-.9313-.59137-.61364-.48952.40291-.91281.86848-1.37034,1.30523-.49593.47353-1.1367.85063-1.72633,1.19627-.14266.08352-.21323.22714-.24929.38072-.34055.01624-.68442.02563-1.02711.04004.83418-.65741,1.57206-1.45796,2.23459-2.28006.63557-.7895-.5614-1.73411-1.21962-.97799-.78392.90129-1.64564,1.70525-2.65209,2.35255-.34802.22399-.72758.5074-1.03411.8377-.2149-.02198-.43074-.03753-.64483-.05202-.11188-.00765-.17829.09069-.16882.18044-.18421.00085-.37054.00584-.55138.00032-2.28099-1.57775-4.40741-2.97919-6.21081-4.05151-1.74041-1.03481-3.50799-2.00216-5.29469-2.92089,1.59409-.22234,3.24567-.59548,4.66706-.87834.28581.37698.6208.68805,1.05139,1.06764.43448.38269.72478.87629,1.17904,1.24209.51748.4161,1.06184.79675,1.57932,1.21285.63999.51529,1.34851-.42434.78191-.97518-.47725-.46393-.97633-.90399-1.4624-1.35891-.47044-.44028-.74334-1.05765-1.211-1.50985.06989-.00846.14817-.02104.21533-.02739.35644-.03421.72496-.05572,1.08811-.08196-.02835.12813.02972.2932.18372.29971.53076.0222.93819.07115,1.35062-.11127.06002.05487.12222.10795.19367.14227.75505.36137,1.35387.75453,1.92995,1.36489.44473.47054.75816,1.05793,1.14372,1.5745.54489.7311,1.63315-.08868,1.12898-.83802-.44915-.66761-.80504-1.39158-1.37377-1.97174-.25381-.25913-.50656-.48312-.76514-.69363.92598-.0363,1.85186-.07604,2.7832-.07546.15826.78895.80247,1.38574,1.28133,2.01235.49511.64732.96211,1.31453,1.40198,2.00109.45164.70406,1.68706.02392,1.28456-.71918-.38092-.70442-.78592-1.3937-1.21552-2.06974-.23712-.37271-.47023-.79911-.74585-1.18145.45566.01605.9132.02004,1.36707.04816.16163.09851.31775.16447.46977.2008.31799.4335.79547.74896,1.18017,1.11489.63772.60715,1.17054,1.27976,1.92868,1.75076.37837.2351.7853-.24018.43956-.54899-.68615-.61391-1.11415-1.4279-1.65539-2.16048-.03894-.05317-.08247-.11288-.1264-.17326,1.31308.14935,2.61051.3546,3.87425.64414.51555.11821.75316-.71388.25791-.89277-.66583-.24011-1.33383-.43961-2.00307-.61704.36131-.08626.72445-.16234,1.0867-.23512.36877-.07383.42631-.65962.00874-.69672-1.06701-.09414-2.12441-.14391-3.19142-.02142-.38152.04385-.71399.16884-1.03241.31917-.5766-.08276-1.15613-.13543-1.73576-.18811.0022-.00119.00471-.00173.0069-.00292.5381-.2447.91267-.74457,1.42734-1.04064.47586-.27361.12662-1.08293-.39271-.98214-1.06618.20712-2.11952.66431-3.15745.99408-.37809.11976-.95605.18631-1.27594.42376-.16363.12146-.23662.27453-.30446.42977-.2469-.00245-.49906.01018-.74688.01053.31625-.31603.59474-.67069.78428-1.10463.2618-.59853-.60069-1.15412-.99318-.60352-.59606.83679-1.61948,1.09512-2.54313,1.4328-.27344.09976-.52272.21048-.75206.33597-.92113.03701-1.84301.10303-2.76431.18146.45264-.28746.90807-.56652,1.34853-.83456.68065-.41365.02905-1.57824-.68138-1.2168-.98147.49896-1.9088,1.09174-2.87086,1.62622-.44096.24471-.7641.4837-1.06565.76389-1.05367.12598-2.10604.25952-3.15311.40033-1.15078.15508-2.68272.04746-3.92932.38973-7.2606-3.39142-19.0797-7.24929-22.51476-8.31621-3.43507-1.06682-4.66823.43591-1.46814,1.58301Zm54.99706,25.92911c.02283.15592.05798.30921.13032.45365.16835.33736.35732.7444.37147,1.13942-.70873-.54123-1.43973-1.09799-2.19024-1.66703.57225.04856,1.13735.06553,1.68845.07396Z" fill="#799f59"/><path d="m171.48232,92.59288c.20278.34104.40332.68357.61734,1.01829.31076.4858,1.13317-.04558.84836-.5428-.81141-1.4182-1.47356-2.93865-2.42199-4.25813-.23157-.80727-.4661-1.61094-.69241-2.41339.00994.00935.01587.01913.02623.02905.79146.75625,1.63922,1.45169,2.43123,2.20762.4627.44206,1.22597-.15629.77865-.65239-1.16393-1.29162-2.31662-2.72825-3.79117-3.65853-.50845-2.05856-1.16568-4.4993-2.45046-6.33455.19914-2.50462.34796-5.00192.46119-7.48619.33771.51001.64365,1.03108.93976,1.55515-.11182.54955-.21117,1.14058-.17517,1.64487.0364.5084-.10714,1.00787-.07123,1.5162.04989.69397.0888,1.39865-.08489,2.07875-.14721.57495.68458.89794.88214.31608.38808-1.13857.35322-2.42754.49353-3.62005.22574.43319.45255.86806.68657,1.30541.1245.23262.25623.46287.38236.69473-.60951,1.25098.27368,2.9685-.79354,4.15369-.35458.39476.32452,1.01602.68476.62947.59142-.63459.81071-1.32979.88616-2.18636.02989-.34898.049-.71189.05848-1.07673.30406.54749.60406,1.09578.9053,1.64528-.22817.59805-.20622,1.20348-.19403,1.92543.01922,1.12826.07369,2.25526.05379,3.3842-.01146.65083.94834.73306,1.01277.07672.09768-.99047.14349-1.98426.19584-2.9785.00595-.10718.01303-.21177.02109-.31622.60605,1.20808,1.17676,2.43227,1.62413,3.71261.20599.58928,1.17413.26455,1.03207-.33398-.40258-1.69586-.97643-3.28908-1.66019-4.83699.42503.27708.84219.56977,1.22701.9253.46631.43128,1.2323-.15879.77813-.65236-.6758-.73379-1.43117-1.35338-2.23216-1.94476-.26971-.19881-.50629-.39817-.80292-.55506-.01242-.00628-.02978-.00845-.04284-.01382-.25106-.48829-.52122-.97446-.7874-1.46094.78489.25328,1.57002.5076,2.35483.76137.67124.21726,1.02524-.77088.36906-1.02978-.81391-.32085-1.62767-.64208-2.44159-.96283-.42206-.16665-.80251-.33099-1.20154-.44622-.34233-.62229-.67634-1.22697-1.01383-1.82186.09637.00587.19105.013.28095.02579.72784.1018,1.44029.34042,2.14294.54554.87111.25471,1.30999-.96763.4747-1.32369-1.22165-.52076-2.62227-1.24278-3.92265-.95385-.59091-.93048-1.22599-1.83292-1.98856-2.70044.05299-1.49271.11672-2.99172.14137-4.46639.02715-1.63169.00047-3.23637-.06465-4.82853.24348.2764.49529.54565.74213.81911.01506.1483.0351.3033.05564.47465.09572.78465.15779,1.57322-.04881,2.3453-.14077.52798.61649.81771.80852.29033.22194-.60585.29969-1.2217.32162-1.85723.1718.18685.34008.37712.5119.56387.00544.0097.009.01912.01501.0284-.00153.00422-.00275.009-.00265.01447-.01764.63657.1926,1.22103.15736,1.8461-.05233.91479-.13071,1.82815-.17574,2.74351-.02716.56016.77004.6065.85766.0647.16159-1.00224.4971-2.09976.53606-3.16068.4917.55351.97727,1.11156,1.44717,1.68257.01466.11074.02226.22336.0152.34079-.05996,1.06964-.12533,2.12867.02562,3.19393.04267.30199.55593.28259.54142-.03-.03601-.78714.12269-1.64677.21852-2.49832.44972.58379.88845,1.17829,1.29733,1.79758.36625.55416,1.32639-.06097.97966-.62609-.60731-.98972-1.26259-1.93953-1.94096-2.87253.72814.22962,1.47647.39651,2.24375.36838.48979-.01792.57291-.75681.05794-.77921-.90491-.03913-1.72517-.36972-2.54737-.72475-.26065-.11316-.5244-.24841-.79066-.34753.60386-.01136,1.20541-.04672,1.79087-.21041.62504-.17502.47091-1.08487-.187-.99851-.94592.12463-2.02991-.0249-2.93938-.34007-.17511-.21099-.33941-.42878-.51789-.63684-.15875-.18492-.31526-.39114-.47251-.58959.00143.00062.00287.00042.0038.00097.75462.18724,1.49712.13664,2.24962.33478.58583.15428.86664-.62946.31616-.88264-.30355-.14023-.60726-.27937-.9118-.41974-.15425-.07114-.38264-.03881-.54806-.05832-.21967-.02663-.45381-.14608-.65563-.22981-.45815-.18918-1.05207-.312-1.55734-.17304-.64334-.84938-1.31077-1.6999-2.06512-2.41316-.32375-4.26811-.95855-8.46922-1.83296-12.80544-.2783-1.38523-.65938-5.06551-1.84467-7.76066-1.18447-2.69452-3.42152-3.06101-2.31726-.33195,1.10411,2.73005,2.20263,9.84972,2.72073,14.84257-1.0215,1.15637-2.01071,2.3616-2.9813,3.59071-.31926-.09757-.65261-.16618-.98808-.21773-.9097-.14002-1.81111.42112-2.7336.30397-.91572-.11574-1.09864,1.18105-.32225,1.51495.71978.30935,1.484.32515,2.25419.39075.08045.00695.16099.02624.24119.0376-.32306.42905-.65732.84703-.97548,1.27923-1.46784-.47469-3.38541.52942-4.5897,1.2629-.48482.29453-.30345,1.23752.33364,1.03162.65196-.21006,1.31359-.35501,1.99182-.44817.31851-.04427.63681-.04753.95442-.042-.36738.51478-.73932,1.02687-1.1015,1.54343-.01996.00443-.03525.00115-.05533.00708-.70248.21401-1.40708.46562-2.10671.69734-.80095.26606-1.52516.74384-2.27464,1.12254-.71865.36366-.19959,1.46961.53374,1.13037.77726-.35944,1.52666-.8073,2.35225-1.04991.08516-.02491.17914-.04315.27004-.06377-.8065,1.1715-1.60102,2.34123-2.38207,3.49718-.40636.60131.43488,1.13788.89446.62986.7942-.87713,1.55316-1.77716,2.30242-2.68469-.03323.77892-.06488,1.5601-.13492,2.33358-.0371.40119.58052.44716.62298.04666.11281-1.04353.19828-2.08472.26493-3.13255.00452-.06403.01169-.12958.0189-.19473.46876-.57965.93232-1.1637,1.39667-1.74703-.02808.91696-.087,1.82582-.32822,2.72601-.15446.57681.66697.88987.88209.31648.3787-1.01157.55301-2.04651.68642-3.11519.07011-.56421.17803-1.14689.19574-1.72038.42279-.52923.8433-1.05941,1.27212-1.58572.15183-.18588.32456-.38243.48967-.57473.00987,1.0178-.13359,2.04102-.43352,3.00804-.20826.67054.78687,1.03397,1.0298.36896.54987-1.50797.75449-3.13524.61629-4.73367.04867-.05497.0889-.11372.12296-.17732.66891-.76132,1.34886-1.55365,1.9504-2.38033.26172,3.38624.39529,6.80438.41739,10.27912-1.25768,1.45119-2.44126,2.97268-3.59947,4.51955-.45282-.09266-.93691-.04973-1.40138-.02665-.79827.04083-1.51629.04966-2.27912.32177-.64295.22919-.45067,1.37516.24739,1.33729.60315-.0332,1.29075.18345,1.97459.33939-.44198.60494-.88212,1.21116-1.32314,1.81715-1.35029-.23815-4.10597.41192-4.52622.4367-.75608.04263-.67089,1.2887.0721,1.3147,1.09656.03786,2.20344-.19083,3.28214-.16208-.44453.60305-.88636,1.21043-1.33924,1.80638-1.45223-.17973-2.68728,1.01864-4.11722,1.18914-.91851.10948-.84335,1.63044.08841,1.62472.68471-.00436,1.38169-.1279,2.06008-.31919-.72617.88467-1.46669,1.75639-2.24488,2.59292-.43503.46778.17321,1.24141.65229.77863.86922-.84036,1.70089-1.72478,2.51708-2.62767-.02445.43864-.04323.87661-.04549,1.3156-.00528.89607,1.34943,1.02095,1.40292.10582.06738-1.16286.24588-2.30331.4235-3.45077.53824-.63862,1.06356-1.28693,1.58758-1.93603.00296.12629.007.25274-.00416.3815-.06413.77728-.30483,1.53734-.53085,2.28077-.13136.43425.48826.65671.66233.23717.38218-.9217,1.32124-2.93536.82918-4.08716.47598-.59839.95254-1.19721,1.42339-1.79443.09798-.12521.21478-.25401.31881-.37984.04449,1.0209-.10445,2.08728-.39365,3.05832-.15707.5281.61934.8148.809.2905.52373-1.45563.69836-2.95603.53884-4.46087.95686-1.0693,2.00284-2.1806,2.91178-3.35716-.00071.08137-.00043.16279-.00104.24418-.0291,2.90643-.20317,5.80131-.44972,8.68932-.96273,1.63654-1.89184,3.30272-2.80923,4.9765-1.15173.2818-2.04202,1.40876-3.26403,1.42149-.8493.00862-.95765,1.21131-.09917,1.32444.72608.09658,1.38937-.06641,2.04759-.32498-.05941.1112-.12091.22008-.1803.33118-.01378.00635-.02691.00835-.04126.01513-.34996.16396-.72568.20755-1.07855.35773-.87993.37286-1.71836.71526-2.67313.84302-1.04945.14045-.96311,1.83937.10152,1.85664.75138.01238,1.46876-.08237,2.18636-.23187-.12589.2435-.26026.48423-.38561.72821-.54668.23504-1.00667.56538-1.52279.90754-.71072.46996-1.46443.87382-2.2454,1.21188-.68262.2964-.32763,1.46048.40534,1.2535.69169-.19438,1.36025-.44293,2.02021-.72348-.56781,1.14261-1.13316,2.28508-1.67639,3.42486-.21424.4506.48018.77147.75636.3928.70454-.96944,1.42136-1.95425,2.13314-2.95558.00777.69512-.06364,1.4314-.09311,2.10423-.02621.60771.84966.6662.93525.07122.15618-1.0825.26247-2.1749.34857-3.25452.01544-.1912.02474-.41737.00915-.63934.18857-.27365.37071-.55371.55718-.83021.05608.6125.15076,1.22373.24104,1.82441.09917.65739,1.05555.45525.99892-.18634-.09933-1.12039-.02342-2.24044-.12666-3.3412.31925-.5031.63134-1.01171.93807-1.52313.05149.64285.06269,1.28126-.11108,1.93528-.12676.47972.56358.74478.73542.26375.37959-1.06138.41153-2.20128.33563-3.31669-.01298-.19247.0022-.3921.02091-.59171.34821-.63256.68684-1.27007,1.0003-1.91717-.36319,3.30958-.76913,6.61435-1.12447,9.92074-.73124.78576-1.26595,1.70117-1.87568,2.62287-.87367,1.32148-1.97462,2.49482-2.98932,3.70506-.3423.40881.30171.99324.68478.62938,1.03175-.98169,2.6427-2.24537,3.85108-3.66736-.08.86137-.16253,1.72276-.2288,2.58424-1.39954,1.80676-2.38431,3.90252-3.43849,5.94414-.40937.79182.89614,1.43315,1.37435.71308.57621-.86934,1.22619-1.71595,1.81154-2.58697-.06845,1.56442-.10304,3.12951-.09136,4.69891.00312.45253.70495.67684.83324.17652.35932-1.39453.68241-2.8113.99721-4.23214.25772.81701.47802,1.64718.49865,2.52191.01511.64202,1.00202.74059,1.01335.07691.02882-1.67986-.345-3.46771-.99495-5.08017.11778-.58233.21744-1.17271.32817-1.758.37303.94162.80497,1.8595,1.14904,2.81311.22502.62465,1.2891.28207,1.10576-.35714-.32549-1.13656-.76489-2.23367-1.11731-3.36178-.1378-.44344-.17981-.94326-.43274-1.33893-.06986-.10859-.15153-.2071-.2275-.31063.78578-4.57486,1.36697-9.22497,1.79208-13.87441.42939,1.22148.7877,2.4567,1.11786,3.66148-.10697.59677-.11568,1.2194-.17422,1.87903-.15333,1.72412-.65791,3.43975-1.12047,5.10237-.14868.53429.58429.79819.8089.29049.50575-1.14684,1.0736-2.42915,1.46332-3.7462.13591.47328.26019.94727.40051,1.42009-.69913,2.08716.17301,4.65704-.44572,6.81776-.16465.57591.68094.89245.88249.31714.42535-1.21352.54711-2.42414.55708-3.70254.3925,1.40111.75947,2.80745,1.01678,4.23143.08513.4687.85589.45049.85134-.04632-.01294-1.38045-.20882-2.74611-.48921-4.10355Z" fill="#799f59"/><path d="m54.44054,58.20737l2.15747.24705c-1.96101,3.17988-3.07646,5.50853-3.07646,5.50853,0,0,3.21086,1.13444,7.95983,1.92475l-1.31027,2.41082s3.40918-.50357,6.86684-1.76813c.02743.00113.05433.00308.08168.0047l-1.82971,3.3666s4.61677-.68188,8.55467-2.45333l-.48703,3.05542s3.6846-1.83459,6.70618-4.48994l-.22063,3.40032s4.07141-2.50733,6.88975-5.78016l-.19645,2.81313s3.95352-2.43207,6.77207-5.62289l-.00152,2.27921s4.83917-2.99595,7.07163-6.78628l.93655,3.40904s3.97996-5.88083,5.07673-10.16829c.43686-1.71231,1.51237-3.27343,2.63656-4.61012,1.6903-2.01061,3.48762-3.50985,3.38714-4.24587-.10574-.7832-3.50124-.16844-6.71235-.99096-1.80912-.46301-3.53153-2.2435-4.6461-2.87378-6.56632-3.7236-12.31041-3.74303-12.31041-3.74303l1.78312,3.09159c-4.69067-2.10503-11.54035-1.6577-11.54035-1.6577l3.36342,3.31645c-4.95927-.73953-10.97543.59319-10.97543.59319l2.68102,1.95343c-4.73287.2086-9.71969,2.11765-9.71969,2.11765l3.19498,1.71537c-4.0752.84499-7.77496,2.65217-7.77496,2.65217l3.0308,1.3205c-3.7841,2.03701-6.9589,5.19727-6.9589,5.19727l3.86021.4417c-.08716.11842-.17245.23853-.25732.3578-2.85632,1.88807-4.99307,4.01379-4.99307,4.01379Z" fill="#6d9f6b"/><path d="m73.91586,54.45615c-1.32111-.05814-2.70252-.56018-4.00757-.80002-1.88265-.34661-4.12323-.40217-5.97244-.08433-.16364.02856-.22531.28207-.07847.38082,1.81754,1.2303,3.64628,1.0734,5.7082,1.35959.97977.13654,1.94062.50823,2.92371.62302-5.13867,2.28436-10.24469,4.62542-15.26607,7.06542-.38871.18875-.05462.71298.32557.64539,5.32998-.95203,10.53333-2.8433,15.62247-5.0334-1.11226,1.80002-2.28432,3.55663-3.74973,5.2012-.24741.27779.19253.65775.4608.39882,1.75406-1.6872,4.35091-4.05388,5.63088-6.62678,2.35838-1.05789,4.69371-2.16014,7.00295-3.24259-.12995.19104-.26129.38188-.37548.58323-1.14133,2.02661-2.67479,3.93709-4.26476,5.64663-.42657.45771.30978,1.07601.76822.66598,1.89401-1.69227,3.47859-3.51169,4.78187-5.65859.44966-.74098,1.17626-1.49184,1.43922-2.32857,1.4542-.67144,2.90059-1.33312,4.33727-1.95579,1.69774-.7365,3.41429-1.4491,5.13627-2.15533-.62977.75032-1.27357,1.49231-1.82303,2.3004-1.3981,2.05737-2.53022,4.41812-4.14233,6.30402-.34912.40841.27485.94792.66575.57824,1.73919-1.64057,3.14481-3.72493,4.4517-5.69945.97164-1.46985,2.22932-2.54448,2.56969-4.18817,2.1851-.89095,4.37529-1.77883,6.54945-2.69566-1.62202,2.45316-2.64093,5.48025-4.54229,7.55638-.39306.42799.2952,1.01401.71791.62194,1.76132-1.63578,2.84695-3.83661,4.22408-5.77213.8158-1.14687,1.52385-2.33687,2.22739-3.53533,6.1196-2.68322,12.03466-5.70522,17.238-9.80244.25698-.20238.07767-.74172-.29581-.58619-6.03409,2.51179-11.98405,5.21273-17.94043,7.89684-2.16901-.29617-4.10611-1.08511-6.25291-1.58139-.84089-.19444-1.67332-.38671-2.50704-.61668-.98338-.26929-1.97294-.09633-2.96466-.28942-.30755-.05985-.58047.33365-.28511.54565,1.49529,1.07022,3.63046,1.63139,5.39732,2.09654,1.42682.37542,2.75509.73232,4.11308.97171-2.29254,1.02962-4.58687,2.0516-6.89177,3.05473-.21353-.09133-.43139-.17733-.66381-.23739-1.21845-.31549-2.44005-.58302-3.68234-.7599-2.14974-.30616-4.27227-.70948-6.43376-.73595-.34056-.00347-.42744.45404-.12538.60436,1.91846.95803,3.73382,1.64951,5.8745,1.85021.86908.08114,1.72042.19818,2.57257.33363-.54806.23483-1.09262.47261-1.64075.7045-2.18252.92004-4.36781,1.84857-6.55112,2.78083-1.85892-.5104-3.72574-.91684-5.63137-1.20175-2.08192-.31089-4.04734-.7314-6.13479-.50461-.33721.03746-.42736.41999-.12407.60506,2.72727,1.66398,6.27887,1.82956,9.58445,2.09339-1.87338.80585-3.74931,1.61183-5.61931,2.43101l.00029-.00198c-.0171-.20491-.28454-.24891-.3842-.09181-.07641.11951-.14889.23909-.22404.35969-.03429.01515-.06928.0317-.10517.04671-.54458-.0757-1.08727-.09724-1.64359-.1203Z" fill="#54794f"/><path d="m70.9288,2.58929l1.02216,1.70199c-3.36375.38645-5.64878.90194-5.64878.90194,0,0,.97218,2.97063,3.04512,6.85972l-2.45224.4206s2.25407,2.18343,5.07939,3.96907c.01427.02041.02798.04114.04225.06154l-3.42473.5882s3.05284,2.95653,6.50704,4.80224l-2.45549,1.38359s3.35877,1.62568,6.93701,2.30548l-2.55549,1.77264s4.05607,1.52391,7.96217,1.70533l-2.12113,1.4563s3.93588,1.48147,7.78388,1.70918l-1.63134,1.29422s4.83173,1.80261,8.78302,1.2651l-1.91858,2.61561s6.41761-.45948,10.094-2.10181c1.46687-.65663,3.18076-.7649,4.76159-.7103,2.37744.08166,4.44826.53111,4.91919.04004.50112-.52159-1.82445-2.63169-3.02037-5.42515-.674-1.57356-.35761-3.83278-.52584-4.99794-.98449-6.87233-4.1612-11.04366-4.1612-11.04366l-1.22085,3.04807c-1.10053-4.59328-5.22559-9.30085-5.22559-9.30085l-.50301,4.32111c-2.2259-4.01199-6.52192-7.61095-6.52192-7.61095l.09148,3.05204c-2.77855-3.3094-6.91345-5.83806-6.91345-5.83806l.54748,3.28932c-2.8679-2.47165-6.21637-4.12391-6.21637-4.12391l.73941,2.94651c-3.55921-1.58274-7.58331-2.0872-7.58331-2.0872l1.82821,3.04641c-.13261.00606-.26553.01005-.39854.01808-2.93719-.9952-5.64519-1.3345-5.64519-1.3345Z" fill="#6d9f6b"/><path d="m84.43151,14.56206c-.69221-.98984-1.10023-2.27579-1.65387-3.35775-.79796-1.55975-2.00341-3.21445-3.258-4.3729-.11116-.10277-.32679-.00295-.31571.15861.12983,2.0158,1.25802,3.25178,2.19871,4.90725.44671.78724.71475,1.69513,1.17826,2.47202-4.48865-2.42309-8.99927-4.7913-13.5342-7.0416-.35121-.17477-.54035.36587-.28064.60222,3.64179,3.32003,7.88508,6.01393,12.27927,8.45509-1.90537.21774-3.81343.36684-5.80357.23987-.33604-.0211-.3633.51387-.02961.5603,2.18146.31176,5.31699.84764,7.86858.31244,2.06673,1.10723,4.1526,2.17252,6.20947,3.22947-.20896.01448-.41861.02744-.62573.05948-2.08371.3251-4.30211.30002-6.40836.12018-.56383-.04883-.59702.83574-.04896.9351,2.26214.41012,4.44383.52348,6.70349.24716.77966-.09544,1.72049.0043,2.46504-.28092,1.28817.67172,2.56494,1.34338,3.80798,2.02976,1.47081.81135,2.93369,1.64963,4.39553,2.49564-.88656-.02995-1.77531-.07448-2.6581-.01309-2.24832.1566-4.56587.67809-6.81034.58254-.48605-.02105-.5253.73768-.04386.81041,2.14013.32738,4.41108.16129,6.54969-.01497,1.59105-.1314,3.05847.16916,4.42327-.51844,1.85122,1.07637,3.70312,2.15779,5.56604,3.21183-2.65536.21921-5.38623,1.20179-7.92763,1.00459-.52439-.04208-.56165.79002-.04578.8733,2.14831.34588,4.32557-.11833,6.47502-.22091,1.27362-.06089,2.51754-.22443,3.76607-.39659,5.31877,2.90777,10.76601,5.47458,16.58714,6.91466.28807.07122.57439-.36569.2552-.54715-5.14814-2.94319-10.3855-5.71792-15.61534-8.50589-.99186-1.74006-1.50447-3.59079-2.34128-5.42842-.32888-.71937-.65399-1.4314-.95307-2.16567-.35273-.86563-1.02678-1.48412-1.43887-2.31203-.12838-.25695-.56169-.23067-.54894.10339.06523,1.69125.85051,3.55674,1.49875,5.10081.52389,1.24688,1.00666,2.41156,1.59026,3.53151-2.01086-1.07491-4.01581-2.15623-6.01368-3.2554-.05325-.20722-.11261-.41343-.19913-.61577-.45158-1.06191-.93838-2.0989-1.50222-3.09887-.97537-1.73126-1.86568-3.49775-3.04794-5.07886-.18632-.24864-.56201-.05149-.50184.25309.38071,1.93392.89416,3.64164,1.94023,5.30632.42474.67542.81383,1.35881,1.19038,2.05318-.47237-.26386-.9449-.5233-1.41509-.78825-1.87061-1.05811-3.7487-2.11277-5.62868-3.16489-.66772-1.63581-1.41379-3.21902-2.26906-4.76168-.93403-1.6841-1.72468-3.34649-3.04682-4.72964-.21426-.22315-.53778-.07116-.50189.25349.32511,2.92081,2.17995,5.58763,3.82728,8.13196-1.61724-.89912-3.23533-1.79938-4.86054-2.68836.00057-.00042.00152-.00079.0016-.00128.13696-.12834.0198-.34704-.14762-.32985-.12767.01225-.25388.02765-.38182.04178-.02965-.01621-.06091-.03175-.0919-.04918-.24818-.43793-.53478-.84313-.82716-1.25909Z" fill="#54794f"/><path d="m35.12478,94.3229s14.54572-1.2285,18.90595-12.17865c4.35997-10.94907,1.38688-22.92714-5.78631-29.52286-7.17429-6.59437-17.24184-5.69847-21.62174-4.19872-4.38004,1.50074-11.5061,4.92153-15.82251,9.63263-1.4386,1.5706-3.95442,6.20495-3.95442,6.20495,0,0,4.10537,2.68189,9.79996,1.60416,5.10381-.96476,6.70469-1.50978,6.70469-1.50978,0,0-2.65381,4.64063-3.26617,8.08611-.61292,3.4459-.77779,8.48189-.77779,8.48189,0,0,5.1419.78626,7.93578.71238,2.79387-.07448,6.57762-.93438,6.57762-.93438,0,0-.78716,2.18817-.42197,5.24865.49386,4.12891,1.72691,8.37362,1.72691,8.37362Z" fill="#a36ba9"/><path d="m48.29077,62.15519c-3.21638,7.37231-7.16696,15.2195-12.74138,21.08808-.7094-.51009-1.69594-.57758-2.46704-.08349-1.00383.64324-1.3053,2.01772-.66166,3.0216.64316,1.00432,2.0178,1.30541,3.02213.66224.98421-.63088,1.28784-1.96258.69267-2.96132,5.60578-5.24539,11.83525-13.71016,12.88576-21.46613.05539-.41476-.54218-.69269-.73047-.261Z" fill="#ffc259"/><path d="m42.24218,61.83599c-3.81026,6.85555-8.06911,15.43168-14.21405,20.62208-.95594-.80879-2.37769-.96086-3.47648-.25656-1.345.86126-1.74809,2.70199-.88684,4.04709.86126,1.345,2.70254,1.74777,4.04766.88642,1.34461-.86132,1.74777-2.70255.88595-4.04722-.02205-.0348-.05209-.06199-.0758-.09512,3.43864-2.83151,5.78024-6.53555,8.42448-10.14649,2.41237-3.29477,4.85304-6.83757,5.73239-10.85373.05904-.26522-.30888-.38777-.43731-.15647Z" fill="#ffc259"/><path d="m16.15866,69.71742c-1.36311.87294-1.77135,2.73899-.89884,4.10152.873,1.36271,2.73904,1.77096,4.10168.89845,1.36261-.87301,1.77086-2.73906.89828-4.1012-.04565-.07135-.10475-.12902-.15577-.19479,3.51779-2.54586,7.04291-5.04423,10.78646-7.28072,4.32715-2.58515,8.97788-4.54088,13.3632-7.03544.36598-.20799.13051-.70186-.22673-.71962-1.54417-.07486-2.49625.21515-3.8337.98432-2.84041,1.63366-5.89461,2.82356-8.71277,4.51388-4.35811,2.61403-8.37505,5.45088-12.00329,8.92315-.96028-.67215-2.28359-.75245-3.31852-.08955Z" fill="#ffc259"/><path d="m10.25305,64.54024c-.26678,1.14954.10237,2.57186,1.02384,3.35331.50744.42998,1.02665.74424,1.68769.88003,2.57244.52861,4.69872-1.83662,4.23662-4.17855,4.01892-1.91595,7.73673-4.56889,11.89365-6.26356,5.32202-2.1694,10.89403-3.02589,16.44273-4.4322.27279-.06872.17359-.44913-.07836-.45779-5.20117-.18597-10.35766.78434-15.18114,2.81722-2.23627.94313-4.46962,1.85959-6.66306,2.89993-2.46679,1.17024-4.55571,2.90222-6.83165,4.34653-.02319-.04002-.03915-.08181-.06489-.12171-1.68827-2.6352-5.76619-1.84844-6.46546,1.15678Z" fill="#ffc259"/><path d="m49.04916,70.06268c-3.3055,7.23327-5.02596,15.9914-9.89703,22.46693-.56606-.33443-1.17991-.47213-1.7992-.42009.01343-.00398.02592-.0085.03885-.01255-.04736.00037-.09435.00434-.14176.01118-1.13962.12954-2.50733.90647-2.62494,2.20251-.00089.00876-.00218.01747-.00297.02625-.17802.56999-.21282,1.18178.02573,1.70815.03406.07661.06616.15343.0955.23187.30341.80203.78159,1.45715,1.56278,1.85504.9799.49987,2.17606.44187,3.10355-.15201,1.68981-1.08269,1.84389-3.39614.52295-4.80722,5.46404-6.20283,7.94094-15.08935,9.70059-22.90074.07682-.34305-.43445-.53665-.58406-.20932Z" fill="#ffc259"/><path d="m6.20152,55.9555s2.8424,3.28781,7.22197,5.85519c4.381,2.56658,14.18264,2.37425,14.18264,2.37425,0,0-2.77741,5.77889-3.19894,8.57541-.42119,2.79758-.07642,10.00026-.07642,10.00026,0,0,6.5385-.6829,10.08335-2.05648,3.54367-1.37315,7.6238-3.14186,7.6238-3.14186,0,0-2.24097,5.38283-.61271,10.39534,1.62887,5.0125,8.04662,11.4619,8.04662,11.4619,0,0,.38942-7.33103,2.01115-10.18545,1.62158-2.85404,7.11294-6.07882,8.90053-13.19808,1.78772-7.12025.7469-19.19451-6.27771-24.78204-7.02404-5.58795-17.33596-8.333-23.22431-5.64469-5.88746,2.68845-12.91717,6.6354-16.46177,8.00801-3.54378,1.37323-8.2182,2.33823-8.2182,2.33823Z" fill="#b982ca"/><path d="m53.20532,51.13157c5.12264,4.72433,2.89139,13.60472,1.21009,19.29202-1.58584,5.3652-3.8575,10.50856-5.50988,15.85613-.19643.63428.78041.82073.99208.21731,1.68652-4.81434,6.55482-13.76765,8.04985-21.73231.05505,1.03631.09336,2.0751.09811,3.12075.0152,3.28761.11856,6.65983-.83372,9.8379-.03753.12667.17183.20313.21933.07884,2.02207-5.34768,2.19976-12.12897.94355-17.94822-.12689-3.75033-1.50268-6.95636-5.03753-8.91367-.11814-.06579-.22835.10249-.1319.19126Z" fill="#a868ca"/><path d="m55.05372,52.88036c-.13235.42117-.28275.83724-.42131,1.25658.00498-.07326.01702-.14507.02009-.21912.01074-.27287-.37877-.40256-.54449-.19659-6.01617,7.47311-12.13609,13.72935-19.83242,19.56003-.20117.1524-.01189.44738.21055.32875,4.78856-2.56077,8.72587-5.32337,12.75336-8.95928,1.95948-1.76791,4.32315-3.77868,5.84758-6.15297-.93413,2.47445-1.93041,4.92828-2.94266,7.36357-1.81657,4.37255-2.95651,9.2361-5.09081,13.45015-.20638.40779.39809.70939.626.32015,2.61453-4.45841,4.23959-9.69792,6.52626-14.3687,1.91382-3.90853,3.46212-7.94906,3.31082-12.34219-.00939-.28029-.38638-.2842-.46297-.04038Z" fill="#a868ca"/><path d="m30.85963,71.25076c-.33055.34302.17159.95923.55221.64879,3.68676-3.0075,6.97698-6.49085,10.53288-9.65792,3.88386-3.45912,9.04918-5.70012,12.44109-9.61059.18145-.2091-.02319-.51433-.28474-.44445-9.69876,2.60698-16.65388,12.22701-23.24144,19.06416Z" fill="#a868ca"/><path d="m24.15515,51.45605c8.59869-2.59785,18.30983-5.03165,26.61812-.65067-10.9145-2.38839-20.17701,4.82713-30.34837,7.51614-.31235.08268-.2068.53015.09214.53484,4.91587.0727,9.9063-2.12452,14.3897-3.957,3.9028-1.59499,8.23071-2.81372,12.52351-3.12391-6.90122,2.01769-12.41889,7.4055-15.99297,13.69491-.19873.34918.31484.69465.57433.39539,5.75578-6.63055,12.38033-10.68484,20.35507-14.22695.29064-.12926.3065-.54401.04725-.65635.10747-.21954.10508-.4904-.12022-.67576-7.99644-6.62914-20.10103-4.63227-28.39944.58754-.30154.18992-.07541.66361.2609.56182Z" fill="#a868ca"/><path d="m44.29315,47.31914c1.64307,1.36896,4.45204,2.79089,4.45204,2.79089,0,0-2.04543,1.15159-2.29913,2.28244-.08215.36541.09.71668.45664.83703,1.44433.47031,2.88037.3091,4.25156-.15788-.41017.884-.80851,1.78167-1.4023,2.51225-1.1155,1.37497,1.10294,3.04476,2.33833,1.92741.46467-.42144,1.63063-1.4869,1.63063-1.4869,0,0,.25354,2.10071.69801,3.73757.41808,1.54116,1.60032,1.96482,2.02649.96512.42502-1.00078.61744-3.5065.61744-3.5065,0,0,1.5932,5.47374,2.9145,5.15334,1.32153-.32128.3446-5.71317-.23547-6.64993.00653-.16785-.41125-3.41685-1.02962-4.77192-.16714-.36873-.46962-.75949-.83497-1.14278,1.06673-.80467,2.07187-1.71378,3.05599-2.54704,3.47642-2.94683,7.26752-5.65858,11.04767-8.19575,5.32113-3.57182,12.57111-7.78329,18.92499-9.13429.91992-.1956.7985-1.74413-.17114-1.66547-7.07615.57324-14.18693,4.60838-20.19567,8.07708-4.17536,2.40907-7.98471,5.61122-11.68189,8.67551-1.06996.88668-2.27837,1.91523-3.0678,3.12777-.45083-.27553-.87376-.48962-1.19667-.58915-1.14133-.35301-3.64195-.93659-4.44349-1.33355-.80164-.39697-3.33774-1.18425-5.65297-.09824-.40831.19081-.57864.88233-.20316,1.19301Z" fill="#617c6b"/><path d="m29.01869,21.37271s-7.69375,3.11382-13.20375,2.9409c-5.51111-.17298-12.23186-3.69724-15.81494-4.19671,0,0,9.68602-6.83242,16.37725-6.91925,6.69153-.08618,12.64144,8.17507,12.64144,8.17507Z" fill="#81ba6b"/><path d="m17.25843,41.18644s4.04226-2.33009,8.31645-3.0858c4.27232-.75609,8.71431-2.70225,10.39027-6.2308,1.67602-3.52904,1.62734-5.74218,1.62734-5.74218,0,0-5.00496-1.43925-9.93484.44223-4.93115,1.88261-7.09599,5.34632-8.3074,7.83302-1.21279,2.4865-2.09182,6.78353-2.09182,6.78353Z" fill="#81ba6b"/><path d="m41.56528,2.7168s1.93037,4.24809,2.27174,8.5741c.34087,4.32594,1.85127,8.93446,5.2015,10.94189,3.35106,2.00857,5.55887,2.17229,5.55887,2.17229,0,0,1.91467-4.84235.51438-9.93153-1.39788-5.08842-4.63656-7.5765-6.99525-9.0226-2.35874-1.44571-6.55124-2.73415-6.55124-2.73415Z" fill="#81ba6b"/><path d="m37.25538,20.09106c-.65141.28566-8.82201-1.82574-9.83047-7.07764C26.41689,7.762,29.24794.05126,29.24794.05126c0,0,3.46417,4.95129,6.69709,8.19264,3.23231,3.24126,1.31035,11.84716,1.31035,11.84716Z" fill="#81ba6b"/><path d="m41.19675,31.22614c-3.45968,2.95668-6.06347,9.36738-8.1242,11.61686,0,0,9.56407.83971,13.90994-2.49931,4.34582-3.34146,5.33054-10.693,5.33054-10.693,0,0-7.6552-1.38112-11.11628,1.57545Z" fill="#81ba6b"/><path d="m30.0651,8.4191c.84515,3.55604,2.45118,6.25318,4.22937,9.34799.86317,1.50227,2.20269,3.24838,3.70113,4.64719-2.84154-.6878-5.68084-1.38122-8.51587-2.05289-6.64658-1.5729-13.25801-1.54796-20.05244-1.45021-.47619.00598-.45234.79193.01157.82598,7.5474.5586,14.86869,1.39378,22.22812,3.19313,2.63377.64432,5.27089,1.30289,7.90918,1.95628-1.91101.34609-3.4585,1.24705-5.44137,2.25587-3.54159,1.80197-6.93251,3.8004-9.95117,6.40876-.2744.2368.05617.63172.34978.43183,5.16969-3.51922,11.08568-5.91666,16.64861-8.70052,4.12355,1.0137,8.25585,1.99563,12.40674,2.83818.11211.02255.22596.04424.33757.06671-1.38032.39204-2.69289,1.16389-4.03395,1.84064-2.96418,1.49647-5.43073,3.59514-7.92253,5.76215-.33022.28677.06561.74765.41989.51822,2.32508-1.5066,4.59336-3.12672,7.04811-4.4151,2.30844-1.21095,4.80464-2.04901,7.13987-3.18685,6.1528,1.16677,12.46034,2.07461,18.68741,2.21581,5.44215.12184,12.3989-.33927,16.52658-4.21793.40515-.3799.01726-.95111-.48758-.79874-11.41773,3.46033-22.83921,2.69048-34.29917.65326-1.5898-2.07628-3.11624-5.01143-4.3185-7.27815-1.47808-2.78779-2.48172-5.22255-4.38997-7.73189-.16105-.21245-.55039-.05624-.49093.21558.7563,3.41998,2.45649,6.43117,4.18637,9.45211.95206,1.66261,1.61126,3.42645,2.68304,4.91328-1.52019-.29098-3.04144-.59798-4.56434-.92049-3.28249-.69388-6.5624-1.46128-9.83859-2.24703-1.86995-1.93455-3.48127-4.63893-4.9343-6.74188-1.76976-2.55789-3.08945-5.40919-4.83096-7.99404-.13554-.2017-.49758-.04358-.44166.19275Z" fill="#617c6b"/><path d="m196.56419,217.01141s-2.28372-4.86008-2.15037-10.81678c.10631-4.72621,1.06093-8.50369,1.58639-10.90181.52501-2.39779.52356-5.90202,1.13024-6.22633.60801-.32574,2.05413,5.44458,2.49257,8.18624.43714,2.74087,2.45666,8.79939,1.79574,13.6509-.60629,4.44938-2.33214,10.17749-4.85458,6.10779Z" fill="#9ab800"/><path d="m220.86471,171.57283s-4.27168-3.06232-7.12922-8.44762c-2.2666-4.27467-3.37437-8.17455-4.14169-10.60499-.76831-2.43059-2.51421-5.55367-2.18446-6.18107.32953-.62996,4.37799,3.71177,6.0969,5.91227,1.71943,2.20109,6.37363,6.47846,8.25287,11.17267,1.72389,4.3059,3.1774,10.37339-.8944,8.14874Z" fill="#9ab800"/><path d="m176.83111,187.40345s4.65946,1.19517,9.65103-.3154c3.96173-1.19587,6.9141-3.03556,8.8081-4.12019,1.89355-1.08571,4.85042-1.89172,4.97618-2.58134.12583-.69072-5.09744-.82709-7.5157-.63892-2.41937.18811-8.02602-.4631-11.95692,1.32525-3.60385,1.64264-8.01342,4.71114-3.96269,6.33059Z" fill="#9ab800"/><path d="m192.45651,196.6423c.77885.11025-2.11855,9.86458-8.44136,15.2823-6.32223,5.41791-11.61513,2.87585-11.82659.78521-.21051-2.09091,5.86412-6.58187,8.5817-8.39311,2.72042-1.80991,10.90614-7.78635,11.68625-7.6744Z" fill="#9ab800"/><path d="m202.69549,196.27619c.64572,3.55323,2.39211,11.66458,3.85543,12.2498,1.46368.58618,4.32227-3.98665,2.0006-12.71724-2.3214-8.72904-8.3169-15.53803-8.55981-14.76303-.24197.77473,2.05713,11.6767,2.70378,15.23047Z" fill="#9ab800"/><path d="m196.60344,189.34294s-5.78528,3.04261-9.03495,4.99976c-3.24844,1.95986-8.56625,4.48481-12.1263,4.29574-3.56073-.18997-3.79485-4.39701-.51757-6.55792,3.27703-2.15993,19.30019-4.31947,21.01418-3.72042,1.71211.59877.66464.98283.66464.98283Z" fill="#9ab800"/><path d="m207.58013,148.16752s-6.14323,4.30755-8.3702,6.20875c-2.22561,1.90231-8.28616,4.95313-10.80716,4.38776-2.52208-.56563-3.80619-4.03397,1.48648-6.47923,5.29135-2.44586,15.31317-5.69852,17.02518-5.09976,1.71317.59842.6657.98248.6657.98248Z" fill="#9ab800"/><path d="m184.91574,178.59706s4.36978.19036,8.42881-2.23399c3.21926-1.92516,5.40938-4.25183,6.83291-5.65625,1.42624-1.40361,3.84859-2.75662,3.80463-3.43394-.04468-.67591-4.67378.24312-6.76183.90855-2.08964.66185-7.17155,1.17516-10.23192,3.65201-2.80775,2.26978-6.00312,6.0495-2.0726,6.76362Z" fill="#9ab800"/><path d="m216.21196,180.01953s-3.59761-2.69069-5.72534-7.38405c-1.68853-3.72416-2.36113-7.11548-2.85148-9.22949-.48916-2.11241-1.80398-4.83602-1.45312-5.3765.35067-.54192,3.63787,3.25293,5.00537,5.17684,1.36778,1.92203,5.20888,5.66942,6.51267,9.75578,1.19418,3.74626,1.99935,9.01802-1.4881,7.05741Z" fill="#9ab800"/><path d="m195.08352,165.9552c-2.59633,1.82523-8.29778,6.52353-9.94943,5.08618-1.65286-1.43945-.18192-5.8044,6.64713-9.74656,6.82797-3.94172,14.71971-3.90273,14.38952-3.21908-.33058.68358-8.49222,6.05302-11.08721,7.87946Z" fill="#9ab800"/><path d="m203.97089,168.4031s1.08282,5.96091,1.86413,9.64852c.77938,3.69047,2.80313,9.00277,4.77814,11.8112,3.29785,4.68782,6.30245.66962,4.37759-3.87333-1.92442-4.54188-9.16386-17.16285-10.58572-18.04884-1.4209-.88494-.43414.46245-.43414.46245Z" fill="#9ab800"/><path d="m191.85364,198.799c3.86253-3.74472,5.73151-8.89871,7.814-13.91407,3.16758-7.62942,5.21683-15.77413,7.04034-23.95031,1.68265-7.52862,2.84571-15.22406,3.64801-22.97772.79595-7.69981,1.99973-15.98828-.60004-23.7368-.16944-.50291-.91609-.35719-.92289.12955-.19611,15.42786-1.52487,30.59094-4.6429,45.48005-1.5193,7.25124-3.16676,14.4914-5.40884,21.48025-1.84161,5.74597-3.82643,12.26743-7.56566,16.85021-.3062.37523.2971.9684.63799.63883Z" fill="#906059"/><path d="m216.91098,128.82022s7.42888,4.07915,12.07924,12.68727c4.65055,8.60957,4.15515,22.69701,17.80684,31.86115,14.81783,9.9467,24.83383,5.75883,19.8656-9.15266-4.96733-14.91075-35.81331-37.55283-44.33361-42.56634-8.521-5.01422-9.56647,3.2913-5.41806,7.17058Z" fill="#ff6081"/><path d="m217.83021,121.11398s6.37531,18.12598,11.76395,40.12588c5.38774,21.99977-3.72197,36.18081-12.76724,30.92963-9.04421-5.25153-11.52739-17.08162-10.99139-26.37472.53499-9.29314,4.86876-35.88866,5.56392-41.01543.69616-5.12672,3.40285-8.56254,6.43076-3.66536Z" fill="#ff6d90"/><path d="m224.68247,126.01803c7.71105,3.11253,18.88293,16.92868,31.70549,20.58259,12.82263,3.65341,18.83463-4.32525,8.37729-14.04546-10.4569-9.71974-23.90785-12.86634-34.81834-12.87209-10.91067-.00527-12.97492,3.22201-5.26444,6.33496Z" fill="#ff86ac"/><path d="m214.43771,124.37436s-6.78337,9.46964-9.03937,18.32464c-2.25644,8.85453-6.04097,26.16033-13.87867,32.41377-7.83738,6.254-19.21491,9.2484-19.46676-2.01317-.25273-11.2617,4.34926-19.51898,10.70881-27.32827,6.36054-7.80914,13.18822-12.55253,19.71196-18.5516,6.52333-5.99974,14.96973-9.74058,11.96403-2.84537Z" fill="#ff86ac"/><path d="m212.54626,123.46673s-24.44056,14.74097-32.30543,20.15976c-11.00971,7.58584-20.93252,11.06987-27.37379,6.27393-6.44093-4.79539.35179-15.05194,12.32841-18.3091,11.97635-3.25872,19.37268-7.68256,33.00891-9.25545,13.63711-1.57266,16.70677-2.68334,14.34189,1.13087Z" fill="#ff6081"/><path d="m211.82962,120.76337c-1.1282,4.42747-16.95608-1.37381-24.76695.1727-7.80975,1.54577-17.08503,4.4868-27.88226,2.91436-10.79733-1.57246-15.01164-11.48623-8.66105-14.583,6.35206-3.09645,26.01459-2.80113,36.46122-.13987,10.44708,2.66234,25.97677,7.20878,24.84904,11.63581Z" fill="#ff9fbd"/><path d="m210.07116,111.47548c4.67675,7.08479,10.05984,11.40286,3.1368,10.81804-6.92331-.58577-8.27984-6.82502-16.44059-9.49368-8.16131-2.66823-24.35037-6.20408-25.41501-15.90518-1.12249-10.2339,16.11262-10.03845,25.35878-2.37844,9.24535,7.65938,8.68193,9.87327,13.36002,16.95927Z" fill="#ff86ac"/><path d="m218.05793,121.76067c4.24237,1.08111,19.53256-.3275,21.64744-8.62889,2.1149-8.30088-10.58187-18.6086-22.64861-15.19939-12.06553,3.40788-5.01172,5.79442-5.04378,12.85887-.03161,7.06411,1.80241,9.88878,6.04495,10.96941Z" fill="#ff9fbd"/><path d="m190.41327,118.8132c3.88524.83975,7.80589,1.62055,11.64804,2.64842,1.51118.40519,3.00538.82464,4.51153,1.17086-5.77634.37561-11.39004,1.63706-16.68987,4.37735-.43768.22599-.12185.89763.33303.77194,5.45762-1.50127,10.97794-2.53866,16.572-3.07346-1.30893.33649-2.60064.74316-3.85722,1.11944-3.22296.9661-7.11202,1.50391-9.94267,3.40508-.47864.32253-.17118,1.07047.40055.92648,3.00755-.75161,6.15775-1.00235,9.21007-1.77301,1.42336-.35909,2.91759-.87055,4.43257-1.32213-1.80896,1.28129-3.62688,2.546-5.34437,4.00913-2.83104,2.4115-5.61235,5.26726-7.72263,8.34166-.36257.52874.41893,1.02493.84999.6435,2.81247-2.49916,5.64652-4.92356,8.40618-7.47299,1.98393-1.83343,4.09366-3.37532,6.1103-5.06967-4.54815,5.40092-10.3992,9.89887-13.706,16.08711-.22025.41059.35.88686.66971.50776,1.25825-1.48921,3.08343-2.49608,4.46667-3.87896,1.81219-1.81294,3.52353-3.73552,5.31048-5.57535,1.85785-1.91183,3.63845-3.97872,5.21873-6.16947-.80583,2.64789-1.55795,5.33728-1.79676,8.02264-.02703.30644.45232.41586.58185.14773,1.65162-3.43439,2.64237-6.8985,3.51353-10.54225.22438-.00522.41588-.07859.5539-.21759-.24903,2.76472-.57061,5.52578-.86771,8.28541-.37621,3.48446-1.24842,7.08205-.82858,10.59389.04953.41208.6941.71668.89802.22856,1.89032-4.51712,2.35951-10.1418,2.46182-15.3781.02067.20746.04471.41531.07596.62434.3164,2.13912.59334,4.23743.73445,6.39359.27671,4.23892.59123,8.46968.83431,12.71251.01877.32757.45557.36449.55615.06447,1.3761-4.09421.92206-8.58246.60691-12.81574-.23371-3.13484-.46446-6.52338-1.0656-9.69387,1.18929.89263,2.37414,1.79199,3.48986,2.79514,2.66178,2.39032,4.80977,5.28064,7.23532,7.89712.37456.40436,1.14285-.02494.94098-.55872-.92938-2.45289-2.34435-4.50281-4.02951-6.31783,2.63341,2.03817,5.08801,4.34407,7.88339,6.43875.2821.21145.62345-.19709.45915-.46815-1.82816-3.02416-4.27724-5.62441-7.1102-7.70494.31972.12725.64348.24429.96137.37774,3.54416,1.48772,6.30028,4.53461,9.84046,6.00546.51328.21421.92241-.32311.57581-.75932-4.38293-5.52359-10.83935-8.06499-17.43886-9.78256,1.49035.07236,2.94416.36443,4.45159.56123,3.23067.42309,6.46788,1.25634,9.47506,2.48298.46083.18816.90918-.31364.54205-.71498-4.1714-4.55148-10.83824-4.92948-16.7712-4.27892,1.46608-.61439,2.9576-1.17457,4.48615-1.75747,2.25925-.86128,4.78062-1.08909,6.97201-2.05271.25557-.11221.29591-.5387.08644-.7108-1.76549-1.45571-4.89381-.31822-6.77393.31246-2.04889.68709-3.89594,1.57528-5.65507,2.63589,1.40513-2.06805,2.62675-4.24038,3.83393-6.47843.2022-.37535-.13721-.72417-.51751-.65851-1.6406.28248-2.51478,1.66757-3.2216,3.05568-.86912,1.7076-1.81822,3.37568-2.74855,5.05351-.11745-.08348-.23302-.16669-.3506-.24929.85142-2.03552,1.30185-4.1895,1.83898-6.35895.34852-1.40553.70213-3.52551-.17658-4.77301-.20425-.29082-.59935-.15921-.63075.18014-.05961.65311-.42982,1.40099-.64548,2.01767-.32089.92146-.21612,2.1117-.44728,3.08738-.44427,1.87861-.73598,3.76736-1.36588,5.57646-.02359-.02371-.04776-.0475-.07042-.07066-.65409-1.56809-1.43755-3.07545-2.40129-4.51224-1.32341-1.97117-2.79514-4.0413-5.15158-4.77541-.38968-.12173-.76641.36943-.53161.71066.95467,1.38803,1.9473,2.69576,2.90412,4.00567-2.17887-1.58741-4.55808-2.8278-7.21244-3.30626-.48945-.08827-.79802.56946-.3357.83092,3.40079,1.92252,6.47699,4.06713,9.36386,6.53421-2.69443-.55747-5.3146-1.52063-8.00139-2.11397-3.60838-.79587-7.13298-1.06743-10.81758-.86764-.34146.01904-.42437.53648-.07088.61242Z" fill="#ae3b59"/><path d="m207.28775,126.44169c.25554.28162.50854.53669.78033.77139.00027.00843.00036.01734.00113.02584.07577,2.0635,1.23925,3.90153,3.26148,4.54617,1.59459.5083,3.39982.19731,4.49731-1.13585.27987-.34072.47549-.70168.63454-1.06956.82185.45031,1.71869.65747,2.75091.24942,1.57285-.62275,2.49156-2.14481,2.30706-3.83752-.15549-1.42479-1.1124-2.6507-2.37638-3.46209.01994-.68566-.20658-1.38008-.68553-1.81272-.7935-.71511-1.92037-.95882-2.93249-.59713-.12368-.03113-.24661-.06114-.37003-.09123-.31599-.70674-.86268-1.2787-1.71681-1.56749-.63146-.21279-1.34418-.03891-1.9517.24394-1.37042-.59958-3.1179.32901-3.52241,1.90943-1.70635,1.31477-2.49154,3.82651-.67739,5.8274Z" fill="#ffb559"/><path d="m218.01263,128.64059c2.12525.54141,2.96492-2.75551.83957-3.29694-2.12617-.54205-2.9663,2.75531-.83957,3.29694Z" fill="#ffdd2f"/><path d="m212.88857,133.48596c.95045.24178,1.94607-.3494,2.18835-1.29978.24171-.94996-.3494-1.94607-1.29975-2.18784-.95038-.24227-1.94568.34946-2.18795,1.29984-.2421.9499.34947,1.94558,1.29936,2.18778Z" fill="#ffdd2f"/><path d="m208.67337,127.98273c1.59443.40618,2.2247-2.06631.62976-2.47246-1.59436-.40667-2.22421,2.06638-.62976,2.47246Z" fill="#ffdd2f"/><path d="m204.91056,129.18487c1.59499.40576,2.22487-2.06679.63035-2.47298-1.59437-.40657-2.22477,2.0668-.63035,2.47298Z" fill="#ffdd2f"/><path d="m210.33439,123.16027c2.04444.52056,2.85196-2.6493.80802-3.16978-2.04445-.52117-2.85238,2.64873-.80802,3.16978Z" fill="#ffdd2f"/><path d="m212.61295,127.78466c1.18541.3017,1.65369-1.53626.46835-1.83846-1.18541-.3017-1.65419,1.53618-.46835,1.83846Z" fill="#ffdd2f"/><path d="m219.69218,132.2218c.74299.18936,1.52081-.27361,1.71009-1.01611.18929-.74249-.27207-1.52098-1.01555-1.71041-.74248-.18938-1.52106.27256-1.71057,1.01593-.18929.74249.27354,1.5213,1.01603,1.71058Z" fill="#ffdd2f"/><path d="m218.04542,123.42323c1.55352.39568,2.16708-2.01367.61354-2.40926-1.55352-.39568-2.16756,2.0135-.61354,2.40926Z" fill="#ffdd2f"/><path d="m205.46564,125.30928c1.96303.50023,2.7385-2.54316.77593-3.04372-1.96255-.50006-2.73809,2.54373-.77593,3.04372Z" fill="#ffdd2f"/><path d="m215.50762,126.32825c-1.95308-.42466-2.70586,2.61218-.72512,3.11644,1.98026.5047,2.77246-2.52186.85399-3.08353,1.62578.34117,2.24976-2.18856.59673-2.60927-1.65345-.42128-2.3158,2.09782-.7256,2.57636Z" fill="#ff8706"/><path d="m208.33151,131.02162c1.71755.43763,2.39587-2.22568.67864-2.66276-1.71758-.43814-2.39627,2.22501-.67864,2.66276Z" fill="#ff8706"/><path d="m216.10528,132.73224c1.38985.35408,1.93879-1.8016.54985-2.15565-1.39033-.35425-1.93978,1.80145-.54985,2.15565Z" fill="#ff8706"/><path d="m220.53648,127.85888c.15328.118.30527.2352.4583.35215.00178-.0052.00346-.01041.00614-.01486.07173.06591.14443.13135.22559.19026.31264.22841.81292.17655,1.1268-.01003.47243-.28049.58476-.76588.50461-1.27236-.02962-.18998-.05931-.37946-.08936-.57001-.13768-.87132-1.29984-1.18334-1.97463-.78266-.67373.40032-.95594,1.57083-.25746,2.10751Z" fill="#ff8706"/><path d="m213.80501,123.10593c1.43091.3642,1.99648-1.85473.56567-2.21891-1.43127-.36516-1.99603,1.85439-.56567,2.21891Z" fill="#ff8706"/><path d="m205.74533,124.2125c1.59494.40615,2.22422-2.06648.62985-2.47306-1.59386-.4066-2.22421,2.06638-.62985,2.47306Z" fill="#ff8706"/><path d="m210.66936,125.23745c1.83983.46866,2.56686-2.38396.72749-2.85296-1.84034-.46863-2.56686,2.38396-.72749,2.85296Z" fill="#ff8706"/><path d="m206.23959,120.57719c1.22632.3122,1.71094-1.58905.48462-1.90125-1.22675-.31267-1.71136,1.58848-.48462,1.90125Z" fill="#ff8706"/><path d="m157.80759,75.04816c1.53103,5.40673,9.42102.51246,12.03875-.89707,3.59682-1.93886,7.01967-3.92964,10.26354-6.12854-.27172.45241-.53336.90287-.77921,1.34031-5.17937,7.52583-9.21296,16.11738-6.36985,19.66145.12057.3959.26125.78295.45102,1.14563,1.07355,2.05228,4.3577,1.93336,6.02138.81071,2.7021-1.82344,4.68988-4.3068,6.6087-6.90762,2.31102-3.13306,3.61478-6.48122,4.36823-10.25732.83525,2.39217,1.87154,4.71622,2.99766,6.9742,2.45267,4.91863,7.6328,15.24032,14.40389,14.12288,2.82816-.46618,4.11881-4.06608,4.60776-6.42714.66885-3.22737-.48017-6.26065-1.77199-9.16706-1.71102-3.8489-3.92748-7.5352-6.56112-10.82306-.07501-.09358-.15311-.18954-.22987-.2843-.05083-.07666-.10702-.15058-.15809-.22627,1.44481.74726,2.91345,1.45366,4.39691,2.14598,3.74812,1.75039,7.67348,3.12325,11.64853,4.24973,2.50101.70808,6.33063,1.62998,8.54113-.28356,6.1025-5.28008-4.99869-14.8423-14.98894-18.1464,1.51978-.67741,2.97354-1.36569,4.31324-2.02981,3.61933-1.79441,13.11484-8.64966,7.99941-13.55942-5.06579-4.86199-15.363.69598-20.22487,3.15857-.4262.21535-.88731.46305-1.37118.74094,1.64489-3.45864,2.89009-7.20839,3.50185-10.6205.67274-3.75053.29226-11.5824-5.34202-11.27261-5.70415.31128-8.38525,6.24696-9.49015,11.16067-.81229,2.42777-1.37824,4.97589-1.80797,7.54415-2.3079-8.84693-7.03681-19.44305-13.89904-12.62771-4.34853,4.32131-2.85006,12.36404-1.06491,17.39026.01996.05572.0448.11469.06599.1717-5.25006-1.06984-12.66336-1.48669-16.15967,3.15275-2.1627,2.86771-.21489,5.44314,2.33541,7.2162.29064.21727.59918.41737.92594.59408,1.04102.62041,2.11068,1.10737,2.99639,1.42944,2.00146.72497,4.09802,1.20684,6.21525,1.51951-4.15414,2.12896-16.21212,9.01972-14.48208,15.12924Z" fill="#ff752c"/><path d="m166.21637,68.46846c3.48061-1.38349,6.69081-3.47779,10.06557-5.10994,3.19591-1.54458,6.51243-2.18235,9.87272-2.90554-1.52152.886-3.21488,1.62568-4.76789,2.38076-3.96572,1.92675-7.79844,4.52276-11.52733,6.8706-.33437.21165-.22311.87416.22911.81025,4.24109-.60169,7.78352-3.25399,11.44638-5.28872,3.08776-1.71413,6.85051-3.3362,9.64218-5.69479.06454.02774.13008.0616.19515.08851-.09526.3843-.18929.76918-.29622,1.15175-.08648.02764-.17117.06991-.24242.14772-2.96816,3.22095-5.31192,6.56236-7.89141,10.08271-2.6891,3.66749-5.58222,7.52588-6.87342,11.9441-.11597.3965.46781.77105.7358.41089,4.59488-6.16996,8.72511-12.65591,13.09622-18.97785-2.23732,6.06207-5.65758,11.89589-8.77451,17.36436-.17758.31278.24167.59891.49128.36289,3.37323-3.17731,5.48375-7.02419,7.36581-11.22511.83287-1.85954,1.78054-3.90206,2.50628-5.98872.03657,2.33266.46491,4.6888.94841,6.38571,1.57474,5.52469,3.48346,10.09346,6.82637,14.82646.45209.64085,1.47891.04246,1.05297-.6385-2.51597-4.02326-4.22157-8.07282-5.50297-12.62765-.5484-1.94842-.76464-3.83042-.85425-5.70056,1.97665,5.831,6.65974,11.04407,8.01299,16.89142.1227.53249,1.00154.41371.95655-.1364-.30888-3.72145-2.42485-6.91505-3.98282-10.22748-1.1564-2.45645-1.98191-5.22818-3.0325-7.83274,1.13428,1.51185,2.24626,3.04061,3.23611,4.67121,2.65259,4.36735,4.97857,8.97459,6.64882,13.80711.16188.46722.86178.27405.74079-.20925-1.28909-5.16714-3.31598-9.85752-5.91533-14.49185-1.45697-2.59705-3.7227-7.18102-6.76638-8.65496-.0057-.20818-.01098-.41578-.01851-.62524,2.64672,1.06384,5.63031,1.46857,8.27603,2.43602,4.40271,1.60925,9.20461,3.54665,13.23065,5.96449.41799.25086.91085-.3885.51548-.69525-3.59037-2.78676-7.87757-4.5434-12.00371-6.38023-2.57871-1.14708-5.82828-2.46678-8.91443-2.90256.14038-.12147.27767-.24521.41608-.36697,4.12652.38335,8.14759.76888,12.26841,1.50721,2.37282.4266,4.50307,1.40848,6.65708,2.45665,2.17552,1.05924,4.29144,1.80114,6.09056,3.49968.41614.39322.96221-.20814.6048-.62867-3.00738-3.54067-8.43561-6.04259-12.91455-7.02303-2.35336-.5144-5.14391-1.29341-7.88001-1.55004,1.4831-.6331,2.92248-1.32391,4.25708-1.94744,4.19735-1.96456,8.85255-3.42359,11.6583-7.32553.31396-.43727-.37943-.9086-.73561-.54612-3.2009,3.26355-8.5529,4.80116-12.73741,6.44526-1.0223.40113-2.0087.83567-2.98127,1.28469.53881-.48599,1.07797-.97092,1.6182-1.45619,3.74298-3.35411,7.85855-5.59683,12.19925-8.06585.65512-.37154.19162-1.43622-.52765-1.21185-3.93409,1.2325-8.5264,3.32081-11.54023,6.19989-1.57999,1.51158-3.23911,3.00114-4.80249,4.574.9867-2.03573,1.78518-4.19655,2.6373-6.10015,2.129-4.75576,3.06431-9.95466,4.21775-14.9826.22992-1.00356-1.33128-1.40128-1.5395-.39755-1.76799,8.48897-5.05038,16.73806-8.63655,24.67079-.0544.02744-.10698.05625-.16014.08488-.05643-.44272-.11292-.88495-.18367-1.32382,1.89849-7.72626,4.04304-15.38014,5.77616-23.14957.17255-.77904-.97195-1.07368-1.19332-.31177-1.14977,3.96231-2.20763,7.92729-3.2676,11.90986-.78674,2.9562-1.62244,5.91951-1.81315,8.96104-.69358-3.20984-1.64296-6.3449-2.46088-9.55473-.77142-3.02736-2.0826-8.20162-4.9227-10.00087-.29129-.18623-.56693.12934-.52035.41169.56534,3.35514,2.5288,6.84309,3.58743,10.1143,1.31181,4.05197,2.90495,7.90708,3.84227,12.04831-.82898-.92223-1.68332-1.82061-2.4474-2.82209-1.54429-2.02315-2.81702-4.24398-4.00202-6.49339-1.27833-2.42354-2.21317-4.99329-3.26394-7.51944-.80484-1.93348-1.18659-3.91103-2.51743-5.53535-.17474-.21347-.60304-.09122-.63983.18072-.57436,4.25677,2.1286,9.3121,4.08922,12.9921,1.20353,2.25811,2.55823,4.40869,4.06626,6.47328.57389.78583,1.21161,1.49619,1.875,2.1772-1.94319-1.54264-3.73254-3.32708-5.37365-5.07968-3.31628-3.54491-4.12183-8.77377-6.30364-12.98404-.08063-.15608-.3464-.08086-.33332.09384.33857,4.45833,1.8185,9.72325,4.67982,13.26112.30314.37601.62128.75524.95381,1.1362-.96223-.45874-1.92479-.89539-2.86804-1.31917-3.18613-1.42536-8.11017-3.36455-11.59903-2.32234-.21063.06265-.17721.32669.00418.39547,3.59831,1.38817,7.39409,2.06862,11.008,3.39096,2.12055.77412,4.25102,1.72106,6.32515,2.78511.55164.49818,1.13079.96485,1.72083,1.41392-.29778-.0494-.59601-.09847-.89429-.13764-6.27003-2.67385-13.1678-4.39996-19.92113-4.58696-.17228-.00324-.25289.26424-.08696.3371,3.78531,1.67937,7.7123,2.10972,11.74381,2.89216,1.51848.29568,3.00946.66037,4.49245,1.05249-1.27576-.05446-2.56341-.07915-3.87224-.1103-4.35709-.106-8.36345-.8274-12.52993-2.05528-.19579-.05757-.34782.20966-.19396.34695,6.25175,5.53386,15.3455,3.14895,23.1273,3.89769-.24262.10533-.48432.2112-.72464.32082-8.30351.23875-16.62745,2.50109-22.7145,8.54464-.31004.30754.02112.93839.45893.76478Z" fill="#d66813"/><path d="m183.70795,59.63547c.25668,1.08443,1.082,2.09497,2.09423,2.82323-.1121.68133-.02302,1.37069.36523,2.01261.97466,1.60964,2.23708,1.45086,3.42291.58182.78232.95131,2.18318.91723,3.04824.02784.02336-.02465.04325-.05183.06569-.07712.08139.09695.16421.19108.25047.28239.52105.55188,1.63737.93323,2.36886.62627,1.17651-.49578,2.2515-1.3891,2.2224-2.85787.2915.10822.58499.20298.8849.26463,1.10955.23024,2.03489-.35941,2.39369-1.41002.5437-1.58996-.46634-2.90025-1.66801-3.81302.69234-.73662,1.19995-1.63835,1.19368-2.62105-.00615-.8455-.62695-1.76453-1.49903-1.92173-.15783-.02779-.30602-.0299-.45805-.04359-.25994-.83553-.98413-1.4486-2.03267-1.43791-.28419.00295-.59489.04777-.90933.12812-.32096-1.24102-1.12881-2.24595-2.71163-2.2037-1.7915.04797-2.44646,1.56314-2.65911,3.08753-1.30632-.6454-2.80337-.65951-4.0922.49928-.82803.74233-.83228,1.65877-.47935,2.50664-1.22434.82189-2.15386,2.06102-1.80091,3.54564Z" fill="#ab5913"/><path d="m186.38958,65.24848c.18407.10325.36612.13068.55782.11607-.01059.00187-.02156.00227-.03223.00463.04387-.00342.0851-.0047.12695-.0074.04521.00467.09433.00951.15287.01422.24771.02087.5202-.10319.73146-.20973.26352-.12974.44549-.35261.56994-.60623.21674-.34106.29018-.77397.17849-1.16704-.05299-.18848-.14726-.36235-.26999-.51333.36462.27067.84196.3807,1.3041.24971.79122-.22353,1.26547-1.07055,1.04145-1.86185-.14491-.51151-.5515-.88664-1.03272-1.0299.05815-.20651.12019-.41205.19252-.61465.0781-.22045.17623-.43348.29228-.63446.11092.27115.30352.50737.56591.66274.08624,1.51573.74855,2.98789,1.52868,4.32443-.33189.34182-.4863.84514-.34919,1.32941.20399.71969.97443,1.15057,1.69473.94657.72012-.20342,1.15064-.97492.94663-1.69513-.20364-.71863-.97443-1.15057-1.69462-.94666-.00415.00141-.00843.00371-.01209.00519-.31948-.68997-.61233-1.3932-.83862-2.12266-.16907-.53884-.2969-1.11252-.46734-1.66541.49955-.04357.96444-.34347,1.1642-.82331.20557.30577.39945.62023.56715.94415-.03587.02927-.07099.05965-.10098.09222-.252.26235-.39823.66317-.37702,1.04397-.00016.0113-.00476.02194-.00458.0344.00271.33844.14489.65859.38487.89505.1809.17869.4085.30476.65308.37005.42699.1135,1.0498.00072,1.33065-.37675.17881-.24113.27084-.32274.34834-.6198.03276-.12101.04684-.24286.04236-.36634-.00204-.18984-.04102-.36988-.11445-.53773.66776.71774,1.23319,1.53689,1.66946,2.48837-.80074.3781-1.01022,1.49082-.35174,2.13461.00252.0028.00586.00683.00986.00985.69814.68321,1.93197.33369,2.1684-.61412.00171-.0047.00292-.00948.00398-.01326.21492-.86253-.48672-1.67171-1.32782-1.63863-.77408-2.17427-2.19432-4.14551-4.22968-5.06503.67526.04995,1.34057.14047,2.00807.31674.68124.17972,1.64804.5809,2.37525,1.0068-.07827.13551-.13643.28197-.16291.42069-.05668.29023.00464.57962.22417.79031.02885.02843.06216.05408.09787.07917.08458.14575.20417.2715.34915.35269.46689.26062.9696.05901,1.25182-.35434.0027-.00455.00416-.00828.00727-.01227.32209-.29879.40054-.8094.17613-1.22077-.10349-.18807-.2707-.36575-.46046-.47085-.36652-.2018-.71908-.17056-1.08218.01117-.02038.01134-.03958.02427-.05971.03666-.47253-.41936-1.06227-.78701-1.69782-1.06854.33112-.28673.49259-.751.36732-1.19501-.10235-.35914-.37365-.63127-.70329-.75847.22032-.10418.44345-.20148.67465-.2897.17586.27974.44158.49525.79741.56911.54486.11416,1.02004-.06534,1.40232-.45399.58072-.5923.36258-1.57378-.32764-1.93598-.21979-.15634-.4913-.24594-.78147-.26611-.01125-.00116-.02339-.00245-.03475-.00221-.68783-.04837-1.33324.64435-1.29768,1.31497.00251.05273.01199.10549.01883.15634-.68982.20497-1.3821.47033-1.89663.90906-.10255.08642-.20051.17464-.30009.26353-.07621-.01168-.15214-.02938-.22969-.03539-.28807-.02138-.55954.00215-.82335.0539.11374-.54886-.11496-1.16163-.63647-1.45348-.04597-.02611-.09756-.04162-.14721-.06272.16754-.41505.36826-.80093.61793-1.11791.22472.27949.5299.49547.88936.57826.15464.03571.28388.06271.46749.05975.31586-.00312.60952-.08654.88039-.24885.12332-.09629.24592-.19461.36765-.29316.20574-.21683.3464-.46997.42268-.75882.07622-.29866.07295-.59634-.0104-.89394-.08511-.29594-.23854-.55306-.46005-.76748-.17412-.16445-.37253-.28761-.59355-.36862-.07315-.02962-.14785-.05836-.22467-.0762-.29095-.07508-.58128-.07163-.87023.00997-.28946.08162-.53879.23226-.74736.44776-.21706.18604-.38295.54008-.45829.80885-.08976.31981-.06718.65441.03615.96043-.40272.42019-.70826.96384-.93157,1.55917-.4972.02764-.98794.28915-1.20301.75489-.15686.34354-.22836.67657-.1226,1.04956.10337.36526.35583.66765.68437.84261-.15575.03468-.30656.09678-.44494.18145-.24807-.70256-.63966-1.52896-1.18965-2.08815.03424-.0285.06922-.05789.1014-.09165.23405-.24418.45849-.67356.40947-1.02623-.02207-.15833-.04413-.31606-.06824-.47358-.05529-.3636-.3946-.71585-.70095-.88702-.34055-.19008-.74763-.23796-1.12322-.13167-.37494.10598-.69701.36089-.88703.70105-.17117.30635-.27539.78404-.13156,1.12314.06224.14648.1261.2922.1903.43836.13432.22023.3145.39356.53855.52041.33875.18931.74209.23573,1.11509.12997.06745-.01863.13117-.04277.19312-.0707.09782.15266.19331.30457.30076.43246.39782.47401.6747,1.00161.88883,1.56935-.81124-.315-1.63259-.39555-2.43361-.21582-.18501-.28757-.47253-.48557-.81312-.5961-.01499-.00525-.03099-.01055-.04657-.01528-.47474-.15423-1.02007.04502-1.35953.38471-.26818.26784-.40302.58209-.42382.92302-.00876.02297-.01703.0454-.02587.06825-.12464.31232.04039.72815.2677.94636.1332.12736.28906.2047.45468.24001.1151.06585.23873.12124.38567.14884.47098.08948,1.03373.01229,1.3606-.38515.0102-.01224.02056-.02557.0312-.03734.28077-.33998.43309-.73555.36299-1.16644.67562-.03926,1.35021.01857,1.99476.23582-.04294.1003-.07523.2051-.09395.31191-.0894.12052-.16759.24865-.23947.37722-1.14288.36206-2.03512,1.17829-2.77736,2.14499-.51647.67186-.72675,1.27609-.68513,1.93922-.05606.04205-.11711.09125-.19121.15479-.18322.15749-.30863.46474-.38142.68345-.09399.28825-.06547.58613.03019.86341.00657.09225.01569.18438.04054.28288.06341.2527.24965.47525.47447.60029Zm8.324-5.49937c-.06825-.0293-.1379-.05598-.2031-.07846-.32304-.10894-.697-.03689-.99783.13525-.1817-.41041-.40387-.80355-.66326-1.16914.01501-.07137.0244-.14448.02759-.21659.66037.40074,1.27735.83854,1.83661,1.32895Zm-.18373-3.02919c.00338-.00304.00766-.00534.0111-.00877-.01016.13224-.00221.26574.035.3976.0039.01392.01137.02635.01633.03992-.18783-.02182-.37525-.03276-.56064-.0341.16986-.12732.33729-.25802.49821-.39465Zm-.50649-.42347c-.30209.29002-.58705.58793-.85682.90345-.22686.04933-.44512.12319-.65402.21714-.09137-.09641-.19539-.18387-.31732-.25073-.00414-.00213-.00784-.00369-.01142-.00614.43202-.0941.81301-.39064.99482-.79216.1593-.02931.31908-.055.47666-.0692.12225-.01255.24539-.01061.36811-.00236Zm-6.09314,4.37278c.47746-.57149,1.06093-1.09626,1.68839-1.53709-.1314.33751-.22448.68998-.29805,1.04726-.14414-.00353-.28879.00671-.43309.04804-.79073.2236-1.26454,1.07109-1.04052,1.86239.05774.20354.15817.3857.28754.5416-.04483-.03382-.08813-.06783-.13785-.0959-.27387-.15363-.66324-.23781-.98405-.15749.13757-.59659.43757-1.1362.91762-1.70882Z" fill="#ffc913"/><path d="m85.90821,62.24447c2.74492,1.23778,7.62532-.40214,10.09199-1.11781,2.03059-.59002,4.17803-1.16286,6.18058-1.96386-2.25884,2.29376-4.36553,4.70626-6.34553,7.21696-3.37857-.94788-6.9944.57553-10.10166,1.35333-2.49848.62655-5.94324,1.42397-7.52945,3.415-.18792.23574-.06182.69129.23318.84896,1.25988.673,2.42797.36056,3.7756.35014,2.41687-.01814,4.90982-.3374,7.19175-.9051,1.16491-.29027,2.38631-.71229,3.56585-1.24907-1.33181,1.8559-2.61356,3.7473-3.84584,5.67463-.14104.21952-.27494.44405-.41382.66541-3.51086.07295-6.91227,1.93862-9.87905,3.26882-2.84759,1.27474-6.36831,3.18988-7.84373,5.88278-.17218.31318-.07898.68087.25117.91187,1.81587,1.28191,5.94648-.09479,7.595-.76852,2.29709-.94009,4.54447-2.31848,6.55359-3.94834-.59206.96627-1.18259,1.93175-1.77824,2.89556-.00819.01506-.01599.02816-.02468.04315-1.60117,1.09095-2.72183,2.77075-4.0318,4.1585-1.81765,1.92707-3.4257,4.00564-4.92862,6.17437-1.74547,2.51678-3.44066,5.17767-4.72007,7.97032-.53626,1.16992-1.42812,2.10317-.54855,3.37152.12821.18434.285.25535.50168.24545,3.80492-.15834,6.25977-3.86736,8.07322-6.55331,2.34678-3.47865,4.53316-7.91841,5.49977-12.21087.02042-.04439.04335-.08942.06318-.13329.60626-1.29937,1.41024-2.55363,2.2744-3.78413-.51063,2.00739-.82692,4.0322-1.0373,5.66499-.14733,1.13273-1.92518,7.16856-.55299,8.30295,1.56031,1.28808,2.95237-2.02286,3.29683-2.80023,2.49605-5.66251,3.4821-11.69789,3.45165-18.03566-.00061-.11958-.03122-.22287-.07787-.31418.99708-1.44233,2.02084-2.86746,3.06714-4.27491-.13031,1.78585-.09271,3.56339-.09937,4.87685-.00629,1.21728-1.03371,6.44097.56557,7.46834,2.17341,1.39747,3.3134-5.55495,3.40108-6.20441.46697-3.431,1.01921-7.38788-.15108-10.91155,1.83674-2.25299,3.74797-4.44916,5.75638-6.56768.37852-.40012.76231-.79895,1.14504-1.19744-1.20637,2.60643-1.72145,5.518-2.35926,8.35855-.56698,2.52774-1.78535,5.86933-1.55114,8.53732.02612.30733.25752.60176.60532.62601,2.52601.17824,3.52583-4.38528,4.16592-5.98312,1.75935-4.3889,2.45405-9.13867,2.17225-13.97122-.01021-.17771-.09373-.32724-.21221-.44059,3.31023-3.29469,6.79497-6.44812,10.60636-9.18356,5.4009-3.87744,11.58626-6.76807,17.00371-10.63367.26011-.18665.0617-.68434-.28579-.68398-2.52145.00075-4.68842,1.48676-6.75928,2.58961-3.11178,1.65922-6.11995,3.56921-9.09433,5.42788-5.05456,3.15767-9.30447,7.16635-13.46161,11.2776-.12518.09248-.25012.18267-.38192.27275-1.29632.02781-2.53966.30153-3.86531.50029-3.08992.46103-6.16707.91504-9.18318,1.63081-1.69676.40255-6.44054,1.0519-6.55089,3.16338-.01642.31741.2404.56374.52635.69237Z" fill="#a1dea4"/><path d="m135.14025,100.32904c1.79968.88426,2.97567-.01191,3.772-1.33745.02912.05323.0572.10672.08587.16029.66615,1.23234,1.09534,2.53233,2.50185,3.09429.9968.39865,2.22573.0296,2.74518-.9563.71112-1.34745.46055-3.0835.07211-4.64191,1.063.9154,2.27493,1.66177,3.45266,1.64846,1.06709-.013,1.76364-.95441,1.78739-1.946.03198-1.43062-.72301-2.85027-1.71855-4.14519.5454-.02688,1.06446-.20232,1.46283-.64641.6941-.77447.6702-2.00158.12404-2.85387-1.34257-2.09248-3.40131-3.54071-5.77492-4.262-2.10207-.63866-4.97383-.28163-7.03591,1.14933-2.06268,1.43088-3.39072,6.06129-3.41673,8.88669-.01767,1.87105-.08076,4.85686,1.94219,5.85006Z" fill="#ffa6ae"/><path d="m137.96627,86.25912c.00577-.00208.01033-.00292.0161-.005-.05974.04989-.07417.14743.01428.20692,1.41215.96118,2.42826,2.34051,3.6878,3.46957,1.41734,1.26986,2.71242,2.37466,3.85499,3.94394.15627.21468.48636.00532.34802-.22399-1.73252-2.8698-4.54841-6.21384-7.77327-7.4204-.02144-.00812-.03826-.00172-.05706-.00106,1.47276-.60349,2.67665.34073,4.00205.81073,1.69358.60038,3.06174,1.44891,4.42757,2.6228.22907.19684.52028-.13381.31035-.34652-.77144-.78089-1.61438-1.41597-2.43928-2.12935-.66085-.57105-1.60561-.76114-2.3485-1.20128-1.38415-.81976-2.82231-.74126-4.12949.08708-.09641.06125-.02146.23529.08643.18656Z" fill="#ee8d98"/><path d="m142.92152,95.09885c.20077.18376.45037-.11494.27676-.30943-1.19939-1.33891-2.42999-2.64929-3.64128-3.97753-1.46643-1.60839-2.15032-3.65226-3.67083-5.21285-.09046-.09233-.25089.01768-.21003.13573,1.407,4.07545,4.15558,6.52005,7.24538,9.36408Z" fill="#ee8d98"/><path d="m140.64827,98.14329c.18531.18238.51838-.09365.35173-.29895-2.32741-2.86854-3.89843-6.27317-4.43378-9.93835-.02505-.16757-.24429-.1541-.25888.01154-.33643,3.96313,1.57428,7.50009,4.34093,10.22576Z" fill="#ee8d98"/><path d="m135.69326,96.53028c.13134.17339.47313.05169.37177-.17407-1.16988-2.6025-1.45661-6.55368-.51446-9.27572.06756-.19633-.23423-.34165-.35603-.18246-2.07695,2.69874-1.48339,7.01869.49872,9.63225Z" fill="#ee8d98"/><path d="m133.79928,90.74456c.0566.02808.11303.05665.16998.0858.37881.19179.90305.08182,1.14665-.27407.01049.06574.0189.13259.03082.19551.0942.49077.70498.99375,1.17077,1.10117.5543.12687,1.03095-.079,1.42098-.46943.51397-.51483.71767-1.51883.66338-2.21932-.01981-.26313-.0153-.52054-.01289-.77735.47701.37605,1.05818.80854,1.65175.88997.77227.10483,1.34348-.44642,1.35695-1.20511.01164-.68628-.70784-.97436-1.10165-1.31152,1.11104-.32037,2.16018-.89272,2.89699-1.57939.55606-.51852.29874-1.52894-.34367-1.83716-.80996-.38789-1.60263-.25778-2.4228.03152-.92807.32722-1.87043.49483-2.78576.86983-.1393-.05265-.27297-.06949-.40223-.07041-.11739-.10026-.25052-.18505-.41559-.25688-.29433-.12603-.58986-.16327-.87108-.11753-1.46202-2.26218-3.03783-4.44941-4.30837-6.84571-2.25505-4.25568-3.71895-8.71458-5.08924-13.31228-2.29852-7.71235-3.68086-15.67907-5.61196-23.4698-.04967-.20134-.36452-.1818-.40002.01786-.54951,3.11765.46622,6.66183,1.02882,9.75252.87335,4.79713,2.00751,9.52326,3.34893,14.20948,2.02848,7.08589,4.77638,15.05425,9.88315,20.70664-.08139.35612-.05081.75014.06565,1.05759.01842.04912.0362.09906.05454.14868-.12415.14156-.19759.33459-.17654.58254.00165.00864.00073.0183.00149.02681-.16479.18599-.30647.39005-.41418.58782-.35597.66113-.71821,1.4111-.9813,2.11204-.19413.51827-.08981,1.09787.44641,1.37017Z" fill="#8bc097"/><path d="m103.98767,105.23703c.15864-.02485.30737-.0626.45582-.1019.04623,3.55826,1.41692,6.22807,5.09147,6.09684,2.10591-.07546,3.5033-1.58746,4.49046-3.46573.11469.1226.23244.24374.36316.35435,2.79987,2.37122,5.2312.63014,6.27539-2.4578,1.04616-3.09513.5216-6.42938-.84442-9.33443-2.34935-4.99322-8.23522-11.31118-13.48352-5.54932-2.33454,2.5649-4.54173,5.10669-5.77512,8.38985-1.0378,2.76116-.33327,6.65759,3.42676,6.06814Z" fill="#ffa6ae"/><path d="m112.23622,90.55013c1.41519,1.45464,2.48652,3.85605,3.29188,5.73279.99779,2.32392,1.95593,4.76277,1.77944,7.33099-.03366.49409.63517.55401.74772.09038.63913-2.63898.11114-4.97276-.84594-7.45503-.96333-2.49744-2.19422-4.87403-4.77239-5.96119-.14686-.06165-.32421.13612-.20071.26205Z" fill="#ee8d98"/><path d="m110.63202,89.41942c-3.41415,4.0676-4.2123,10.58153-3.61754,15.71349.04593.40023.62768.30463.6093-.08506-.23613-4.97389,1.2949-10.48589,3.28967-15.04144.24747.69904.134,1.20306.3619,2.01808-.00022.00148.00096.00307.00124.00463-.10944.38311-.22283.76563-.31898,1.1587-.34437,1.40412-.10545,3.13896-.33015,4.60132-.45991,3.00262.28289,6.07994-.01262,9.07483-.04749.48507.66262.56595.74734.09023.51863-2.9253.4166-6.05299.46313-9.02053.01606-1.03661.14025-2.09968.24572-3.16602.12172.41477.24448.8293.36206,1.24609.75551,2.69071,1.03472,5.46806,1.57958,8.20171.07686.38792.65575.31171.60932-.08516-.35995-3.08235-.66112-6.16156-1.04314-9.23888-.1414-1.13935-.88688-2.72996-1.31575-3.7786-.05768-.14035-.11893-.26688-.17805-.39753-.02703-.1713-.04594-.34342-.0839-.51391-.02702-.12146-.15833-.1611-.2495-.11879-.24306-.4022-.53082-.76612-.9233-1.11288-.18604-.16378-.40561.10286-.28869.28695.03634.05774.06009.10765.09238.16277Z" fill="#ee8d98"/><path d="m102.1236,101.3847c-.1192.45526.49505.74405.6962.28565.86656-1.97799,1.65834-4.0006,2.49015-5.99657.87427-2.09977,1.87557-4.62787,3.33328-6.38023.15548-.18727-.10095-.41231-.2871-.28831-3.99756,2.67232-5.1,8.04301-6.23253,12.37947Z" fill="#ee8d98"/><path d="m106.18377,90.39027c-.39364.3253-.78655.72228-.90671,1.23118-.14316.60769.24506,1.06593.79286,1.27029.4634.17418.84088-.06516,1.24292-.11375-.25084.57499-.33775,1.19535-.12137,1.85177.10867.33005.53589.56843.87325.49642,1.59081-.34018,2.6214-1.90796,3.35189-3.44309.12388.37425.24323.75168.38039,1.11951.41891,1.12218.79433,2.08791,2.15143,2.07292.64415-.00692,1.05017-.85605.7927-1.39462-.23534-.48789-.41054-.99215-.57028-1.5005.06213.05013.12138.10337.18854.15031.60408.42456,1.24981.78412,1.9432,1.03822.90746.33216,1.91071-.76434,1.20724-1.57763-.56403-.65155-1.25765-1.20136-2.0078-1.66966-.27397-.29031-.54497-.58362-.82717-.86131-.29291-.28867-.68424-.54004-1.05547-.71342-.2035-.11886-.42176-.19805-.65391-.23734-.01192-.00277-.01803-.00519-.02898-.00772-.08371-.12499-.18268-.20969-.28698-.27546-.108-.72481-.25765-1.60821-.77248-2.1523-.32361-.34153-.69284-.49147-1.06379-.50338.83552-3.3222,2.34972-6.75225,3.79972-9.57395,2.26869-4.41526,4.90206-8.99765,8.02886-12.84078,5.07453-6.23619,10.79639-13.85797,17.90325-17.97658.34614-.20101.00722-.72262-.3406-.58746-8.63357,3.36126-14.35111,11.58536-20.00029,18.6058-3.19252,3.96756-5.61552,8.90253-7.90863,13.42617-1.32227,2.60607-2.68525,6.3478-2.91681,9.60872-.0174.01724-.03576.0313-.05281.04951-.21177.23373-.45349.42653-.64856.68052-.27154.35418-.34471.85567-.45279,1.27608-.06565.25726-.1197.51877-.19575.77257-.00502.01755-.00498.0309-.00903.0481-.32859.23272-.64016.50001-.93128.76992-.29353.27248-.758.83952-.90475.96095Z" fill="#8bc097"/><path d="m84.10633,38.86446c.99531,4.08612,4.03164,6.91436,4.03164,6.91436,0,0-2.01352,6.77833.90008,11.00011s6.51896,9.74337,11.28096,12.34407c1.80893,1.84617,3.98961,3.33114,6.50959,4.32781,6.01824,2.37984,14.73727-2.50976,14.73727-2.50976,0,0,7.2276,4.10174,16.99993,1.251s17.08229-9.56031,18.83892-16.43345c1.65785-3.03913,2.53857-6.42429,2.3421-9.92775,1.41634-2.54767,9.8462-15.16285,1.00013-26.20896-8.84615-11.04562-14.59043-12.2112-21.99111-12.39964-.88459-.41713-1.78697-.78362-2.69839-1.12182-.72608-.54764-1.47805-1.05968-2.21441-1.53788-5.7747-3.74268-12.93609-4.90852-19.58295-3.27576-8.31799,2.04517-18.43354,8.43407-23.11814,16.78922-1.72509,1.17765-3.16855,2.38675-4.13913,3.47565-3.79937,4.26294-3.8918,13.22669-2.8965,17.31281Z" fill="#ff4751"/><path d="m95.25489,43.64443c-.16914.52975.50715,1.04637.88496.53758,1.85227-2.49462,3.72793-5.04693,5.72586-7.4923-.83746,4.95772.92072,9.85601,3.71513,14.31632,3.43704,5.48537,7.13449,8.0116,10.83536,10.32807,2.21224,1.38502,6.62363,3.61704,6.62363,3.61704,0,0-1.2372.87872-1.82571,1.36373-.67118.55324-.08234,1.5278.71918,1.28456,7.82633-2.37203,14.38907-6.6891,19.07547-13.28778,4.10168-5.45857,7.16055-12.56355,6.815-19.79101,2.31135,3.1944,4.1772,6.55428,5.45007,9.86214.30197.78504,1.42524.3021,1.19228-.47869-2.99818-10.05079-9.53834-17.88896-17.86133-24.07239-7.17186-5.3294-18.20755-10.10845-26.2697-3.85615-.57313.44391-.05188,1.21792.58325,1.04236,6.41864-1.77175,13.02758-.64213,19.11779,2.26269-15.19019-1.51584-30.24159,10.14162-34.78124,24.36383Zm13.54575,6.88086c-.52344-.63624-.99435-1.30019-1.43301-1.97858,5.25724,4.61535,9.73805,7.35864,17.17827,7.44729,3.10899.03743,7.48426.00682,11.20264-1.06856-.20953.24245-.41602.48687-.63203.72593-3.02772,3.34345-6.69879,5.68448-10.6819,7.40142-6.14558-1.72604-11.76443-7.82083-15.63397-12.5275Zm9.84309-9.23237c3.64115-.53688,7.23504.09045,10.12604,2.10254-2.92611,2.54644-6.87012,3.01497-10.191,4.78732-.13466-.4079-.24483-.82147-.2977-1.24789-.24781-1.99867.58356-3.74148.36267-5.64196Zm6.49547,6.78924c1.98754-.73023,3.54817-2.13074,4.7351-3.83137,1.01865.90146,1.92489,2.00595,2.68072,3.32707.01864,1.83943-.07347,3.61304-.25693,5.25032-3.31978.39943-6.73829.3523-9.48815.20858-.53922-.0279-1.06523-.08296-1.58477-.15092-.64079-1.00053-1.36841-2.02776-1.94758-3.1046,2.06181-.05338,3.79497-.9391,5.86162-1.69908Zm.94923-8.61301c-4.39051-1.17166-8.096-.27704-11.63151,1.98194.39286-.79093.85509-1.58332,1.43441-2.38963,2.63031-3.66375,7.98993-8.05274,12.81897-8.15432,2.21062,3.98547,3.3367,8.86244,3.70521,13.56609-1.5251-2.30315-3.60519-4.27818-6.32707-5.00408Zm-9.15816,2.15876c-.66838,1.1617-.75662,2.98289-.69606,4.03185.1717,2.98,1.44409,4.89287,3.20787,6.90755-2.41428-.53038-4.65677-1.43071-6.87648-2.45503.125-2.71352.42192-5.11785,1.3733-7.49846.98289-.41484,1.98489-.73891,2.99137-.9859Zm17.36342-19.73965c.10469-.00726.18671-.03758.26898-.06686,4.29504,2.77454,8.20451,6.37071,11.43659,10.33107-1.06358,6.98051-3.51514,13.48974-7.46769,19.18801-1.45133.5919-3.06847.98642-4.73509,1.26515,2.7226-5.95582.47614-14.53407-1.64315-20.24545-1.22429-3.29865-4.06718-7.71488-7.61584-9.51865,3.22699-.49655,6.52068-.72304,9.7562-.95327Zm-13.31174,1.63171c2.69674,1.17333,4.8302,3.08074,6.49779,5.42863-4.90348-.27952-9.80573,3.65339-12.90252,7.08033-3.29259,3.64292-5.16571,8.68136-3.78185,13.24741-1.17925-.56686-2.36415-1.14537-3.5796-1.69776-.15399-.07019-.28242-.00629-.36139.09706-2.35129-4.05268-3.305-8.7235-2.90545-13.42019,2.16503-2.42015,4.50092-4.66754,7.15807-6.5233,3.03635-2.12103,6.38597-3.39602,9.87495-4.21217Z" fill="#a92c33"/><path d="m145.60136,18.97583c1.96642,2.95333,4.99389,5.02068,6.58487,8.21658,1.85352,3.7234,1.06953,7.15784,1.67371,11.04247.39507,2.54076,3.36245,3.96337,5.50207,2.35879,4.2977-3.22323,3.41512-11.23147,1.14286-15.51436-2.81087-5.29692-7.62247-7.93275-13.45748-8.51837-1.34821-.13534-2.19399,1.29146-1.44603,2.4149Z" fill="#ff686b"/><path d="m105.0942,14.994c3.49216-1.14786,6.63745-3.26804,10.04519-4.64896,3.1376-1.27339,6.74504-1.00828,10.04492-.96636,1.5634.022,2.48488-2.29985,1.46287-3.41247-6.31747-6.88138-19.71911.71396-23.51541,6.9981-.75822,1.25516.85055,2.39534,1.96242,2.0297Z" fill="#ff686b"/><path d="m87.50364,37.52395c.78538,2.07122,3.56481,1.06721,3.52684-.90881-.10993-5.67679,3.76403-9.15223,6.45971-13.7151.30934-.52286-.16453-1.24346-.72046-1.30598-3.78934-.42677-6.18531,2.29644-8.11278,5.23594-2.35698,3.5947-2.67586,6.67793-1.15332,10.69394Z" fill="#ff686b"/><path d="m127.50372,70.54787c7.01607,5.89873,23.63274-1.32082,23.34628-10.7-.05797-1.89407-3.00983-2.26661-3.65167-.54015-1.30579,3.51223-6.26812,5.50587-9.43898,6.80386-3.26636,1.33673-6.81941,1.56094-10.03843,2.96786-.59684.26118-.71941,1.04609-.21721,1.46842Z" fill="#ff686b"/><path d="m98.50455,66.48388c1.13652,1.66967,3.60659.12387,2.97494-1.66562-1.03758-2.93926-2.58687-5.34273-4.27256-7.93864-.98144-1.51047-1.88614-3.10238-2.68824-4.7141-.8088-1.62656-.55898-3.40909-1.4469-5.03107-.47361-.86572-1.43116-1.02606-2.13496-.3158-5.91811,5.97231,4.39563,15.00541,7.56772,19.66523Z" fill="#ff686b"/><path d="m132.123,29.52888c.3019,2.85763,1.93096,5.38542,2.76738,8.11681,1.08261,3.53628,1.31429,6.96498.5625,10.58292-.49129,2.36325,3.02521,2.75998,3.63228.53728,1.70918-6.25574,1.29896-17.16013-5.70736-20.16842-.63536-.27321-1.32703.24839-1.2548.93142Z" fill="#ff686b"/><path d="m106.37003,44.81022c.10192,1.69334,2.42987,1.47543,2.7872.03421.75387-3.04153,1.33147-5.85156,3.04319-8.52435.78384-1.22469,3.00155-3.49046.66618-4.52007-2.47678-1.09197-4.95205,2.53507-5.77185,4.30971-1.28065,2.77164-.90042,5.78997-.72472,8.7005Z" fill="#ff686b"/><path d="m118.64782,57.7066c1.08585,3.27716,5.11211,4.20783,8.042,3.13722,1.31906-.48157.68671-2.29633-.57971-2.25065-1.31902.0473-2.44158-.45244-3.57535-1.06635-.95051-.51473-2.10444-.6657-3.17372-.7247-.51355-.02855-.88056.40036-.71322.90447Z" fill="#ff686b"/><path d="m121.03197,37.25371c.77587.39417,1.76707.37349,2.61846.5339,1.40799.26559,2.43749.3468,3.70506,1.12021,1.50181.91612,3.21912-1.03035,1.76011-2.19487-1.47952-1.1803-3.02129-2.13245-4.98619-2.1635-1.45162-.02326-3.13265.28589-3.55473,1.87503-.09132.34333.1722.68446.45728.82924Z" fill="#ff686b"/><path d="m123.79758,51.37186c1.032.39506,1.94091.9471,3.08739.68777,1.19946-.2703,2.22583-.69893,3.11279-1.56628.6105-.59679.36224-1.71152-.24166-2.19671-.72443-.58207-1.58912-.35252-2.19671.24167-.31968.31259-1.04201.42096-1.47521.50932-.45959.09396-.82608.2856-1.22893.51674-.28895.16499-.57915.61861-.89235.68985-.5184.11771-.7567.89147-.16532,1.11764Z" fill="#ff686b"/><path d="m114.02681,45.69352c-.20498.17064-.33607.3694-.38089.63621-.0648.38476-.06142.81226.05794,1.18625.25015.78485.69469,1.53073,1.11692,2.23337.64285,1.06998,2.4095.0583,1.8932-1.06009-.28039-.60706-.51221-1.22878-.71355-1.8666-.1149-.36454-.3822-.72584-.65968-.98564-.09716-.10717-.21209-.19129-.34486-.25187-.16253-.07186-.23297-.09663-.26453-.10332q-.00316-.00188-.00672-.00443c-.26048-.16833-.65552-.14033-.78251.19126-.09852.18831-.07067.19688.08467.02486Z" fill="#ff686b"/></g></svg>