<?xml version="1.0" encoding="UTF-8"?><svg xmlns="http://www.w3.org/2000/svg" viewBox="0 0 550.81052 394.92152"><g fill="none" isolation="isolate"><g id="Capa_2"><g id="Capa_4"><path d="m138.04051,36.47784c13.4612,5.5654,23.0356,17.55723,36.64642,22.85957,13.93718,5.42951,29.04568.23902,42.48428-4.4611.1226-.04286.2019-.11962.261-.20643.129.02831.23872-.0153.3164-.0974.0909.03758.1818.07515.2727.11277.0583.02411.1077-.05812.04862-.0881-.08352-.0424-.167-.08478-.25042-.12718.088-.17617.0678-.41184-.1412-.51568-6.9956-3.4754-14.4151-6.23525-21.6377-9.20295-6.3209-2.5972-12.6371-5.3711-19.1021-7.5889-12.4562-4.2731-25.8701-6.5212-38.6883-2.4513-.7229.2296-1.0374,1.4245-.2097,1.7667Z" fill="#6d8a1f"/><path d="m225.283,110.65104c6.2904-6.9208,6.8648-16.1611,5.7742-25.0359-.6662-5.4217-1.6404-10.8121-2.4919-16.20691-.8725-5.52779-1.5185-11.15349-2.8639-16.59445.0992-.1697.2018-.34201.2996-.51081.48092-.82987-.3259-1.54155-1.0592-1.42568-.3245-.09691-.7356.08672-.71588.50321l.00008.00111c-3.3719,5.20619-6.20708,10.8306-8.7173,16.49662-1.7883,4.03641-3.464,8.22241-3.93,12.64731-.50778,4.8228.9067,8.6754,3.5471,12.642,3.6122,5.4266,6.7017,11.0404,8.96112,17.1805.17778.483.80618.732,1.19608.303Z" fill="#6d8a1f"/><path d="m104.10871,40.37214c7.0917,10.50397,13.0537,22.17551,21.05022,32.0267,7.15748,8.8176,18.09938,8.8086,28.49358,7.3069.2453-.0354.4037-.1756.49042-.3568.26918-.1017.48658-.4166.33108-.7574-4.7512-10.40889-10.0579-20.524-19.604-27.30739-8.6396-6.13921-19.5787-9.81251-29.8377-12.15041-.6712-.153-1.3446.6149-.9236,1.2384Z" fill="#6d8a1f"/><path d="m84.34193,143.50014c20.64948,3.7503,45.63318-17.3981,43.60608-38.8621.4258-.4494.3752-1.3379-.37408-1.459-.02342-.0038-.04672-.0041-.07012-.0078-.149-.0742-.31688-.0945-.4674-.052-8.9093-1.1532-17.5103,4.773-22.7529,11.4708-3.0453,3.8906-5.2963,8.2487-7.3852,12.7045-2.7343,5.8324-5.836,12.5077-12.5742,14.4259-.8425.2399-.9163,1.61.01782,1.7797Z" fill="#6d8a1f"/><path d="m50.74341,56.33102c5.9433,9.64422,12.7641,18.78402,21.6954,25.88082,6.7055,5.3281,17.9644,12.9738,26.9154,9.1764.3535-.15.4399-.4516.3684-.7059.0482-.0578.0874-.1266.1007-.2207.7685-5.3987-.2887-11.3532-2.5353-16.3004-2.1478-4.72953-5.6688-7.23031-10.3812-9.1819-11.2568-4.66194-23.7192-5.13546-34.947-9.90516-.7753-.32936-1.7253.43102-1.2164,1.25684Z" fill="#6d8a1f"/><path d="m.70541,89.68174c7.2714,2.5081,13.272,7.7097,19.7123,11.742,5.2866,3.3098,10.9797,5.6688,17.17522,6.573,11.54448,1.6848,23.83938-1.2447,33.00628-8.5508.4278.2839,1.04572-.1737.7698-.7237-5.3492-10.6672-18.07908-15.6887-29.34008-16.5325-13.96662-1.0463-27.73542,3.1897-41.34232,5.6343-1.0344.1858-.7938,1.5774.0188,1.8577Z" fill="#6d8a1f"/><path d="m26.90971,139.65844c14.0209,2.2464,28.648,1.0046,41.1899-6.1212,10.1337-5.7576,21.2918-17.9409,13.8555-30.0771-.42518-.6938-1.2146-.6434-1.70518-.2492-.01552-.0028-.02712-.0108-.04362-.0121-10.0258-.8224-20.7549,4.8278-28.4017,10.8555-8.9888,7.0858-14.586,18.5779-25.2084,23.4499-.91228.4185-.6519,1.9995.3135,2.1542Z" fill="#6d8a1f"/><path d="m132.11851,162.65304c13.5769-4.8845,28.8076-10.0703,37.3611-22.4461,3.5811-5.1815,5.9282-11.1857,6.746-17.4344.9036-6.905-1.1913-13.7196-.4438-20.5762.0515-.4729-.68888-.5451-.8155-.1219-.1986-.4539-.6533-.7929-1.1722-.5754-5.5779,2.3375-9.9508,6.218-13.84618,10.7766-3.90332,4.5678-7.88242,9.5948-10.79562,14.8601-2.9823,5.39-5.2589,11.1774-8.1028,16.648-3.1044,5.9715-6.3987,11.8769-9.9219,17.6113-.378.6153.2914,1.5096.9909,1.258Z" fill="#6d8a1f"/><path d="m138.25021,34.71114c12.8182-4.0699,26.2321-1.8218,38.6883,2.4513,6.465,2.2178,12.7812,4.9917,19.1021,7.5889,7.2226,2.9677,14.6421,5.72755,21.6377,9.20295.209.10384.2292.33951.1412.51568.08342.0424.1669.08478.25042.12718.02888.01469.03138.04185.02.06295-.42972-.18392-.854-.38329-1.28092-.57546-6.2114.7146-12.9452-.12474-19.0558-.85948-7.402-.89011-14.7757-2.36503-21.8067-4.87782-7.7258-2.7611-14.9755-6.68-22.6847-9.4771-3.2315-1.1724-6.5497-2.1604-9.9413-2.7457-1.8927-.3265-3.8357-.3213-5.7659-.3469-.02068-.4411.2606-.9283.6956-1.0665Z" fill="#6ebe2b" mix-blend-mode="soft-light"/><path d="m224.08693,110.34804c-.21222-.5766-.43872-1.1442-.66532-1.7118-.2301-3.5625-.5561-7.1025-1.5753-10.6752-1.56638-5.4911-3.6466-10.4317-3.3598-16.2375.4818-9.7498,4.5526-18.80141,4.6552-28.61777.3561-.57874.7157-1.15493,1.0843-1.72416l-.00008-.00111c-.01972-.41649.39138-.60012.71588-.50321.7333-.11587,1.54012.59581,1.0592,1.42568-.0978.1688-.2004.34111-.2996.51081,1.3454,5.44096,1.9914,11.06666,2.8639,16.59445.8515,5.39481,1.8257,10.78521,2.4919,16.20691,1.0906,8.8748.5162,18.1151-5.7742,25.0359-.3899.429-1.0183.18-1.19608-.303Z" fill="#6ebe2b" mix-blend-mode="soft-light"/><path d="m115.41611,50.09106c-3.5146-3.60462-7.502-6.94352-11.4225-10.24632.0732-.4495.5534-.8216,1.0387-.711,10.259,2.3379,21.1981,6.0112,29.8377,12.15041,9.5461,6.78339,14.8528,16.8985,19.604,27.30739.044.0965.0525.189.044.2771-9.0014-4.0146-17.37508-9.0761-25.074-15.39752-5.0037-4.10844-9.5144-8.75096-14.0279-13.38006Z" fill="#6ebe2b" mix-blend-mode="soft-light"/><path d="m84.32411,141.72044c6.7382-1.9182,9.8399-8.5935,12.5742-14.4259,2.0889-4.4558,4.3399-8.8139,7.3852-12.7045,5.2053-6.65,13.7217-12.5314,22.5631-11.4862-3.2361,4.572-7.4078,8.3082-11.1081,12.5246-4.4909,5.1172-7.3355,11.3175-11.4494,16.6998-3.4887,4.5643-8.1147,7.9974-13.6646,9.6308-1.72258.507-4.3191,1.1653-6.7768,1.2452-.3574-.464-.166-1.3009.4764-1.4838Z" fill="#6ebe2b" mix-blend-mode="soft-light"/><path d="m50.83031,56.47015c-.0288-.0465-.0582-.09263-.0869-.13913-.5089-.82582.4411-1.5862,1.2164-1.25684,11.2278,4.7697,23.6902,5.24322,34.947,9.90516,4.7124,1.95159,8.2334,4.45237,10.3812,9.1819,2.2466,4.9472,3.3038,10.9017,2.5353,16.3004-.0066.0467-.0197.0871-.037.1231-7.666-3.9483-14.0979-10.7509-20.83238-15.8384-8.931-6.74682-18.27512-12.95521-28.12362-18.27619Z" fill="#6ebe2b" mix-blend-mode="soft-light"/><path d="m.64331,89.64734c-.7581-.3313-.9619-1.6428.0433-1.8233,13.6069-2.4446,27.3757-6.6806,41.34232-5.6343,10.88658.8157,23.14458,5.5369,28.781,15.4879-12.19132-.563-23.76122-2.5341-35.73432-5.2745-11.329-2.593-22.8715-3.4504-34.4323-2.7558Z" fill="#6ebe2b" mix-blend-mode="soft-light"/><path d="m54.99441,125.65724c-8.8201,5.0448-18.5382,10.9552-28.6509,13.6741-.4541-.5251-.4397-1.5095.2527-1.8271,10.6224-4.872,16.2196-16.3641,25.2084-23.4499,7.6468-6.0277,18.3759-11.6779,28.4017-10.8555.0165.0013.0281.0093.04362.0121.49058-.3942,1.28-.4446,1.70518.2492.2763.4512.5192.9022.7452,1.3532-6.51138,9.3187-18.19638,15.4048-27.7059,20.8439Z" fill="#6ebe2b" mix-blend-mode="soft-light"/><path d="m131.12761,161.39504c3.5232-5.7344,6.8175-11.6398,9.9219-17.6113,2.8439-5.4706,5.1205-11.258,8.1028-16.648,2.9132-5.2653,6.8923-10.2923,10.79562-14.8601,3.89538-4.5586,8.26828-8.4391,13.84618-10.7766.5189-.2175.9736.1215,1.1722.5754.0433-.1448.1601-.2275.2909-.26-6.9922,11.9167-16.2051,22.2433-24.6415,33.1308-4.1566,5.3643-8.099,10.8874-11.5806,16.7166-1.99518,3.3404-3.566,6.8521-5.1519,10.357-.5905.2122-1.1796.4237-1.7647.6342-.6995.2516-1.3689-.6427-.9909-1.258Z" fill="#6ebe2b" mix-blend-mode="soft-light"/><path d="m57.09021,120.78704c4.15472-3.5188,9.2575-6.1543,13.84172-9.2207,4.68978-3.137,8.58468-7.0055,12.64288-10.8581-8.6904-.1616-17.3368-1.0221-25.5287-3.0041-.9038-.2186-.771-1.7102.1991-1.6516,15.2522.9206,30.1168,2.4764,45.43572,1.3982,1.77638-.125,3.55068-.2772,5.323-.4481-2.75862-1.2408-5.41552-2.9291-7.30152-4.0176-4.8903-2.8225-10.99648-6.3987-13.98548-11.3352-.23052-.3808.21228-.8242.59678-.6167,4.7627,2.5709,8.6783,6.7079,13.3108,9.5659,3.6286,2.2387,7.5758,4.4414,11.6642,5.9335,11.7847-1.3841,23.4487-3.761,34.8341-7.1122,5.9298-1.7454,11.7353-3.7924,17.4322-6.0853-4.3069.1185-8.6782-2.2651-12.40108-4.083-5.40632-2.6399-12.46722-5.7763-16.28862-10.58479-.2587-.32554-.06238-1.01414.4563-.82264,4.93532,1.82233,9.341,5.61203,13.972,8.12753,5.1065,2.7739,10.4714,5.9013,16.3975,6.1372.1597.0063.2786.0877.3583.196,17.00252-7.1013,33.0208-16.40568,48.3217-26.77285-5.54918.13063-11.1931-.65959-16.6201-1.43974-7.7149-1.10916-16.0317-2.25771-23.3233-5.08701-.3395-.1317-.3535-.715.0836-.6937,7.0881.3469,14.1734,2.33771,21.16862,3.49273,6.96268,1.14965,13.95318,1.46807,20.93908,2.19305,5.38292-3.6993,10.67992-7.52068,15.9004-11.41698,14.68852-10.9629,28.19662-24.3828,34.35352-42.0483.315-.904,1.7396-.5748,1.4632.3707-4.4013,15.0569-14.5527,27.326-26.35433,37.3332-6.3272,5.3652-13.0571,10.3883-19.972,15.16803.044.05101.0807.11148.099.19125,1.1562,5.03545.7044,10.51684.1374,15.62099-.5159,4.64323-1.46228,9.33123-4.40528,13.07663-.23352.2973-.71692-.0088-.62412-.3461,2.5186-9.1499,4.0305-18.42922,3.9505-27.96163-7.7773,5.34196-15.7775,10.38082-23.7038,15.24103-4.2682,2.6171-8.62158,5.0775-13.0503,7.3804-2.3331,10.6014-7.5714,21.307-12.9275,30.639-2.6157,4.5572-5.56778,8.9321-8.9115,12.9886-3.136,3.8044-7.0127,8.5268-11.7241,10.3902-.3314.1311-.691-.3266-.4878-.6193,2.9025-4.1811,7.2891-7.42,10.5511-11.3639,3.4796-4.2071,6.5004-8.7823,9.1919-13.528,5.0182-8.8486,8.0718-18.5059,12.5012-27.5806-15.938,8.0952-32.833,14.1435-50.2731,17.9948-2.3742,4.1315-5.254,7.9654-8.26948,11.6513-3.22952,3.9474-6.78852,8.081-11.36252,10.4958-.4303.2272-.8443-.2932-.5276-.6635,3.3209-3.8835,7.1447-7.3019,10.4182-11.2441,2.6501-3.1915,5.025-6.5939,7.6502-9.7985-7.048,1.4818-14.1789,2.6181-21.37228,3.3719-8.32082.8719-17.03122,1.4676-25.72192,1.3895-.0058.0105-.0055.0205-.012.031-3.1062,5.0232-7.6836,9.0601-12.5247,12.3783-4.4685,3.0627-9.6828,7.7606-15.2431,8.3732-.4184.0461-.5702-.4782-.278-.7257Z" fill="#706358"/><path d="m122.79493,117.48484c9.56428.4715,19.416-2.6438,28.64658-4.8075,10.627-2.491,21.1777-5.4017,31.48-9.0173,18.37842-6.4498,37.5778-15.6099,51.7591-29.318.3195.0298.6359.0434.956.0773,1.3961.1476,1.461-2.0475.0646-2.1818-.062-.006-.1227-.0075-.1847-.0133h-.0005c-43.0314-4.04082-76.4116,26.4533-113.2454,43.008-1.1331.5093-.607,2.1968.52432,2.2526Z" fill="#efec61"/><path d="m177.35561,169.14054c-.1728,1.2586,1.5208,1.4555,2.1438.6601,11.216-14.3205,22.5821-28.7311,30.82852-45.0289,7.68888-15.1963,13.45908-31.6045,18.23608-47.9503.5657-1.0077,1.1135-2.0212,1.638-3.0416.3951-.7683-.5792-1.3665-1.1162-.7118-.2435.2968-.4755.6067-.7157.9072-.56018-.239-1.29318-.095-1.5554.6593-.2857.822-.5679,1.6447-.85,2.4673-4.8154,6.4997-9.07778,13.5952-13.4984,20.2886-5.1275,7.7638-10.4008,15.4385-15.2893,23.357-9.2183,14.9317-17.4075,30.8205-19.8214,48.3931Z" fill="#efec61"/><path d="m524.44133,240.12134c-2.9126-13.6621-11.8344-24.6153-22.0922-33.6637-5.3238-4.6962-11.0732-8.9725-16.6656-13.3437-6.3902-4.9947-12.6938-10.274-19.4256-14.803-.2011-.1353-.4242-.0325-.538.1375-.0812-.0536-.1624-.1072-.2435-.1607-.0574-.038-.1063.0489-.0546.0891.0807.0628.1613.1255.242.1882-.0342.1124-.0172.2338.0746.3357-.048.0979-.0765.209-.0522.3417,2.6625,14.5458,5.7404,30.851,17.803,40.642,11.7801,9.5617,27.5245,12.0425,39.4652,21.334.7342.5713,1.6512-.3266,1.4869-1.0971Z" fill="#6d8a1f"/><path d="m412.05943,201.50314c6.7034-1.1155,13.3585-1.2112,20.113-.7389,4.9373.3452,9.1418-.3576,13.2343-3.2941,3.7549-2.6944,6.6724-6.3579,9.3972-10.0461,3.8247-5.1774,7.4449-10.6267,10.4118-16.3456,0,0,.0008-.0003.0011-.0005.3861-.1962.3406-.6617.0864-.9048-.2722-.7214-1.3292-1.0841-1.8312-.2235-.1021.175-.2049.3562-.3071.5329-5.6028,1.5813-11.013,3.8888-16.4511,5.9417-5.3074,2.0034-10.6737,3.8938-15.9101,6.0783-8.5715,3.5757-16.6174,8.8422-19.6325,18.0766-.1869.5723.3608,1.0117.8882.924Z" fill="#6d8a1f"/><path d="m537.51783,272.37894c-7.3819-8.0593-16.3186-16.0464-26.2997-20.6905-11.0283-5.1316-22.8859-4.7244-34.7231-3.6647-.3876.0347-.56.3928-.5135.6881-.1191.1713-.1642.3863-.0701.626,3.9853,10.1542,9.5996,20.0359,21.2368,21.9661,13.0014,2.1563,26.6006,1.5408,39.7263,2.5451.7791.0596,1.1263-.9428.6433-1.4701Z" fill="#6d8a1f"/><path d="m455.55533,343.78474c-1.7308-7.0681,2.7011-13.298,6.5609-18.7631,2.9488-4.1752,5.7261-8.4465,7.6733-13.1945,3.3522-8.174,4.2821-18.9831-1.3368-26.4328-.0389-.1577-.1435-.2988-.287-.3952-.0154-.0192-.0276-.04-.0431-.0592-.4943-.6141-1.3224-.2033-1.5093.412-20.4167,9.1991-26.6695,42.6183-12.6736,59.3312.6331.756,1.832-.0147,1.6156-.8984Z" fill="#6d8a1f"/><path d="m550.39923,328.47734c-10.0747-7.6843-16.9058-18.6906-26.8982-26.4564-4.1831-3.251-8.2497-5.1443-13.6226-4.6529-5.6201.5141-11.5383,2.6194-16.0168,6.0871-.078.0604-.1201.1312-.1475.2044-.2663.0661-.4941.2991-.4478.6952,1.1715,10.0312,13.8583,16.2657,22.1134,19.5809,10.9954,4.4156,22.7505,5.8761,34.51,6.2855,1.007.035,1.2053-1.2132.5095-1.7438Z" fill="#6d8a1f"/><path d="m547.18273,391.58874c-4.7851-13.5388-8.0363-28.1442-16.1573-40.214-6.548-9.7316-17.6219-18.6423-29.9996-17.9898-.6383.0336-.7338.8265-.2577,1.0668-1.8849,12.0289,1.7884,24.6326,9.2412,34.1878,3.9997,5.128,9.0544,9.0549,14.7586,12.1263,6.9491,3.7416,14.7278,6.4856,20.7282,11.7605.6705.5895,2.0503.0916,1.6866-.9376Z" fill="#6d8a1f"/><path d="m489.02393,393.72814c-1.0603-12.092,6.4374-23.0496,8.2147-34.8046,1.512-9.9999,1.0994-22.5881-4.7946-31.2156-.0097-.0142-.0229-.0206-.0334-.0331.1038-.6455-.2564-1.3839-1.1011-1.4112-14.7762-.4766-20.0404,15.8559-20.0306,27.9618.0121,14.9828,6.4071,28.8245,15.6394,40.3266.6357.792,2.1967.2147,2.1056-.8239Z" fill="#6d8a1f"/><path d="m413.74603,311.64554c3.3661-6.1268,7.004-12.135,10.7992-18.0056,3.477-5.3781,7.5313-10.4069,10.8644-15.8686,3.256-5.3352,5.7491-11.5102,7.8667-17.3806,2.1134-5.8588,3.3692-11.8,2.6131-18.0362-.0703-.5801-.6099-.8164-1.1217-.7624.317-.3317-.1286-.9631-.5291-.6735-5.8052,4.1979-13.0331,5.8084-18.8018,10.1722-5.2203,3.949-9.4342,9.1529-12.2712,15.0479-6.7764,14.0803-3.6314,30.4933-1.0643,45.2588.1323.7607,1.2836.9054,1.6447.248Z" fill="#6d8a1f"/><path d="m524.44133,240.12134c-2.9126-13.6621-11.8344-24.6153-22.0922-33.6637-5.3238-4.6962-11.0732-8.9725-16.6656-13.3437-6.3902-4.9947-12.6938-10.274-19.4256-14.803-.2011-.1353-.4242-.0325-.538.1375-.0812-.0536-.1624-.1072-.2435-.1607-.0281-.0186-.0539-.0069-.0671.0143.3868.2934.7848.574,1.1776.8605,2.5466,5.9741,6.7644,11.6214,10.5674,16.7597,4.6069,6.2243,9.7272,12.1225,15.6082,17.1781,6.4622,5.5552,13.7249,10.0856,20.211,15.6074,2.7188,2.3146,5.3157,4.8022,7.5867,7.563,1.2673,1.5407,2.261,3.2973,3.2759,5.0265.4088-.208.7041-.7122.6052-1.1759Z" fill="#6ebe2b" mix-blend-mode="soft-light"/><path d="m412.05943,201.50314c.6294-.1048,1.2582-.1919,1.887-.2791,3.3341-1.6228,6.6971-3.1475,10.4458-4.0633,5.7616-1.4075,11.2902-2.0684,16.3836-5.3106,8.5534-5.4446,14.6324-13.7703,23.4408-18.9069.3394-.6189.6747-1.2395.9991-1.8648,0,0,.0008-.0003.0011-.0005.3861-.1962.3406-.6617.0864-.9048-.2722-.7214-1.3292-1.0841-1.8312-.2235-.1021.175-.2049.3562-.3071.5329-5.6028,1.5813-11.013,3.8888-16.4511,5.9417-5.3074,2.0034-10.6737,3.8938-15.9101,6.0783-8.5715,3.5757-16.6174,8.8422-19.6325,18.0766-.1869.5723.3608,1.0117.8882.924Z" fill="#6ebe2b" mix-blend-mode="soft-light"/><path d="m522.29123,268.63594c5.0598,1.3204,10.1227,3.2041,15.1185,5.046.3681-.297.4573-.9218.1081-1.303-7.3819-8.0593-16.3186-16.0464-26.2997-20.6905-11.0283-5.1316-22.8859-4.7244-34.7231-3.6647-.1097.0099-.1976.0497-.2727.1027,8.2492,6.0625,17.1208,11.0205,26.7829,14.722,6.2797,2.4056,12.7883,4.0919,19.286,5.7875Z" fill="#6ebe2b" mix-blend-mode="soft-light"/><path d="m455.55533,343.78474c-1.7308-7.0681,2.7011-13.298,6.5609-18.7631,2.9488-4.1752,5.7261-8.4465,7.6733-13.1945,3.3283-8.1157,4.2612-18.8255-1.2254-26.2694-2.4642,5.2705-3.6932,10.9561-5.5979,16.4627-2.3116,6.6833-6.4468,12.437-9.1915,18.9162-2.3275,5.4944-3.0495,11.4344-1.6721,17.2834.4275,1.8155,1.1674,4.4975,2.3582,6.7571.6024.0843,1.2595-.5186,1.0945-1.1924Z" fill="#6ebe2b" mix-blend-mode="soft-light"/><path d="m549.71953,330.21424c.0568.002.1135.0049.1702.0069,1.007.035,1.2053-1.2132.5095-1.7438-10.0747-7.6843-16.9058-18.6906-26.8982-26.4564-4.1831-3.251-8.2497-5.1443-13.6226-4.6529-5.6201.5141-11.5383,2.6194-16.0168,6.0871-.0388.03-.0685.0626-.0921.0967,7.5032,4.8912,16.9487,7.2017,25.0015,10.6667,10.6793,4.5951,21.0848,9.8397,30.9485,15.9957Z" fill="#6ebe2b" mix-blend-mode="soft-light"/><path d="m545.55903,392.56484c.6886.514,1.9772.0241,1.6237-.9761-4.7851-13.5388-8.0363-28.1442-16.1573-40.214-6.3303-9.408-16.8906-18.0471-28.7694-18.0219,6.7726,10.7157,14.4969,20.1467,23.1228,29.5466,8.1619,8.894,14.8669,18.8727,20.1802,29.6654Z" fill="#6ebe2b" mix-blend-mode="soft-light"/><path d="m485.12593,362.00614c-.0217,10.554-.3634,22.3634,2.3786,32.889.7073.14,1.5885-.3788,1.5194-1.167-1.0603-12.092,6.4374-23.0496,8.2147-34.8046,1.512-9.9999,1.0994-22.5881-4.7946-31.2156-.0097-.0142-.0229-.0206-.0334-.0331.1038-.6455-.2564-1.3839-1.1011-1.4112-.5493-.0176-1.0813-.0051-1.6045.0226-5.066,10.666-4.5556,24.3411-4.5791,35.7199Z" fill="#6ebe2b" mix-blend-mode="soft-light"/><path d="m413.74603,311.64554c3.3661-6.1268,7.004-12.135,10.7992-18.0056,3.477-5.3781,7.5313-10.4069,10.8644-15.8686,3.256-5.3352,5.7491-11.5102,7.8667-17.3806,2.1134-5.8588,3.3692-11.8,2.6131-18.0362-.0703-.5801-.6099-.8164-1.1217-.7624.1085-.1136.1231-.2614.0853-.3962-7.1642,12.4349-11.7519,26.0575-17.2449,39.2673-2.7064,6.5084-5.6663,12.9051-9.1392,19.0431-1.9902,3.5175-4.353,6.7399-6.7019,9.9723.1119.6421.2237,1.2825.3343,1.9189.1323.7607,1.2836.9054,1.6447.248Z" fill="#6ebe2b" mix-blend-mode="soft-light"/><path d="m488.44533,357.61184c1.0415-5.5584.7986-11.5188,1.211-17.2326.4219-5.8453,1.9126-11.3489,3.305-16.9917,4.6113,7.7616,9.8309,15.1244,15.8293,21.5006.6618.7035,1.9399-.1828,1.3886-1.0283-8.6682-13.2948-17.7106-25.9135-24.6087-40.2955-.7999-1.6679-1.5743-3.3476-2.3307-5.0353,2.5376,1.8526,5.4268,3.3834,7.3785,4.5266,5.0606,2.9641,11.4263,6.6384,17.4183,6.7999.4621.0125.6349-.6151.25-.8555-4.7679-2.9782-10.5143-4.387-15.4746-7.1001-3.8853-2.1252-7.9018-4.5564-11.3495-7.4803-4.806-11.349-8.6538-23.0993-11.4789-35.0985-1.4714-6.2497-2.6068-12.542-3.4643-18.8627,2.1061,3.9487,6.5038,6.6699,10.0578,9.0964,5.161,3.5236,11.6202,8.2858,17.9244,9.2645.4267.0662.9475-.4647.5081-.8346-4.1809-3.5186-9.8656-5.5483-14.5159-8.436-5.1279-3.1843-10.7076-6.4201-13.9655-11.6483-.0878-.1408-.2223-.2064-.3611-.2227-2.3263-18.9967-2.1582-38.2371-.6621-57.3759,2.7334,5.0762,6.3468,9.7648,9.8396,14.2628,4.9654,6.3942,10.2757,13.3115,16.5763,18.4397.2933.2387.8271-.0484.5832-.4319-3.9552-6.2201-9.393-11.593-14.03-17.3139-4.6154-5.6943-8.4948-11.8409-12.7389-17.7744.5734-6.7599,1.301-13.505,2.1357-20.2195,2.3486-18.8922,7.5215-37.9814,20.3042-52.6162.6541-.7489-.3751-1.8657-1.0866-1.1304-11.33,11.7098-17.1889,27.1777-20.1581,42.9728-1.5919,8.4682-2.6681,17.1243-3.4296,25.8222-.0686-.0135-.142-.0156-.2235.0089-5.1395,1.5437-9.8553,4.7681-14.1713,7.9027-3.9262,2.8515-7.6718,6.1146-9.5405,10.6957-.1483.3636.3763.6427.6331.3855,6.9654-6.975,14.5647-13.1078,23.2106-17.9337-.8258,9.7653-1.2635,19.5761-1.5779,29.2284-.1693,5.1976-.1533,10.3916.0435,15.5726-8.3708,7.5534-15.3429,17.7828-21.0146,27.4129-2.7696,4.7027-5.2019,9.6156-7.1455,14.7182-1.8228,4.7857-4.0936,10.7116-3.3548,15.922.052.3665.6499.4559.8097.1221,2.2828-4.7684,2.9525-10.3924,4.8365-15.3634,2.0097-5.3028,4.5875-10.3806,7.4883-15.2486,5.4089-9.0766,12.5573-16.7953,18.4729-25.4566.8821,18.5466,4.1038,36.9053,9.5887,54.6271-2.5096,4.266-4.4906,8.8356-6.2683,13.4515-1.9039,4.9436-3.8064,10.2802-3.636,15.6499.016.5051.6985.6115.8701.1353,1.7991-4.9932,2.92-10.2013,4.7965-15.1819,1.5192-4.0322,3.3702-7.9242,4.914-11.9406,2.284,7.1235,4.9224,14.1444,7.9382,21.025,3.4885,7.9591,7.4264,16.1278,11.9625,23.9327-.0065.0106-.0156.0154-.0218.0267-2.9382,5.385-4.2302,11.5913-4.7379,17.6663-.4687,5.6073-2.03,12.7281.274,18.0621.1734.4014.7247.269.798-.122Z" fill="#706358"/><path d="m417.19193,274.36424c-6.3943-9.6154-18.3561-18.6504-30.6408-15.5598-1.1055.2781-.9973,1.731-.1134,2.1149-5.463,24.9235,19.3193,46.5386,39.0316,56.7176.6921.3574,1.5819-.0777,1.5772-.9051-.0856-14.8633-1.4135-29.6745-9.8546-42.3676Z" fill="#6ebe2b"/><path d="m354.51363,188.21064c-.0225-.0915-.0685-.155-.1075-.2269.0406-.0996.0865-.1948.1248-.2964.2409-.6383-.729-.9906-1.0669-.4498-.0903.1444-.1898.2822-.2835.4241-.2828.142-.4915.4011-.5141.7516-3.6409,5.0283-9.4024,8.5437-13.4681,13.2333-4.2089,4.8547-7.7309,10.2889-10.4444,16.1125-5.4981,11.7997-6.9519,24.0036-5.7117,36.8603.0386.4012.5166.6708.8345.3457,9.6375-9.856,17.5911-20.5497,24.7971-32.2856,3.1583-5.1437,5.9829-10.3012,7.0507-16.3111,1.0776-6.0644.2419-12.2358-1.2109-18.1577Z" fill="#6ebe2b"/><path d="m363.91113,253.82824c-.2796-.5133-.7447-.6432-1.1678-.5366-5.7104-.1918-10.6709,4.4601-14.4096,8.327-4.2624,4.4088-7.6435,9.6403-9.9265,15.3308-5.8434,14.5649-3.5386,30.544-7.7407,45.4403-.1756.6228.6818.9529,1.0196.4298,12.6227-19.5459,47.1105-41.669,32.225-68.9913Z" fill="#6ebe2b"/><path d="m402.45973,325.64094c-1.9819-12.1197-9.4989-27.6805-22.3414-28.639-.2596-.445-.8519-.6831-1.2893-.1863-8.5313,9.6887-9.7719,25.7553-5.9329,37.6133,2.4714,7.6288,6.6951,14.5031,10.458,21.533,1.8787,3.5098,3.6781,7.0765,5.0849,10.8056,1.3329,3.5329,1.5671,7.5433,2.9077,10.9479,1.6791-.3813,2.4778-3.3811,3.0367-4.9339,5.2089-14.4723,10.6158-31.6105,8.0763-47.1406Z" fill="#6ebe2b"/><path d="m397.88903,272.67524c-1.694-3.3586-4.3717-6.0856-6.6121-9.0841-2.4341-3.2581-4.6655-6.6612-6.8466-10.0919-5.4888-8.6335-11.5523-17.7055-13.4591-28.0342-2.2743-12.3195-5.1889-24.566-8.4023-36.6713-1.1266-4.2443-2.3084-8.4739-3.5492-12.6863.1475-.6401.3033-1.2811.4364-1.9195.1478-.7087-.9007-1.2653-1.2447-.5248-3.4614,7.4491-5.5165,15.5542-8.4375,23.2272-3.1389,8.2451-7.5252,15.2281-12.4022,22.5089-.3644.5441.3971.9793.8319.6419,6.2718-4.8655,9.8406-12.5168,12.7623-19.7034,2.7529-6.7713,5.4112-13.9852,7.3013-21.1781,4.7494,20.9915,9.3258,42.0428,13.1078,63.234-6.9742,5.8203-14.4343,15.5945-15.1834,24.5614-.0512.6142.7543.6835,1.0476.2837,2.7962-3.8092,4.4522-8.4142,6.9744-12.4249,2.2423-3.5657,4.8996-6.8301,7.5689-10.0812.3336,1.9.6734,3.7988.9933,5.7011,2.1532,12.8019,3.974,25.6497,5.4422,38.5482.7065,6.208,1.3417,12.424,1.906,18.6466.5212,5.7485.0876,12.5341,2.195,17.9539.1957.5034,1.0013.623,1.1465,0,1.3169-5.6455-.1677-12.2397-.7078-17.9539-.6162-6.5192-1.3127-13.0309-2.0856-19.5334-1.4535-12.2276-3.1456-24.4351-5.083-36.5953-.6097-3.8267-1.2561-7.6465-1.9218-11.4623,2.3074,5.181,5.4903,10.0233,8.4553,14.8105,3.8618,6.2354,8.499,14.8027,15.0564,18.5371.4686.2668.9387-.2566.71-.7099Z" fill="#6d8a1f"/><path d="m347.31993,196.14164c-4.9777,5.2876-10.3131,10.9024-14.2296,17.0403-2.7825,4.3608-8.0582,13.811-3.9332,18.508.4482.5103,1.1692.3626,1.6358,0,2.4224-1.8821,2.4285-5.0688,3.2724-7.8461,1.1519-3.7913,2.9551-7.1666,5.2367-10.3845,3.6778-5.1873,8.6368-9.7782,9.8066-16.2764.1766-.981-.9982-1.881-1.7887-1.0413Z" fill="#efec61" mix-blend-mode="soft-light" opacity=".7"/><path d="m328.91053,235.95134c-.0813.6643-.1707,1.337.0855,1.9708.1186.2933.5621.5381.8131.2146.4568-.5887.5809-1.2449.6939-1.9698.1804-1.1558-1.4487-1.3909-1.5925-.2156Z" fill="#efec61" mix-blend-mode="soft-light" opacity=".7"/><path d="m354.38993,258.53554c-5.9664,5.129-9.9782,10.9151-12.7267,18.353-1.2833,3.4725-2.094,7.0562-2.563,10.7247-.4226,3.305-1.4094,7.3592.1401,10.4255.3375.6679,1.2779.8546,1.8932.4963,2.7206-1.5839,2.7424-4.2619,3.0087-7.1953.338-3.7224.91-7.3361,1.9728-10.9316,2.1067-7.1282,6.0086-14.2494,10.516-20.1434,1.0404-1.3603-1.0941-2.7152-2.2411-1.7292Z" fill="#efec61" mix-blend-mode="soft-light" opacity=".7"/><path d="m338.42593,302.94524c-.6297-.173-1.5259.2146-1.6356.9287-.1287.8385-.5864,2.6306.5978,2.956,1.1881.3264,1.6751-1.4564,1.9666-2.249.2478-.6741-.2777-1.4568-.9288-1.6357Z" fill="#efec61" mix-blend-mode="soft-light" opacity=".7"/><path d="m364.51953,265.17474c-.3113-.3371-1.0227-.2979-1.2225.1576-.7618,1.7364-.6164,3.6693-.925,5.5162-.3563,2.1337-1.0601,4.4669-2.0882,6.3739-.4921.9128.6991,1.8968,1.4602,1.1267,2.9273-2.9621,6.2652-9.3945,2.7755-13.1744Z" fill="#efec61" mix-blend-mode="soft-light" opacity=".7"/><path d="m379.78603,327.44114c-2.0155-7.0336-1.914-14.0617-1.0117-21.2577.1353-1.0785-1.3358-1.1803-1.833-.4964-4.5809,6.2981-4.3418,14.2976-2.5551,21.5849,1.5407,6.2838,4.2051,15.7007,9.8763,19.4382.7399.4877,1.614-.1677,1.6591-.9521.361-6.2754-4.4385-12.3949-6.1356-18.3169Z" fill="#efec61" mix-blend-mode="soft-light" opacity=".7"/><path d="m388.26023,351.02154c-.3223-1.1784-2.2276-.6283-1.8139.5001.3763,1.026.7227,2.0527,1.4202,2.903.3162.3855.8756.0382.9042-.3745.0719-1.0326-.2396-2.0377-.5105-3.0286Z" fill="#efec61" mix-blend-mode="soft-light" opacity=".7"/><path d="m391.07093,361.50014c-1.0713,0-1.073,1.6648,0,1.6648,1.0712,0,1.0729-1.6648,0-1.6648Z" fill="#efec61" mix-blend-mode="soft-light" opacity=".7"/><path d="m392.15023,305.90494c-.4076-.4969-1.259-.4227-1.6817,0-.4638.4637-.4453,1.2162,0,1.6817.7037.7356,1.5501,1.8728,2.6825,1.8214.234-.0106.5215-.172.563-.4286.1993-1.2327-.845-2.1983-1.5638-3.0745Z" fill="#efec61" mix-blend-mode="soft-light" opacity=".7"/><path d="m396.83643,318.18654c-1.0155,0-1.0173,1.5783,0,1.5783,1.0155,0,1.0173-1.5783,0-1.5783Z" fill="#efec61" mix-blend-mode="soft-light" opacity=".7"/><path d="m400.48333,290.17724c-4.4985-4.967-6.7471-12.8038-9.1231-18.9698-.5141-1.3339-2.5942-.8332-2.1891.6035,3.1536,11.1873,5.9854,23.3324,17.26,29.167.6286.3252,1.597-.0621,1.529-.8775-.3811-4.569-4.6551-6.8079-7.4768-9.9232Z" fill="#efec61" mix-blend-mode="soft-light" opacity=".7"/><path d="m418.97433,307.39484c-.5401-1.2969-1.4734-1.7178-2.7266-2.2427-1.5217-.6373-3.0739-1.1572-4.5565-1.8884-1.3625-.6719-2.4509,1.1832-1.1896,2.0349,2.0405,1.3777,5.6022,4.3468,8.1596,2.8653.2335-.1352.4263-.4967.3131-.7691Z" fill="#efec61" mix-blend-mode="soft-light" opacity=".7"/><path d="m413.23023,275.05144c-4.085-5.4201-9.1355-9.0309-15.3475-11.6443-1.3872-.5836-2.3039,1.7021-1.0163,2.4105,5.6466,3.1068,10.2563,8.0425,13.6954,13.4441,1.872,2.9404,3.3265,6.0412,4.6268,9.2705.9499,2.3589,1.4918,4.3736,3.5207,6.0337.5687.4653,1.3396.2953,1.5899-.4198,2.0676-5.9034-3.6742-14.5905-7.069-19.0947Z" fill="#efec61" mix-blend-mode="soft-light" opacity=".7"/><path d="m420.35983,296.31714c-.9243,0-1.5002,1.0267-1.0455,1.8218.1629.2849.2987.6011.4854.8694.2894.4158.8308.4158,1.1202,0,.1867-.2683.3225-.5845.4854-.8694.4547-.7951-.1212-1.8218-1.0455-1.8218Z" fill="#efec61" mix-blend-mode="soft-light" opacity=".7"/><path d="m175.17111,93.17374c-4.228,7.3128-7.2285,18.954-3.9077,27.1014.2377.5834,1.0128.2874,1.0988-.22.7035-4.1487.1593-8.4309.6973-12.6263.5959-4.6463,1.9277-9.2119,3.2203-13.7063.1863-.6479-.7371-1.1916-1.1087-.5488h0Z" fill="#706358"/><path d="m166.66541,125.84624c3.6944,4.3446,11.8158,2.368,12.97352-3.4882.81388-4.1167-2.28742-7.5452-6.31782-7.8791-5.7136-.4732-10.5335,4.6464-7.4189,10.2615.2253.4061.4813.7744.7632,1.1058Z" fill="#e33069"/><path d="m165.90221,124.74044c.2252.4062.4814.7744.7632,1.1058.8992,1.0575,2.0628,1.7342,3.3224,2.0779-.5273-1.7889-1.2197-3.583-1.0336-5.5111.3093-3.2037,2.1575-5.9167,4.605-7.9026-.0799-.0092-.1575-.0248-.2381-.0314-5.7136-.4733-10.5334,4.6463-7.4189,10.2614Z" fill="#706358" mix-blend-mode="multiply" opacity=".25"/><path d="m175.23731,126.24634c2.0588-1.0576,4.1129-3.8827,2.4695-6.1121-.4024-.5458-1.3443-.4274-1.6798.1169-.8354,1.3551-.8265,2.915-2.1795,3.9486-1.13458.8668.1499,2.6835,1.3898,2.0466Z" fill="#ea638e"/><path d="m154.10711,112.94524c-.87,5.4626-1.2898,10.9176-1.5436,16.4413-.22058,4.799-.8633,9.8271.3943,14.5078.1357.5051.9284.6517,1.092.0732,1.3118-4.6396.88412-9.6095,1.0626-14.3987.2052-5.5083.5109-10.9994.5501-16.5124.0072-1.0123-1.3983-1.0978-1.5554-.1112h0Z" fill="#706358"/><path d="m149.07561,137.74704c-4.1573,3.8719-1.7939,11.7462,4.1054,12.5606,4.1471.5726,7.4188-2.6656,7.55792-6.646.197-5.6428-5.14372-10.0979-10.59672-6.7259-.39428.2439-.7494.516-1.0666.8113Z" fill="#e33069"/><path d="m150.49093,149.31494c-.36062-1.9679-.775-3.9392-.04932-6.1043.93432-2.7873,2.9502-5.1927,5.2742-7.1753-1.6775-.4996-3.6161-.31-5.5736.9004-.39428.2439-.7495.516-1.0666.8114-3.447,3.2102-2.4019,9.16,1.41532,11.5678Z" fill="#706358" mix-blend-mode="multiply" opacity=".25"/><path d="m155.32861,148.20794c.626.4171,1.3245.1753,1.7688-.3541.986-1.1746,2.0056-3.1758,1.1694-4.67-.36888-.6593-1.30688-.7575-1.7466-.1059-.3797.5626-.4875,1.1708-.6888,1.8021-.1858.5825-.479,1.0796-.8569,1.5592-.4267.5413-.187,1.4081.3541,1.7687Z" fill="#ea638e"/><path d="m136.73461,128.14084c-1.7892,4.7864-2.7699,9.613-3.5336,14.6588-.71408,4.7171-2.0334,10.3471-.7545,15.0058.1499.546.9106.6371,1.11942.075,1.59248-4.2892,1.20088-9.3965,1.757-13.9371.64068-5.2307,1.64768-10.3959,2.238-15.6338.05518-.4899-.66122-.6106-.82632-.1687h0Z" fill="#706358"/><path d="m127.69581,157.13794c-.4168,5.5422,6.139,9.0105,10.687,5.2904,3.197-2.6151,3.4053-7.1023,1.00412-9.8176-3.404-3.8491-9.85292-2.9237-11.46992,3.2248-.117.4447-.1894.8796-.2212,1.3024Z" fill="#e33069"/><path d="m127.69593,157.13794c-.19022,2.5277,1.077,4.6131,2.93568,5.7928-.2088-1.4634-.37768-2.9354.0974-4.373,1.35292-4.0948,4.242-6.6866,8.5567-6.0471-3.4279-3.724-9.7669-2.7657-11.3687,3.3249-.117.4447-.1893.8796-.22108,1.3024Z" fill="#706358" mix-blend-mode="multiply" opacity=".25"/><path d="m135.70131,162.78694c1.6394-.7883,4.2227-3.4457,2.4749-5.266-.2375-.2474-.6939-.3974-1.012-.1935-.326.2091-.6214.3981-.85528.7198-.22772.3131-.34352.6971-.50992,1.0269-.2876.5699-.7398,1.0291-1.2966,1.3326-1.5013.8184-.3538,3.1268,1.1989,2.3802Z" fill="#ea638e"/><path d="m206.08121,69.85784c-18.4307,11.5864-35.0611,25.5804-50.7828,40.5894-7.9857,7.6237-15.7357,15.4826-23.4989,23.3311-7.4918,7.5742-16.8214,14.8546-22.7659,23.7209-.5251.7833.4788,1.4993,1.1666,1.015,8.907-6.2712,16.2251-16.1051,23.8171-23.8967,7.191-7.3801,14.439-14.7097,21.855-21.8644,15.7967-15.2403,32.4157-29.6624,50.8083-41.7052.7044-.4612.1329-1.65057-.5994-1.1901h0Z" fill="#706358"/><path d="m101.33261,158.65304c-.30868,7.0116,8.4704,11.6946,14.2956,7.173,4.0949-3.1786,4.17472-8.8611.8966-12.409-4.6471-5.0296-13.0954-4.135-14.9575,3.5937-.1347.5589-.2111,1.1074-.2347,1.6423Z" fill="#e33069"/><path d="m101.33261,158.65304c-.0576,1.3084.2024,2.5351.6995,3.6367.1634-.6934.4182-1.377.8007-2.0771,2.8687-5.2522,9.1479-7.0717,14.6314-5.5682-.2757-.429-.5839-.8427-.9394-1.2274-4.6471-5.0296-13.0954-4.135-14.9576,3.5937-.1346.5589-.211,1.1074-.2346,1.6423Z" fill="#706358" mix-blend-mode="multiply" opacity=".25"/><path d="m109.52111,167.26474c1.775.1741,3.58482-.5446,4.7856-1.8581.6333-.6928,1.1281-1.5446,1.2206-2.4966.0957-.9851-.2203-1.8225-.7982-2.4739-.4679-.5277-1.1917-.4889-1.6913-.085-.0458.0283-.1328.0877-.3013.2084-.0904.1042-.1809.2083-.2713.3124-.0188.0282-.2859.5238-.3435.6192-.2635.4369-.5159.8873-.8076,1.3058-.50718.7275-1.1171,1.0691-2.0038,1.1313-1.9539.1372-1.6062,3.1582.2108,3.3365Z" fill="#ea638e"/><path d="m136.86011,127.77364c-8.6954-2.6973-21.0448-5.6675-29.8354-2.2003-.40778.1609-.3809.8977.0671.9905,4.1902.8676,8.6055.2558,12.8828.5421,5.4739.3663,10.9169,1.2506,16.25832,2.4906,1.18388.2749,1.83448-1.4484.62718-1.8229h0Z" fill="#706358"/><path d="m101.86341,125.77904c-.2533,5.7517,6.9484,9.5933,11.7268,5.8841,3.3591-2.6074,3.4246-7.2689.7356-10.1793-3.8121-4.1259-10.7424-3.392-12.26988,2.948-.11052.4585-.17322.9084-.19252,1.3472Z" fill="#e33069"/><path d="m103.42911,130.33304c-.054-1.2986.0189-2.5929.47982-3.8608,1.51088-4.156,6.607-5.6546,10.74958-4.5896-.1077-.1348-.2142-.2704-.3327-.3988-3.8121-4.1259-10.7424-3.3919-12.26988,2.948-.11052.4585-.17322.9084-.19252,1.3472-.0771,1.7492.5416,3.3168,1.5657,4.554Z" fill="#706358" mix-blend-mode="multiply" opacity=".25"/><path d="m110.50293,132.08484c1.20988-.1717,2.38048-.7779,3.214-1.6737.87218-.9373,1.50678-2.7623.52888-3.8369-.37-.4067-.9253-.4807-1.4145-.2704-.65838.2831-1.2071,1.1463-1.6147,1.632-.3609.43-.79968.7922-1.3592.925-2.0673.4906-1.44548,3.5209.64552,3.224Z" fill="#ea638e"/><path d="m158.66411,106.50894c-9.3313-.977-23.343-4.495-31.5407,1.3748-.57948.415.00552,1.2629.5612,1.1267,13.8194-3.3891,20.3194-1.2641,30.8399-.5502,1.2492.0848,1.4015-1.8192.1396-1.9513h0Z" fill="#706358"/><path d="m123.31651,112.47004c4.0206,4.7282,12.8591,2.5771,14.1191-3.7961.8857-4.4802-2.4895-8.2115-6.87568-8.5748-6.21812-.515-11.46352,5.0567-8.07392,11.1675.2451.442.5238.8427.8305,1.2034Z" fill="#e33069"/><path d="m122.48601,111.26674c.2451.4419.5238.8427.8305,1.2034.64742.7612,1.4277,1.3257,2.2731,1.7413-.5782-2.693-1.0608-5.3916.5528-7.724,2.12352-3.0695,6.8271-3.0201,10.5322-2.6208-1.1962-2.0972-3.4673-3.5482-6.11468-3.7674-6.21812-.5151-11.46352,5.0566-8.07392,11.1675Z" fill="#706358" mix-blend-mode="multiply" opacity=".25"/><path d="m130.71011,113.89634c2.7679-.385,6.1741-2.6815,4.8087-5.8798-.2536-.5941-1.1292-.8868-1.686-.5564-.9175.5442-1.5581,1.2142-2.2068,2.0643-.5102.6686-1.0864,1.2939-1.8502,1.663-1.5187.734-.6387,2.9277.9343,2.7089Z" fill="#ea638e"/><path d="m184.33731,85.20464c-8.1431-2.8529-25.9451-4.9215-33.93838-1.2402-.77692.3578-.43422,1.6171.30588,1.5276,5.1325-.6207,10.80712-1.5263,15.4659-1.5374,4.7561-.0113,12.4166,1.75,17.5,2.3334.9617.1103.6666-1.0834.6666-1.0834Z" fill="#706358"/><path d="m143.73911,88.95504c4.0206,4.7281,12.8591,2.5771,14.1191-3.7962.88572-4.4802-2.4895-8.2114-6.8757-8.5747-6.2181-.5151-11.4635,5.0566-8.0739,11.1675.2451.4419.5238.8427.8305,1.2034Z" fill="#e33069"/><path d="m142.90861,87.75164c.2452.4419.5238.8427.8306,1.2034.41572.489.8925.8868,1.3976,1.2315-.3836-1.8633-.6498-3.7381.1022-5.6967,1.5008-3.9092,6.1453-5.2487,10.2713-6.0459-1.2181-1.0377-2.7906-1.7159-4.5278-1.8598-6.2181-.515-11.4635,5.0566-8.0739,11.1675Z" fill="#706358" mix-blend-mode="multiply" opacity=".25"/><path d="m149.11601,89.36594c.3968.7894,1.3351,1.0456,2.1132.6975,1.2391-.5543,2.3513-1.4831,3.0904-2.6272.3964-.6137.7321-1.375.8117-2.1098.042-.3872-.0118-.7808-.1173-1.1533-.0584-.2871-.1844-.5403-.37808-.7597-.35032-.2713-.42922-.347-.23662-.2268-.38238-.5175-1.3201-.5521-1.761-.1037-.0401.0407-.0802.0814-.1202.1222l.65682-.3268c-1.962.6165-1.72282,3.2735-3.36142,4.3744-.7047.4735-1.1132,1.2861-.6975,2.1132Z" fill="#ea638e"/><path d="m375.84973,28.99524c-1.9889,6.8108-2.4396,14.4766-3.6132,21.47947-1.3121,7.82946-2.7121,15.65497-3.7349,23.52883-1.7993,13.8507-2.2078,28.2507,3.184,41.4104,3.7107,9.0567,10.2785,19.1564,20.6052,21.1324,8.6923,1.663,17.2141-2.2725,25.0758-5.4521,9.667-3.9097,19.3605-7.8286,28.4117-13.0518,7.1131-4.1048,13.9471-8.6842,20.4151-13.7459,4.1276-3.2303,9.4819-7.1115,8.3197-13.0488-.1729-.8834-1.0201-1.2512-1.8208-.9661-14.3429,5.1068-28.321,10.9533-41.923,17.7361,6.0909-6.4635,12.715-12.425,18.438-19.2331,3.1866-3.7907,14.1813-17.0477,8.8384-22.04085-.3206-.29965-.6993-.42461-1.1205-.24904-11.793,4.91499-22.4248,11.16689-31.9453,19.31259,9.0037-12.9714,18.2388-26.22438,18.6376-42.5458.0209-.8557-.7647-1.4664-1.5831-1.125-9.4057,3.9237-17.2472,13.02941-23.9606,20.43176-5.2419,5.77979-9.9695,11.88404-14.4766,18.17814,2.5245-6.0197,4.7007-12.20494,6.3258-18.46203,2.1495-8.27643,3.598-16.79757.779-25.07237-.2295-.6738-1.3106-.7437-1.6617-.1482-6.2983,10.6833-11.6889,21.77054-16.3156,33.22,1.2194-10.1466.9897-20.44848-1.6902-30.3799-1.2305-4.5605-3.087-12.7139-7.8601-14.8982-3.5911-1.6433-6.3123.5227-7.3247,3.9895Z" fill="#6ebe2b"/><path d="m395.95993,130.37724c-1.2872,2.5521,9.493-.0833,10.3095-.2811,4.7425-1.1488,9.4108-2.6032,13.968-4.3473,9.1142-3.4882,17.7862-8.1363,25.721-13.819,1.0315-.7387,2.0505-1.4949,3.0566-2.2685.2792-.2147.5888-.508.5209-.8536-.1019-.5182-.8456-.5037-1.353-.3572-11.6513,3.365-23.2098,7.0512-34.6581,11.0529-6.4096,2.2405-13.1571,4.8492-17.203,10.3021-.1564.2108-.2753.4003-.3619.5717Z" fill="#efec61" opacity=".5"/><path d="m388.72403,124.71954c-.302.3326-.239.6888-.0178.9467.0264.3605.3511.6847.7787.4739,19.724-9.7276,37.4957-24.0146,52.2297-40.2807.5588-.6169-.3228-1.4708-.9853-1.1781-20.6788,9.1337-36.9318,23.4389-52.0053,40.0382Z" fill="#efec61" opacity=".5"/><path d="m423.22043,68.81765c-16.4368,14.15439-29.7241,32.35619-38.8189,52.05989-.3633.787.468,1.9715.9597,1.4846,15.3149-15.1675,32.1672-31.6412,39.5663-52.3473.3578-1.00113-.8809-1.90857-1.7071-1.19719Z" fill="#efec61" opacity=".5"/><path d="m402.07473,63.15498c-6.5111,9.65366-12.8774,19.44906-18.2252,29.80906-3.7172,7.2012-7.4791,16.0498-5.2869,24.2783.5669,2.1277,2.1714-.8288,2.4869-1.3523,5.266-8.7381,10.5111-17.3455,14.794-26.632,3.4995-7.5877,9.2998-16.9836,8.2098-25.65359-.1195-.9501-1.4549-1.22601-1.9786-.44947Z" fill="#efec61" opacity=".5"/><path d="m382.49513,56.05897c-7.6251,15.25447-13.116,34.12637-9.2941,51.14907.2749,1.2211,2.1462,1.4006,2.4235.0802.0974-.4638.0098-.9442.0172-1.4181.0127-.8214.3095-1.6085.6024-2.3761,2.866-7.5115,5.7267-15.0056,7.274-22.9252.7919-4.0531,1.2567-8.1786,1.2238-12.31175-.0296-3.71537-.0675-8.70479-1.652-12.14136-.0846-.30639-.4531-.34019-.5948-.05676Z" fill="#efec61" opacity=".5"/><path d="m206.50941,60.7185c-9.33848,4.95298-8.274,16.22094-1.993,22.61664-5.0926.844-10.0868,4.4558-9.90448,9.7253.18538,5.3571,5.65828,8.7621,10.78048,10.4469-3.41348,2.254-6.038,5.4194-6.1816,8.9029-.2811,6.8152,7.1935,9.0337,13.3412,8.7091-3.1743,2.8705-5.7102,6.7291-6.8832,10.1137-1.6444,4.7446,3.5424,9.0243,8.1162,8.4191-3.8818,4.1738-3.888,11.7215-.0774,14.8089,5.6735,4.5967,15.1792,1.3156,19.8919-3.7408,13.7535-5.3617,18.68612-23.9835,20.14012-36.9562,1.7269-15.4068.9455-30.8604-10.09813-42.8747-8.2669-8.99363-25.2029-16.49795-37.1321-10.17084Z" fill="#f1a0c6"/><path d="m230.136,124.51924c-2.4965.2907-4.8138,2.293-6.8417,3.6716-2.1618,1.4696-4.4106,2.9705-6.2187,4.8662-.3486.3654-.2983,1.1052.2762,1.2362,2.0998.4788,3.8663-.6365,5.7196-1.5713,2.2569-1.1383,4.533-2.4452,6.4509-4.1.446-.3848.0298-1.1757-.54138-1.0178-.48852.135-.96982.2931-1.44632.4658,1.2177-.7667,2.38432-1.6128,3.1562-2.7688.2747-.4114-.1352-.8307-.5548-.7819Z" fill="#efec61"/><path d="m214.62941,66.98083c.0006.00665.0013.01336.0019.02-.7086.18451-.701,1.29587.13162,1.36262,4.37948.35111,8.91668,1.05127,13.30708,1.01968.7092.12353,1.4204.2329,2.1384.29896.1796.01649.2842-.27076.1101-.3524-.452-.21194-.9263-.3922-1.4023-.56941.00872-.24255-.1109-.48544-.4107-.5834-4.3299-1.41478-9.3763-1.76064-13.8761-1.19605Z" fill="#efec61"/><path d="m215.16311,108.60084c-.9773.3236-.6565,1.6957.3651,1.5539,5.0905-.7066,10.0708-1.519,14.982-2.6208-5.6984,2.5931-11.1566,5.7476-16.2547,9.2386-.8999.6162-1.0377,1.4435.1605,1.1721,9.82-2.2236,20.46392-5.2783,28.6302-11.3107-.2319,1.5177,2.2946,1.6682,2.474.0737.1598-1.4197.0878-2.7288.0612-4.1559-.008-.43-.3433-.9315-.8323-.8985-10.1017.6796-20.0258,3.7824-29.586,6.9476Z" fill="#efec61"/><path d="m212.18061,73.15394c-.8863-.0507-1.0911,1.4721-.3234,1.9045,4.18372,2.3563,8.4323,4.5802,12.7299,6.7067-5.2181-1.1947-10.7433-1.0421-16.1228-.708-1.2823.0797-1.5233,1.0274-.1926,1.4838,6.5825,2.2575,13.3309,4.1046,20.1399,5.623-2.9122-.2178-4.8102.0031-7.7176-.3952-5.4589-.7479-12.1555-.36-17.49108,1.0913-1.18672.3228-.44812.9621.65458,1.1442,11.2349,1.8553,22.8359,2.3284,34.134.739.583-.082.4957-1.0852-.1007-1.043-.107.0075-.2134.013-.31988.0187.10828-.9615-.23232-1.8754-.17632-2.8645.0541-.954.2697-1.9587.5185-2.933.0686.0303.1352.0645.2039.0946.9058.3965,1.4642-.9969.7086-1.5159-.1872-.1286-.3835-.2456-.57368-.3703-.10232-.2113-.32682-.3514-.54742-.3534-3.8874-2.4457-8.3342-4.1841-12.60058-5.7788-4.04452-1.5117-10.73882-2.7189-12.92332-2.8437Z" fill="#efec61"/><path d="m212.85631,53.96135c-.5176,7.66917,6.14962,12.71715,13.6039,15.84719-1.138.3564-2.2511.8085-3.3202,1.3897-5.8282,3.1679-9.7246,10.7258-9.3324,17.3006.7399,12.398,12.94732,15.7035,24.0365,16.3779-7.31218,6.5932-12.9464,14.6091-16.6297,24.1557-4.2888,11.1163-5.8514,27.5115,7.35,33.2644,6.1122,2.6636,12.1346,2.9157,18.666,1.7282,7.81853-1.4216,16.30543-5.9197,21.51653-10.0621,15.7119-12.4897,29.9375-31.2665,36.0968-50.8209,10.7331-34.07573-34.2533-58.6785-62.39133-60.1038-8.7866-.4451-28.7063-2.2616-29.5961,10.92311Z" fill="#e55397"/><path d="m236.4462,52.66657c-2.8097,2.47675.5182,4.35834,2.6496,5.42092,5.98,2.98128,12.03282,5.83414,18.11182,8.60769,12.8765,5.87496,26.2342,10.36626,39.627,14.88186.6093.2054,4.9455.609,3.0985-.9203-10.0527-8.3228-20.8833-16.48865-32.7512-22.05302-5.6036-2.62732-11.5006-4.66824-17.55983-5.94667-3.5838-.75617-10.0056-2.785-13.1759.00952Z" fill="#eb7cb0"/><path d="m236.7758,78.94154c-2.7591.4484-11.0805.7789-12.0246,4.413-2.1317,8.2045,25.0983,5.0707,28.60152,4.7947,8.195-.6457,16.4098-.9942,24.6243-1.275,4.0588-.1388,8.1181-.2605,12.1771-.3936,2.0786-.0682,4.157-.1391,6.2353-.2167.989-.037,1.9792-.0653,2.969-.1158,1.3836-.068,2.4191-1.1987.4528-1.6031-14.2639-2.9336-28.6559-5.4417-43.1991-6.4212-6.60843-.4044-13.29253-.2457-19.83632.8177Z" fill="#eb7cb0"/><path d="m285.48683,93.21734c-5.0564.4288-10.0615,1.1241-15.0747,2.0777-8.8085,1.6887-18.2357,3.6127-25.37533,9.3878-.9107.7366-.2133,2.1336.8206,2.2175,9.27953.7533,18.39423-2.0354,27.31353-4.2385,4.6263-1.1428,9.3902-2.4894,13.9702-4.0418,2.3836-.8079,4.7461-1.6785,7.0794-2.6221,1.9805-.8009,4.8183-1.5426,6.4291-2.9389-.052-.1159-.1208-.2212-.2066-.3164-.5342-.5921-7.9115.0396-9.7778.1299-1.7336.0839-3.459.1989-5.1784.3448Z" fill="#eb7cb0"/><path d="m296.60073,101.33034c-2.096.3128-4.2072,1.0746-6.0253,1.7044-3.8917,1.3483-7.5682,3.2323-11.4186,4.6855-6.0194,2.2717-11.9699,4.7266-17.8416,7.3565-5.6226,2.5184-11.04413,5.4703-15.88843,9.3014-2.5657,2.029-9.02787,6.3812-8.2112,10.373.7476,3.6544,5.017,3.5786,7.7731,2.5293,6.98063-2.6576,13.63453-6.9834,20.01543-10.815,6.5374-3.9254,12.9553-8.0433,19.1794-12.4504,4.5863-3.2474,8.8481-6.8429,13.6294-9.8318.5651-.3532,3.1229-1.7409,2.821-2.5875-.3604-1.0105-3.329-.3705-4.0332-.2654Z" fill="#eb7cb0"/><path d="m276.19403,122.57084c-5.4489,3.853-10.8552,7.7826-16.1352,11.8644-2.5234,1.9507-21.88462,14.6542-15.00333,19.4096,3.8517,2.6617,10.80493-1.499,13.98423-3.4175,5.2054-3.1412,10.0205-6.9164,14.5274-10.9859,8.703-7.8585,19.4316-17.4062,22.5283-29.1238.3317-1.2555-14.3535,8.3303-19.9014,12.2532Z" fill="#eb7cb0"/><path d="m331.06143,133.67514c-.1607-.0285-.3205-.0657-.481-.0967,1.2578-7.6234,1.8286-15.5893-.4553-23.0664-2.3021-7.5363-7.5833-12.987-14.0276-17.2686-15.9067-10.5684-34.426-18.0679-52.5368-23.877-1.1284-.36194-2.3884,1.0944-1.6311,2.1218,10.0551,13.6408,13.7848,31.0169,26.7231,42.626,6,5.3838,13.0312,9.4535,20.196,13.0714,5.9647,3.0119,12.3181,6.799,19.0601,7.7113.1433,1.0979,2.0581,1.3151,2.4002.1859.1867.005.3721.0195.5592.0195.7928.0001,1.0215-1.2803.1932-1.4272Z" fill="#6d8a1f"/><path d="m316.96083,100.30104c1.7848,6.0363,2.758,12.1773,3.0195,18.4661.039.9362,1.334.9011,1.4297,0,.8324-7.837-.8209-16.6047-3.8591-24.5188-.4781-.3412-.961-.6777-1.4534-1.0049-.7056-.4688-1.4225-.9243-2.1382-1.3811,1.0574,2.797,2.1574,5.5839,3.0015,8.4387Z" fill="#8da450"/><path d="m319.62033,118.88044c-3.6695-4.0094-7.4575-7.8987-11.3086-11.7266.0526-.1058.0658-.2309.0075-.3693-2.3002-5.4583-4.8167-10.7958-7.4043-16.1238-1.3633-2.8071-2.5349-6.0124-4.5091-8.4891-.9431-.4517-1.8886-.8988-2.8396-1.3361,5.4657,7.0912,8.5885,16.1531,12.6312,24.2172-1.6622-1.631-3.334-3.2525-5.017-4.8639-3.5524-3.4013-7.1952-6.7175-10.9101-9.9531.4214.2965,1.1026-.2311.8453-.821-1.7474-4.0066-3.9275-8.6134-6.7401-12.5508-1.2316-.5004-2.4657-.9926-3.7033-1.4726,1.2327,1.5662,2.5098,3.1049,3.6228,4.7493,2.1428,3.1658,4.0795,6.4585,5.7885,9.8774.0365.0728.0828.1235.1309.1693-8.6358-7.5178-17.7126-14.5398-27.2611-20.83634-.4425.08832-.8355.39244-1.0584.78924,11.0118,8.1941,21.7998,16.6461,32.094,25.7097-4.3738.5141-8.7743.9634-13.1814.9304-1.7829-.0133-3.5075-.2415-5.2124-.5407.5573,1.0553,1.1295,2.1009,1.7164,3.1367,6.0997.318,12.8304-1.2343,17.8165-2.2311.088-.0176.1603-.0544.2246-.0986,1.7987,1.6003,3.5855,3.2151,5.3511,4.8565,2.0535,1.909,4.0603,3.8708,6.0476,5.8532-6.634.5549-14.2633.6561-20.4147,3.2873-.4405.1885-.1524.7706.2189.808,6.792.6853,14.2838-1.3821,20.9836-2.3451.2748-.0395.4506-.2007.5511-.4072,3.1014,3.1374,6.1313,6.3459,9.1035,9.5987-6.1702,2.6656-12.4575,2.7069-18.8726,2.6185,1.5867.9987,3.2072,1.9458,4.8457,2.8595,5.3955-.1861,10.7243-1.3309,15.5673-3.7743,4.067,4.6574,7.847,10.1432,12.1586,14.6956.771-.0283.9876-1.2769.1687-1.4222-.1607-.0285-.3205-.0657-.481-.0967.1265-.7666.2434-1.5374.3539-2.3101-3.4791-4.4029-7.7377-8.4805-11.314-12.3879Z" fill="#8da450"/><path d="m296.98103,159.65424c.9182.5316,1.718-.8531.8281-1.4166-2.4243-1.535-5.2556-3.1374-8.2167-4.2579-1.6418.2733-3.2782.5807-4.9042.9466,4.165,1.3746,8.3184,2.427,12.2928,4.7279Z" fill="#8da450"/><path d="m323.75473,155.77624c-.5764-.1666-1.1519-.304-1.7279-.4558-.2754-.4686-.8705-.7095-1.3209-.3483-35.4565-8.6554-70.00493,10.3811-95.84882,33.5055-1.0964.981-.4546,2.5438.9837,2.5695,10.5009.1875,21.00312.2261,31.50392.0037,9.637-.2041,19.6949.0409,29.104-2.3213,16.6149-4.1713,26.4615-18.5465,35.3724-32.0467.574.1138,1.1466.2148,1.722.3415.8116.1788.9745-1.0276.2116-1.2481Z" fill="#6d8a1f"/><path d="m313.61083,155.59104c-9.1323,4.0203-18.6218,6.9971-28.1769,9.7834.1468-.3565.0908-.796-.3154-.9827-4.1598-1.9114-8.9829-4.2823-13.858-5.3881-1.5002.5695-2.9913,1.1705-4.4714,1.8064,2.2935.2467,4.5741.566,6.8575,1.21,3.5958,1.014,7.0848,2.3429,10.5573,3.711-6.8724,1.9923-13.7718,3.9063-20.5912,6.0557-.0623.0197-.1238.0414-.1861.0611-4.9732-.8905-10.2645-1.3238-15.39563-1.0484-.9595.6093-1.912,1.2296-2.8578,1.8598,4.3798.5628,8.90483.7882,13.37013.7904-5.2476,1.7901-10.41473,3.7887-15.45053,6.1331-6.2765,2.9219-13.179,6.2369-18.2057,11.1543.2519.1836.572.3033.9537.3101.4508.0081.9016.0115,1.3525.019,6.1562-3.5368,11.926-7.5212,18.51962-10.4119,6.7167-2.9447,13.6753-5.3666,20.6719-7.5688-4.5166,6.5548-10.1011,11.9583-15.1382,18.058.6628-.0079,1.3255-.0203,1.9883-.0302,6.1371-4.4898,10.9288-11.1568,14.9129-17.4838.2638-.4188.1223-.8059-.1631-1.0454.1045-.0324.2088-.0658.3133-.0981,4.3813-1.3543,8.7776-2.6519,13.1644-3.9699-3.194,4.3765-6.3531,8.782-9.5991,13.1193-2.3446,3.1329-4.9333,6.1373-7.2735,9.2996,1.0324-.018,2.0666-.0409,3.1012-.0693,6.1927-6.6727,11.5065-14.8817,16.1799-22.2111.2095-.3288.2079-.6396.087-.8919,4.7111-1.429,9.4059-2.899,14.0511-4.5121-2.269,5.1609-4.5404,10.3407-7.1938,15.3187-2.047,3.8403-4.655,7.2242-7.078,10.761.9086-.1805,1.8138-.3753,2.7115-.6007.015-.0038.0295-.0084.0444-.0122,5.8477-7.0554,9.3878-17.0712,12.7196-24.9708.1489-.3528-.1015-.6548-.417-.7722,5.2426-1.8413,10.4223-3.8668,15.4895-6.2298.7844-.3657.1008-1.4948-.6744-1.1535Z" fill="#8da450"/><path d="m365.04463,209.46364c6.7745.9711,13.9353-.1771,20.6232-1.2957,6.7995-1.1372,13.5143-2.7438,20.1159-4.7265,5.676-1.7048,11.9567-3.3422,16.5017-7.3627,3.3229-2.9394,5.7511-7.4548,4.7469-11.9967-.8169-3.6952-3.6028-6.6411-7.2999-6.8538-8.9946-4.1444-18.3253-7.2774-28.0683-9.1844-9.0935-1.7799-20.5482-4.0074-29.7379-1.7309-4.9718,1.2316-9.8252,5.3914-6.9602,10.7984,2.8652,5.4073,8.9036,8.7437,14.7343,10.8342-3.3943.9692-6.5787,2.6123-9.3089,4.8974-2.5275,2.1153-7.0951,6.438-6.3222,10.2743.8765,4.3497,7.4281,5.838,10.9754,6.3464Z" fill="#f8a32d"/><path d="m439.22363,273.73494c.9399,4.3405,2.9709,9.0275,8.0352,8.9801,5.9956-.0562,7.53-7.6148,8.4434-12.155,2.0986-10.4316,1.5446-21.0058.8915-31.589,1.8916,7.3378,4.4105,14.5414,7.1535,21.4656,2.2569,5.6971,4.3928,12.1165,7.7259,17.2895,1.9442,3.0174,5.5177,5.8545,9.2818,4.1521,4.1356-1.8705,5.493-8.0526,6.4585-12.0006,1.4305-5.8497,1.5611-11.7643.7785-17.6617,6.4854,6.1854,15.2315,11.4281,24.0763,12.3045,2.6848.2661,6.0538-.1538,7.3849-2.93,1.4834-3.094-.8723-6.807-2.3443-9.4786-5.1383-9.3256-13.3202-17.4017-20.8139-24.8448-7.8973-7.8439-16.3739-15.1298-25.5493-21.4379.2147-.6078-.1398-1.442-.9959-1.4374-4.3794.0234-9.3433.3153-12.7348,3.4483-1.7606,1.6263-2.7327,3.6927-3.2298,5.9165-6.7894-2.1455-15.0776,4.1587-20.7703,9.3829.0659-.1783.1419-.354.2048-.533,2.3922-6.8019.1737-18.2418-8.1081-18.3663-.1007-.5747-.5357-1.0916-1.1999-.969-10.7873,1.991-21.3899,4.6252-31.8117,8.0583-8.346,2.7493-19.4091,5.3275-25.5731,12.0964-3.9467,4.334-5.0365,11.1931,1.7061,13.134,7.1423,2.0558,15.8372.278,23.4092-1.9531-5.9576,5.7233-11.534,13.8278-7.1065,21.5447,2.6154,4.5585,8.0246,2.2467,11.9459.8555,5.3331-1.8922,10.4414-4.6306,15.0464-7.9119,1.3819-.9846,2.7577-2.0459,4.115-3.1622-1.6004,3.3355-2.934,6.7982-3.9698,10.3507-2.5169,8.6327-4.0054,21.0048,6.3975,24.9555,7.9231,3.0091,16.5321-.8937,21.153-7.5041Z" fill="#f8a32d"/><path d="m536.55873,236.16794c-.0616-4.5255-3.7004-9.5732-6.4967-12.8243-2.9515-3.4313-6.6395-6.2174-10.5593-8.4912,7.3134-.5274,14.5568-2.9179,20.508-7.2559,1.8882-1.3763,3.8583-2.7966,3.2024-5.4-.6911-2.7431-3.9267-4.7788-6.2997-5.7859-5.2251-2.2176-11.5571-2.7418-17.6396-2.7984,2.7975-.4168,5.5697-.9431,8.2943-1.6096,5.9573-1.4573,16.5865-6.5118,12.1111-14.4163-4.1376-7.3078-16.0175-8.5-24.1802-9.033,2.7233-2.3175,4.9542-5.1426,6.8521-8.1942,2.1694-3.4886,5.758-8.7959,6.1813-12.9904.8642-8.5644-11.4861-5.4174-16.0399-4.3814-4.3138.9814-8.5511,2.2591-12.7016,3.776,6.7929-5.5563,12.1739-12.3568,14.424-20.2827,2.0733-7.3033-3.8315-11.8013-10.7681-10.5215-8.3087,1.5331-16.8639,6.8284-23.8443,12.1282,3.2485-8.3238,7.9619-19.7519.196-25.8468-9.7261-7.6335-16.5208,7.3378-18.9886,14.1895-1.0607,2.9453-1.9922,5.9348-2.8083,8.9547.1032-8.9561-.4856-18.9232-4.1314-26.8715-2.5761-5.6159-9.4046-8.9692-14.0753-3.56-4.5384,5.2559-6.0368,13.6546-6.5643,21.1408-1.4192-3.0931-3.2487-5.9744-5.5187-8.6044-2.1762-2.5213-7.0761-8.1884-10.9298-7.8758-3.0744.2493-3.8765,4.4923-4.2425,6.9018-.8382,5.5188.5102,11.1063,2.4659,16.246,1.0041,2.6389,2.1623,5.2394,3.4312,7.8013-3.3167-4.88-7.0656-9.4748-11.7278-12.8168-3.529-2.5297-12.9702-7.6623-15.7239-1.6051-1.3776,3.0302-.3236,7.4978.2559,10.5682.7947,4.2113,2.0008,8.3579,3.4846,12.3858-6.9669-5.4654-18.6-10.706-25.7637-4.2942-9.2043,8.2383,4.8119,17.0069,10.6121,21.3988,10.6348,8.0526,22.4351,14.3192,35.1013,18.5157,4.5813,1.5178,10.4091,4.253,15.0128,1.4769,3.3343-2.0107,4.8963-5.8277,5.1948-9.6256.2632-.1706.4418-.4454.3743-.8138-.1021-.5576-.238-1.1001-.3569-1.6503-.0241-.3879-.0562-.7728-.1051-1.1494-.0311-.2392-.1377-.4268-.2728-.5823-1.3097-5.2296-3.3644-10.133-5.8489-14.8787,2.027,2.8755,4.1266,5.6746,6.2502,8.3821,2.953,3.765,6.5,9.3448,11.7039,10.0096,2.9018.3707,5.3039-.8223,6.6106-3.1251.2558-.093.4718-.2951.5402-.6596.0601-.3201.1174-.6402.1769-.9603.1828,2.6323.8894,5.1252,3.1054,6.0293,3.7842,1.5441,8.8675-2.775,11.847-5.081,1.233-.3237,2.4914-.6897,3.7641-1.0892-4.5536,3.277-8.7688,7.0191-12.0048,11.3155-.156.2072-.2013.4263-.1885.6347-.2929.6777-.419,1.5015-.4464,2.351-1.7332,6.484,1.5321,18.7479,9.7148,17.4694.4099-.064.4653-.6209.049-.7324-2.786-.7457-4.9998-2.5477-6.5408-4.8648,6.917,6.6621,20.1493,6.7713,29.0226,7.3422,1.3785.0888,2.7654.1571,4.1565.2099-4.9944.6217-9.9432,1.5653-14.7571,2.9569.7841-.4272.2861-1.7724-.652-1.4588-3.2068,1.0721-7.3454,2.869-7.4779,6.8735-.1502,4.536,3.7501,7.3224,6.629,9.913,10.1087,9.0965,23.6249,20.0678,35.794,26.3375,5.3157,2.7386,20.7383,7.8064,20.5886-3.1776Z" fill="#f8a32d"/><g fill="none" mix-blend-mode="soft-light"><path d="m453.78513,213.75654c.4971-2.2238,1.4692-4.2902,3.2298-5.9165,3.3915-3.133,8.3554-3.4249,12.7348-3.4483.8561-.0046,1.2106.8296.9959,1.4374,2.6079,1.7929,5.1532,3.6727,7.6508,5.6139-2.4774-2.1909-4.97-4.7048-4.8493-8.348.1325-4.0045,4.2711-5.8014,7.4779-6.8735.9381-.3136,1.4361,1.0316.652,1.4588,4.8139-1.3916,9.7627-2.3352,14.7571-2.9569-1.3911-.0528-2.778-.1211-4.1565-.2099-8.8733-.5709-22.1056-.6801-29.0226-7.3422,1.541,2.3171,3.7548,4.1191,6.5408,4.8648.4163.1115.3609.6684-.049.7324-8.1827,1.2785-11.448-10.9854-9.7148-17.4694.0274-.8495.1535-1.6733.4464-2.351-.0128-.2084.0325-.4275.1885-.6347,3.236-4.2964,7.4512-8.0385,12.0048-11.3155-1.2727.3995-2.5311.7655-3.7641,1.0892-2.9795,2.306-8.0628,6.6251-11.847,5.081-2.216-.9041-2.9226-3.397-3.1054-6.0293-.0595.3201-.1168.6402-.1769.9603-.0684.3645-.2844.5666-.5402.6596-1.3067,2.3028-3.7088,3.4958-6.6106,3.1251-5.2039-.6648-8.7509-6.2446-11.7039-10.0096-2.1236-2.7075-4.2232-5.5066-6.2502-8.3821,2.4845,4.7457,4.5392,9.6491,5.8489,14.8787.1351.1555.2417.3431.2728.5823.0489.3766.081.7615.1051,1.1494.1189.5502.2548,1.0927.3569,1.6503.0675.3684-.1111.6432-.3743.8138-.2985,3.7979-1.8605,7.6149-5.1948,9.6256-1.3416.809-2.7885,1.1405-4.2768,1.18.7596,2.6096,1.2927,5.2242,1.6211,6.7098,1.0042,4.5419-1.424,9.0573-4.7469,11.9967-1.913,1.6923-2.7589,4.9132-3.5219,8.2016,1.7119-.3511,3.4268-.6915,5.1481-1.0092.6642-.1226,1.0992.3943,1.1999.969,8.2818.1245,10.5003,11.5644,8.1081,18.3663-.0629.179-.1389.3547-.2048.533,5.6927-5.2242,13.9809-11.5284,20.7703-9.3829Z" fill="none"/><path d="m433.21963,222.60644c2.3922-6.8019.1737-18.2418-8.1081-18.3663-.1007-.5747-.5357-1.0916-1.1999-.969-1.7213.3177-3.4362.6581-5.1481,1.0092.763-3.2884,1.6089-6.5093,3.5219-8.2016,3.3229-2.9394,5.7511-7.4548,4.7469-11.9967-.3284-1.4856-.8615-4.1002-1.6211-6.7098,1.4883-.0395,2.9352-.371,4.2768-1.18,3.3343-2.0107,4.8963-5.8277,5.1948-9.6256.2632-.1706.4418-.4454.3743-.8138-.1021-.5576-.238-1.1001-.3569-1.6503-.0241-.3879-.0562-.7728-.1051-1.1494-.0311-.2392-.1377-.4268-.2728-.5823-1.3097-5.2296-3.3644-10.133-5.8489-14.8787,2.027,2.8755,4.1266,5.6746,6.2502,8.3821,2.953,3.765,6.5,9.3448,11.7039,10.0096,2.9018.3707,5.3039-.8223,6.6106-3.1251.2558-.093.4718-.2951.5402-.6596.0601-.3201.1174-.6402.1769-.9603.1828,2.6323.8894,5.1252,3.1054,6.0293,3.7842,1.5441,8.8675-2.775,11.847-5.081,1.233-.3237,2.4914-.6897,3.7641-1.0892-4.5536,3.277-8.7688,7.0191-12.0048,11.3155-.156.2072-.2013.4263-.1885.6347-.2929.6777-.419,1.5015-.4464,2.351-1.7332,6.484,1.5321,18.7479,9.7148,17.4694.4099-.064.4653-.6209.049-.7324-2.786-.7457-4.9998-2.5477-6.5408-4.8648,6.917,6.6621,20.1493,6.7713,29.0226,7.3422,1.3785.0888,2.7654.1571,4.1565.2099-4.9944.6217-9.9432,1.5653-14.7571,2.9569.7841-.4272.2861-1.7724-.652-1.4588-3.2068,1.0721-7.3454,2.869-7.4779,6.8735-.1207,3.6432,2.3719,6.1571,4.8493,8.348-2.4976-1.9412-5.0429-3.821-7.6508-5.6139.2147-.6078-.1398-1.442-.9959-1.4374-4.3794.0234-9.3433.3153-12.7348,3.4483-1.7606,1.6263-2.7327,3.6927-3.2298,5.9165-6.7894-2.1455-15.0776,4.1587-20.7703,9.3829.0659-.1783.1419-.354.2048-.533Z" fill="none"/><path d="m480.53493,199.52364c11.7158-.1046,23.2975-.3732,34.9983.5921,9.2895.7663,18.5702,1.9837,27.7815,3.4765.0276-.2278.0283-.468.0073-.718-20.4806-3.8499-42.1365-5.4894-62.8177-3.801-.291.0238-.2588.4529.0306.4504Z" fill="#efec61"/><path d="m476.82183,203.10054c-.216-.0272-.2732.2658-.0671.3288,8.0334,2.4535,16.3815,3.9914,24.4928,6.205,6.1393,1.6756,12.2552,3.4373,18.3484,5.2742-.0313-.0183-.0619-.0379-.0932-.0561.7449-.0537,1.488-.14,2.2302-.2325-14.527-4.8347-29.816-9.6193-44.9111-11.5194Z" fill="#efec61"/><path d="m485.08423,209.48674c-.2882-.1997-.6618.2008-.3706.4139,9.3639,6.8497,19.1245,13.0609,29.287,18.6615,7.0156,3.8663,14.3367,7.9125,21.8671,11.1319.2161-.4392.3842-.9316.5007-1.4798-7.0877-3.2492-14.257-6.3294-21.1395-10.0568-10.3957-5.6299-20.4291-11.9392-30.1447-18.6707Z" fill="#efec61"/><path d="m504.43193,246.10534c-9.4585-9.2667-19.0122-18.4066-28.7137-27.4161-.2576-.2392-.6148.1635-.3628.4053,8.8671,8.507,17.7072,17.0604,26.4581,25.6879,5.6907,5.6104,12.1699,11.0948,17.2544,17.4577.1403-.2023.2725-.4146.3852-.6497.0559-.1166.096-.2356.1413-.3539-.5039-.5467-1.0128-1.0858-1.5221-1.6112-4.4531-4.5948-9.07-9.0424-13.6404-13.52Z" fill="#efec61"/><path d="m484.63773,244.73964c-4.249-6.5774-8.6765-13.014-13.2045-19.4016-.1892-.2669-.6064.0064-.4248.2809,4.1433,6.2614,8.2122,12.577,12.2649,18.8975,1.6258,2.5355,3.1679,5.2061,4.7378,7.869-.0073-.0565-.0117-.1131-.0192-.1695,1.1618,1.108,2.3986,2.1836,3.6929,3.2115-2.2664-3.6482-4.7871-7.1891-7.0471-10.6878Z" fill="#efec61"/><path d="m465.54243,230.22964c2.8468,11.807,5.7001,23.6124,8.539,35.4212,1.3402,5.5745,2.6787,11.1495,4.0211,16.7234.3335.0207.6719.0067,1.0134-.0364-4.89-17.2616-8.5207-35.0296-12.8393-52.3577-.1209-.485-.8504-.2321-.7342.2495Z" fill="#efec61"/><path d="m446.62393,236.57444c-.0661-.4068-.7103-.3708-.6467.0438,1.4767,9.6229,2.2602,19.3234,2.258,29.0614-.0013,5.7256-.5743,11.3769-1.1329,17.0277.0535.0006.1024.0083.1565.0077.4764-.0044.9152-.0715,1.3372-.1654.4546-5.3828.4829-10.8548.497-16.0165.0277-10.0471-.858-20.0455-2.4691-29.9587Z" fill="#efec61"/><path d="m443.74543,238.49854c.0404-.446-.6453-.5952-.6916-.1412-.8694,8.534-1.8027,17.0619-2.7234,25.5904-.3606,3.3402-.847,6.6967-1.3115,10.0581.0664-.0917.1399-.1782.2047-.2709.1814.8376.4048,1.6874.6814,2.5143.4836-4.3769.8391-8.7796,1.341-13.0838.9574-8.2104,1.7542-16.4348,2.4994-24.6669Z" fill="#efec61"/><path d="m440.90173,234.16634c.2244-.4075-.4064-.719-.6397-.3251-5.6576,9.5549-10.3043,19.6188-13.9655,30.1034-2.0119,5.7617-4.0596,11.8727-5.5096,18.0463.5355.0998,1.0712.175,1.6068.2187,1.5528-6.5834,3.1166-13.1493,5.453-19.6032,3.5574-9.8265,8.0178-19.2898,13.055-28.4401Z" fill="#efec61"/><path d="m436.94223,232.22774c-10.4002,10.5534-20.3812,22.9828-27.0723,36.5145.0324.6715.0967,1.3339.1897,1.9857,8.0068-13.6085,16.3396-26.4435,27.4086-38.0293.3154-.3302-.2085-.7931-.526-.4709Z" fill="#efec61"/><path d="m413.80353,216.86874c-11.4524,2.7056-22.8374,5.7083-34.0902,9.1548-5.3306,1.6328-10.9533,3.1843-16.3003,5.2809.0364.3919.1055.7745.2139,1.1448,16.1786-6.626,33.563-10.7931,50.4187-14.8682.4709-.1138.2257-.8228-.2421-.7123Z" fill="#efec61"/><path d="m418.91503,222.17984c-10.0073,3.3929-19.9557,7.5591-29.1217,12.9527.6219-.1718,1.24-.3464,1.8488-.5258-.4964.4768-.9893.9716-1.4748,1.4798,9.3687-5.0274,18.8691-9.6289,28.9936-13.1835.4633-.1626.2212-.8815-.2459-.7232Z" fill="#efec61"/><path d="m426.29373,227.72844c.5536-.3297.0041-1.1453-.5488-.8302-14.3397,8.1735-28.8694,18.0673-40.6921,30.0221.3454.4384.7281.7819,1.1361,1.0571,12.7064-11.0259,25.444-21.5163,40.1048-30.249Z" fill="#efec61"/><path d="m408.67193,188.34384c-13.3417-.8262-27.0451-1.5281-40.5613-1.0027.53.2109,1.0605.4146,1.5897.6044-.9151.2613-1.8131.5757-2.6929.9343,13.9013.0068,27.8027-.3196,41.717.2377.5015.02.4363-.7435-.0525-.7737Z" fill="#efec61"/><path d="m408.46323,195.48914c.555-.0488.4998-.9144-.0588-.8661-17.4179,1.5032-35.9729,4.8276-52.6889,11.3011.3628.3396.769.649,1.2073.9307,5.8912-2.1433,11.8103-4.18,17.9492-5.7324,11.0245-2.7881,22.2665-4.638,33.5912-5.6333Z" fill="#efec61"/><path d="m413.47643,181.43304c.5556.0766.7381-.765.1758-.8617-19.1569-3.2964-39.6993-6.966-59.4512-5.7178.0632.3996.1549.8057.3061,1.2235,8.5148-.027,16.9719.1689,25.5374,1.009,11.1821,1.0966,22.3038,2.8131,33.4319,4.347Z" fill="#efec61"/><path d="m412.09033,170.26184c.3903.3081.9083-.2659.5172-.5777-14.3579-11.4499-29.624-23.3069-45.8138-32.251-.12.2149-.231.4298-.3249.6446,7.2025,4.8885,14.7032,9.3533,21.8195,14.387,8.088,5.7209,16.0256,11.6596,23.802,17.7971Z" fill="#efec61"/><path d="m418.05903,165.85094c-7.5092-9.9285-15.5012-20.0394-24.2125-29.2817.2829.8457.571,1.6898.879,2.5258-.898-.7046-1.8748-1.4047-2.9083-2.0773,8.7218,9.5736,17.4891,19.0839,25.6336,29.2352.2898.3611.8941-.0241.6082-.402Z" fill="#efec61"/><path d="m424.78803,160.95944c.1808.3808.8053.1899.6356-.216-4.8656-11.6384-10.9294-22.8534-18.2181-33.1591-3.3383-4.72-6.8009-9.5673-10.5049-14.2202-.6025-.0685-1.1878-.0793-1.7459-.0234,3.8407,4.5192,7.5586,9.1412,10.8949,14.1335,7.1475,10.6952,13.4223,21.8663,18.9384,33.4852Z" fill="#efec61"/><path d="m434.54913,150.98594c-7.2862-16.7067-14.4926-33.0408-19.8429-50.3521-.1928.1999-.3727.417-.5329.6577,4.8071,17.2368,11.047,34.585,20.0769,49.841.0956.1614.3757.0297.2989-.1466Z" fill="#efec61"/><path d="m440.34963,149.67274c-2.2991-11.6277-4.9642-23.0638-7.0337-34.6661-.0301.3637-.0599.7274-.0853,1.0874-.4703-1.025-1.003-2.0174-1.5645-2.9945,1.5631,12.4749,3.992,25.103,8.2897,36.6521.076.2042.4402.1555.3938-.0789Z" fill="#efec61"/><path d="m448.31923,149.05244c.0543.3201.508.2982.5081-.0344.0033-10.5976-1.5304-21.2321-1.8824-31.8363-.2731-8.2236-.2292-16.4666.3091-24.6777-.2576-.0719-.5158-.1368-.777-.1809-.6548,7.661-.8256,15.3405-.6138,23.055.3055,11.1249.59,22.6899,2.456,33.6743Z" fill="#efec61"/><path d="m454.90973,146.55754c1.1746-7.4782,2.2263-14.9315,3.4384-22.3622-.1118.3976-.2388.7908-.3465,1.1894.0189-1.6412.0138-3.3168-.0284-5.0072-1.7571,8.6569-3.059,17.4403-3.4183,26.1562-.0083.2022.3236.2218.3548.0238Z" fill="#efec61"/><path d="m470.89473,152.82584c-.0453.263.3621.4358.4656.1625,3.4971-9.2241,6.6047-18.2107,10.9673-26.9069-.6233.4442-1.2334.892-1.8362,1.3408-4.3794,7.9829-8.0868,16.6369-9.5967,25.4036Z" fill="#efec61"/><path d="m463.91353,155.73964c-.0004.2449.3758.2606.4234.0282,1.9869-9.6942,3.0318-19.4086,5.7463-28.9805,2.4189-8.5292,5.5374-16.8523,9.1742-24.9365-.2057-.1453-.4103-.2835-.6132-.4091-3.7559,7.8225-6.8689,15.8984-9.278,24.2587-2.7566,9.5661-5.4348,20.0293-5.4527,30.0392Z" fill="#efec61"/><path d="m473.60673,156.43464c-.1389.2299.2051.4463.3788.2593,7.1244-7.672,14.3102-14.8244,22.2028-21.7334,5.8864-5.153,11.6128-10.4213,16.4496-16.5153-.202-.2147-.4136-.42-.6411-.6109-5.3402,6.3867-11.5359,11.9732-17.8223,17.4582-7.2468,6.3228-15.5343,12.8074-20.5678,21.1421Z" fill="#efec61"/><path d="m482.55323,156.86664c7.3844-3.3585,14.4523-7.4854,21.4935-11.5506-1.4271.4572-2.8482.9329-4.2558,1.4473.0049-.004.0096-.0081.0145-.0121-5.8824,3.1298-11.7839,6.2441-17.4341,9.7444-.1965.1217-.037.4705.1819.371Z" fill="#efec61"/><path d="m507.25663,158.15894c-6.8384,4.7164-14.1517,8.7133-20.9723,13.4306-.2226.1539-.0497.5639.2173.4432,14.9192-6.7471,28.6596-17.7036,41.0299-28.2732.0699-.0598.103-.1346.1107-.21-.0985-.1235-.2024-.2415-.3143-.3515-.042.0076-.085.0244-.1282.0595-6.4417,5.2293-13.1129,10.1908-19.9431,14.9014Z" fill="#efec61"/><path d="m492.10383,177.06074c8.2227-1.6641,16.2865-4.8402,24.0054-8.4651-.2023-.0138-.4121-.0294-.6102-.0423.5829-.496,1.1324-1.026,1.6717-1.5658-8.2725,3.5666-16.737,6.4199-25.1936,9.7006-.2426.0941-.1158.4217.1267.3726Z" fill="#efec61"/><path d="m496.10283,186.23394c14.9228-1.1224,29.8043-3.3898,44.5303-6.1018-.0451-.2445-.1056-.4924-.1808-.7436-14.797,2.1133-29.6331,4.0893-44.3683,6.5682-.1724.029-.1633.2909.0188.2772Z" fill="#efec61"/><path d="m501.29873,193.15124c6.0784.5659,12.2143.6239,18.342.3985,2.3307-.3556,4.639-.7999,6.9201-1.3275-8.4053.3569-16.8018.3448-25.2338.5056-.2366.0045-.2714.4007-.0283.4234Z" fill="#efec61"/></g><path d="m453.79363,240.99374c11.1076-1.3136,21.7388-6.2832,29.7985-14.0514,10.6715-10.2855,18.1226-24.1808,19.2627-39.0848,1.1669-15.254-6.202-28.896-18.8839-37.4593-9.6059-6.4863-21.154-9.6869-32.6444-10.3818-12.4007-.75-23.2754,3.9709-33.4842,10.709-19.3541,12.7744-27.7789,37.6536-18.4866,59.2386,8.7484,20.3219,32.5963,33.6127,54.4379,31.0297Z" fill="#7a571f"/><path d="m474.24323,194.60964c-.8258,4.0475,5.525,5.3502,6.3521,1.296.8258-4.0476-5.5249-5.3503-6.3521-1.296h0Z" fill="#ffe06e"/><path d="m482.10873,181.18424c-.7458,3.6559,4.9903,4.8325,5.7374,1.1706.7459-3.6559-4.9902-4.8325-5.7374-1.1706h0Z" fill="#ffe06e"/><path d="m478.02143,172.58474c-.3729,1.828,2.4952,2.4163,2.8687.5853.373-1.8279-2.4951-2.4162-2.8687-.5853h0Z" fill="#ffe06e"/><path d="m463.80033,174.19234c-.6837,3.3512,4.5744,4.4298,5.2593,1.073.6837-3.3512-4.5744-4.4297-5.2593-1.073h0Z" fill="#ffe06e"/><path d="m458.44093,166.58584c-.0095.0464.0633.0614.0728.0149s-.0634-.0614-.0728-.0149h0Z" fill="#ffe06e"/><path d="m455.93753,161.31554c-.5239,2.5678,3.5051,3.3942,4.0299.8222.5238-2.5678-3.5051-3.3943-4.0299-.8222h0Z" fill="#ffe06e"/><path d="m443.40633,164.52044c-.7104,3.4817,4.7526,4.6023,5.4642,1.1148.7104-3.4818-4.7526-4.6024-5.4642-1.1148h0Z" fill="#ffe06e"/><path d="m450.22423,179.43854c-.6482,3.1771,4.3368,4.1997,4.986,1.0173.6483-3.1771-4.3367-4.1996-4.986-1.0173h0Z" fill="#ffe06e"/><path d="m461.81533,187.81554c-.6748,3.3076,4.515,4.3722,5.191,1.059.6748-3.3076-4.515-4.3722-5.191-1.059h0Z" fill="#ffe06e"/><path d="m453.92673,193.72114c-.7015,3.4382,4.6932,4.5448,5.3959,1.1009.7015-3.4383-4.6932-4.5449-5.3959-1.1009h0Z" fill="#ffe06e"/><path d="m439.58093,188.53964c-.5683,2.7854,3.8021,3.6819,4.3713.8919.5683-2.7854-3.8021-3.6819-4.3713-.8919h0Z" fill="#ffe06e"/><path d="m433.15693,175.20494c-.0094.0464.0634.0613.0729.0148.0095-.0464-.0634-.0613-.0729-.0148h0Z" fill="#ffe06e"/><path d="m468.29213,163.33514c-.6837,3.3512,4.5744,4.4298,5.2593,1.0731.6837-3.3512-4.5744-4.4298-5.2593-1.0731h0Z" fill="#ffe06e"/><path d="m466.70093,150.98644c-.8258,4.0475,5.525,5.3502,6.3522,1.296.8258-4.0476-5.525-5.3503-6.3522-1.296h0Z" fill="#ffe06e"/><path d="m451.76893,149.69344c-.0095.0464.0633.0614.0728.0149s-.0633-.0614-.0728-.0149h0Z" fill="#ffe06e"/><path d="m436.11653,151.76054c-.8436,4.1346,5.6437,5.4653,6.4887,1.3238.8436-4.1346-5.6438-5.4653-6.4887-1.3238h0Z" fill="#ffe06e"/><path d="m425.31173,151.56004c-.7726,3.7864,5.1685,5.0051,5.9423,1.2124.7725-3.7864-5.1685-5.0051-5.9423-1.2124h0Z" fill="#ffe06e"/><path d="m423.01373,163.36584c-.8081,3.9605,5.4061,5.2352,6.2155,1.2681.808-3.9605-5.4062-5.2352-6.2155-1.2681h0Z" fill="#ffe06e"/><path d="m450.88003,150.01304c-.6571,3.2207,4.3961,4.2572,5.0543,1.0312.6571-3.2206-4.3962-4.2571-5.0543-1.0312h0Z" fill="#ffe06e"/><path d="m430.40173,172.13774c-.1574.7718.0162,1.6517.456,2.31.4207.6296,1.2054,1.1992,1.9694,1.32,1.6617.263,3.3093-.7023,3.6535-2.3897.1575-.7718-.0162-1.6517-.456-2.31-.4206-.6296-1.2053-1.1992-1.9693-1.3201-1.6617-.2629-3.3093.7024-3.6536,2.3898h0Z" fill="#ffe06e"/><path d="m413.64433,178.98944c-.1539.7544.0158,1.6145.4458,2.258.4112.6155,1.1783,1.1723,1.9251,1.2904,1.6243.2571,3.2349-.6866,3.5714-2.336.1539-.7545-.0158-1.6146-.4458-2.2581-.4112-.6154-1.1782-1.1722-1.925-1.2904-1.6244-.257-3.235.6866-3.5715,2.3361h0Z" fill="#ffe06e"/><path d="m434.74663,162.25264c-.4618,2.2631,3.0892,2.9915,3.5517.7246.4617-2.2631-3.0892-2.9915-3.5517-.7246h0Z" fill="#ffe06e"/><path d="m439.41943,179.23814c-.5772,2.8289,3.8615,3.7394,4.4396.9058.5772-2.8289-3.8615-3.7394-4.4396-.9058h0Z" fill="#ffe06e"/><path d="m427.49863,189.33114c-.6393,3.1336,4.2774,4.1421,4.9178,1.0033.6393-3.1336-4.2774-4.1421-4.9178-1.0033h0Z" fill="#ffe06e"/><path d="m411.43233,189.56024c-.4706,2.3066,3.1486,3.049,3.62.7386.4706-2.3067-3.1486-3.0491-3.62-.7386h0Z" fill="#ffe06e"/><path d="m410.72023,165.36674c-.1734.8498.0178,1.8187.5021,2.5435.4632.6933,1.3273,1.3205,2.1685,1.4536.8734.1382,1.8286.0398,2.5646-.4879.7334-.5258,1.2752-1.2456,1.4584-2.1436.1734-.8498-.0178-1.8187-.5021-2.5435-.4632-.6933-1.3273-1.3205-2.1685-1.4536-.8734-.1382-1.8286-.0398-2.5646.4879-.7334.5258-1.2752,1.2456-1.4584,2.1436h0Z" fill="#ffe06e"/><path d="m426.92603,180.94774c-.0094.0464.0634.0613.0729.0148.0095-.0464-.0634-.0613-.0729-.0148h0Z" fill="#ffe06e"/><path d="m425.04453,181.05694c.0378.077.0755.1539.1132.2309.3605.7358.8341,1.3005,1.6889,1.4749s1.5118-.1596,2.1318-.6954c.0648-.056.1297-.1121.1945-.1681.6337-.5477.7437-1.6479.4876-2.3897-.2786-.8068-.9822-1.4217-1.825-1.5937-.8427-.1719-1.731.1182-2.3034.7514-.5262.5821-.8561,1.6375-.4876,2.3897h0Z" fill="#ffe06e"/><path d="m422.63483,196.35484c-.6749,3.3077,4.515,4.3723,5.191,1.0591.6748-3.3077-4.5151-4.3722-5.191-1.0591h0Z" fill="#ffe06e"/><path d="m411.68993,203.64094c-.8258,4.0475,5.5249,5.3502,6.3521,1.296.8258-4.0476-5.525-5.3503-6.3521-1.296h0Z" fill="#ffe06e"/><path d="m422.97093,212.95654c-.2815,1.3799.674,2.9517,2.1256,3.1814,1.4563.2305,2.9002-.6156,3.202-2.0944.2815-1.3798-.674-2.9517-2.1256-3.1814-1.4563-.2304-2.9003.6156-3.202,2.0944h0Z" fill="#ffe06e"/><path d="m432.90533,207.96934c-.5505,2.6984,3.6833,3.5669,4.2347.864.5506-2.6983-3.6833-3.5668-4.2347-.864h0Z" fill="#ffe06e"/><path d="m438.88973,198.66924c-.6038,2.9595,4.0397,3.912,4.6445.9476.6038-2.9595-4.0397-3.912-4.6445-.9476h0Z" fill="#ffe06e"/><path d="m449.01523,209.50264c-.2398,1.1751,1.604,1.5533,1.8442.3763.2397-1.1751-1.6041-1.5533-1.8442-.3763h0Z" fill="#ffe06e"/><path d="m441.00673,216.88684c-.8524,4.1781,5.7032,5.5228,6.5571,1.3378.8524-4.1781-5.7032-5.5228-6.5571-1.3378h0Z" fill="#ffe06e"/><path d="m434.78533,224.38514c-.3819,1.8714,2.5545,2.4737,2.937.5992.3818-1.8715-2.5546-2.4738-2.937-.5992h0Z" fill="#ffe06e"/><path d="m449.67843,226.92264c-.6393,3.1336,4.2774,4.1422,4.9178,1.0034.6393-3.1336-4.2774-4.1421-4.9178-1.0034h0Z" fill="#ffe06e"/><path d="m458.65283,221.73964c-.6837,3.3512,4.5744,4.4297,5.2593,1.073.6837-3.3512-4.5744-4.4298-5.2593-1.073h0Z" fill="#ffe06e"/><path d="m465.44553,209.09734c-.4528,2.2196,3.0298,2.934,3.4834.7107.4529-2.2196-3.0298-2.934-3.4834-.7107h0Z" fill="#ffe06e"/><path d="m465.23123,200.03554c-.3996,1.9585,2.6733,2.5888,3.0736.6271.3995-1.9585-2.6734-2.5888-3.0736-.6271h0Z" fill="#ffe06e"/><path d="m458.15543,212.62004c-.0095.0464.0633.0613.0728.0148.0095-.0464-.0634-.0613-.0728-.0148h0Z" fill="#ffe06e"/><path d="m457.47303,210.97784c-.4528,2.2196,3.0298,2.934,3.4834.7107.4529-2.2197-3.0298-2.934-3.4834-.7107h0Z" fill="#ffe06e"/><path d="m469.24263,215.88414c-.6748,3.3076,4.515,4.3722,5.191,1.0591.6748-3.3077-4.515-4.3723-5.191-1.0591h0Z" fill="#ffe06e"/><path d="m480.95783,208.75524c-.6393,3.1336,4.2774,4.1421,4.9178,1.0033.6393-3.1336-4.2774-4.1421-4.9178-1.0033h0Z" fill="#ffe06e"/><path d="m468.45013,223.48804c-.6748,3.3076,4.515,4.3722,5.191,1.059.6748-3.3076-4.515-4.3722-5.191-1.059h0Z" fill="#ffe06e"/><path d="m487.08593,198.98334c-.1734.8498.0178,1.8187.5021,2.5436.4632.6933,1.3273,1.3204,2.1685,1.4535.8734.1383,1.8286.0399,2.5646-.4878.7334-.5258,1.2752-1.2456,1.4584-2.1436.1734-.8498-.0178-1.8187-.5021-2.5435-.4632-.6933-1.3273-1.3205-2.1685-1.4536-.8734-.1382-1.8286-.0398-2.5646.4879-.7334.5258-1.2752,1.2455-1.4584,2.1435h0Z" fill="#ffe06e"/><path d="m492.18433,187.74894c-.6749,3.3077,4.515,4.3723,5.1909,1.0591.6749-3.3077-4.515-4.3722-5.1909-1.0591h0Z" fill="#ffe06e"/><path d="m484.07143,171.56464c-.7459,3.6558,4.9903,4.8324,5.7374,1.1705.7459-3.6558-4.9903-4.8324-5.7374-1.1705h0Z" fill="#ffe06e"/><path d="m480.73253,160.36224c-.3818,1.8715,2.5546,2.4738,2.937.5993.3818-1.8715-2.5545-2.4738-2.937-.5993h0Z" fill="#ffe06e"/><path d="m479.61423,219.00214c-.4528,2.2197,3.0298,2.934,3.4834.7107.4529-2.2196-3.0298-2.934-3.4834-.7107h0Z" fill="#ffe06e"/><path d="m461.13613,228.32334c-.311.0829-.6159.2567-.8953.4142-1.0247.5774-1.5228,2.11-1.0961,3.1915.4702,1.1915,1.5465,1.8835,2.8317,1.8728.3266-.0027.6721-.0942.9868-.1781.6577-.1751,1.3055-.791,1.6053-1.3777.3161-.6185.412-1.5085.1518-2.1677-.5864-1.486-2.0576-2.1616-3.5842-1.755h0Z" fill="#ffe06e"/><path d="m439.72403,230.90374c-.2635,1.2914.6308,2.7625,1.9893,2.9775,1.363.2156,2.7144-.5761,2.9968-1.9602.2634-1.2914-.6308-2.7624-1.9894-2.9774-1.3629-.2157-2.7143.5761-2.9967,1.9601h0Z" fill="#ffe06e"/><path d="m425.48503,222.73814c-.5771,2.8289,3.8616,3.7394,4.4397.9058.5772-2.8289-3.8615-3.7394-4.4397-.9058h0Z" fill="#ffe06e"/><path d="m404.25053,196.61204c-.2093,1.026.5012,2.1948,1.5806,2.3656,1.0829.1714,2.1566-.4577,2.3809-1.5573.2094-1.0261-.5011-2.1949-1.5805-2.3657-1.0829-.1713-2.1566.4577-2.381,1.5574h0Z" fill="#ffe06e"/><path d="m411.87303,215.45184c-.6837,3.3512,4.5744,4.4298,5.2593,1.0731.6837-3.3512-4.5745-4.4298-5.2593-1.0731h0Z" fill="#ffe06e"/><path d="m493.08173,178.91394c-.6482,3.1771,4.3368,4.1997,4.9861,1.0173.6482-3.1771-4.3368-4.1996-4.9861-1.0173h0Z" fill="#ffe06e"/><path d="m447.71943,200.22024c-.2671,1.309.6394,2.8003,2.0166,3.0182,1.3816.2186,2.7515-.584,3.0377-1.987.2671-1.3091-.6394-2.8003-2.0166-3.0182-1.3816-.2187-2.7515.584-3.0377,1.987h0Z" fill="#ffe06e"/><path d="m471.17533,184.96564c-.6304,3.09,4.218,4.0846,4.8495.9894.6304-3.0901-4.218-4.0846-4.8495-.9894h0Z" fill="#ffe06e"/><path d="m454.83063,169.35624c-.3907,1.915,2.6139,2.5313,3.0053.6132.3907-1.915-2.614-2.5313-3.0053-.6132h0Z" fill="#ffe06e"/><path d="m406.15683,183.46094c.643-3.1517-4.2541-4.1562-4.8982-.9993-.643,3.1517,4.2541,4.1562,4.8982.9993Z" fill="#ffe06e"/><path d="m420.15553,226.12564c.3007-1.4737-1.9892-1.9434-2.2904-.4673-.3006,1.4738,1.9892,1.9435,2.2904.4673Z" fill="#ffe06e"/><path d="m519.36813,83.32464c-3.3116-1.2865-7.3267-1.1561-10.9478-.0817,3.5923-4.6572,5.0533-12.1674,1.3142-16.70935-2.6699-3.24306-7.2217-3.21364-10.6892-.83697-4.2132,2.88776-3.8459,10.42162-4.4867,14.09872.2582-1.4815-1.7949-4.6376-2.5446-5.8995-1.1735-1.9752-2.6491-3.8233-4.5036-5.19995-3.4305-2.54672-9.3004-3.65614-12.3789.01533-3.4781,4.14772-1.5639,9.97662,1.6745,13.48572,1.5699,1.7011,3.9415,3.1961,6.5206,4.2447-3.4205.1168-6.7413.9802-9.5678,3.2307-3.6365,2.8955-5.5644,8.0082-3.335,12.3797,2.229,4.3711,7.829,5.2573,12.199,4.1829,3.5373-.8698,7.0114-3.1873,9.4961-6.1721-.6987,4.1974-.3714,8.6125,1.8353,12.2486,2.381,3.9233,7.2361,6.5227,11.7016,4.4447,6.063-2.8215,5.8194-10.7726,2.7503-16.7526,6.1412,2.5089,13.8785,1.6077,16.1144-5.1352,1.4735-4.4435-.7537-9.835-5.1524-11.5437Z" fill="#f2687a"/><path d="m512.28483,87.22404c-.5443-3.6712-6.4541-3.3697-9.8642-2.7205,2.0844-3.9443,5.8117-12.4039,1.8245-13.6257-1.9265-.5904-3.6692,1.7033-4.5536,3.2936-1.197,2.1528-1.5984,4.606-1.6883,7.0862-.3323-.6409-.7667-1.2172-1.3617-1.695-.2183-.1753-.6008-.1629-.8205,0-1.2877.9546-1.3847,2.8373-1.1784,4.6524-2.3942-2.9265-6.2685-7.0206-8.6671-5.51-.1747.11-.3251.3577-.3055.5883.291,3.4241,2.499,6.0942,5.0199,7.9459-3.7675.1177-9.7687,1.0736-9.8483,4.619-.005.2235.1152.4565.293.5641,1.2515.7572,3.4706.0626,4.815.0382.7352-.0133,1.4514-.0318,2.1577-.0707-1.946,1.2214-3.6474,2.7998-4.2483,5.0523-.1933.7249.4213,1.2054,1.0052,1.1103,1.8009-.2932,3.5397-.7591,5.211-1.5703,1.1035-.5356,2.9112-1.463,4.0729-2.9453.1298-.1655.3371-.1096.4626-.1576.0504.5185-.1953,2.6965-.1956,3.1809-.0018,2.2546.3058,4.3258.7484,6.5211.0474.2344.2988.4673.5249.4413,2.2039-.2525,3.1495-3.4065,3.5983-6.5413.8125,3.919,2.0913,8.3682,4.1605,7.4967,2.5869-1.0896.718-7.854-.6987-11.9633,2.5776,2.0912,6.5552,4.9668,7.8791,2.865,1.2162-1.9308-1.2328-4.3014-3.6346-6.0485,2.7538.2634,5.6751-.0218,5.2918-2.6071Z" fill="#fbd3d8" mix-blend-mode="soft-light"/><path d="m501.97583,85.95614c-2.3357-2.2854-6.934-2.0838-8.7343.954-1.5905,2.684-.5455,6.2711,2.3107,7.4872,3.7963,1.6163,8.6446-1.9634,7.7019-6.1413-.2105-.9329-.6669-1.7016-1.2783-2.2999Z" fill="#7a571f"/><path d="m498.25013,85.12744c-.7919,0-.7931,1.2304,0,1.2304.7917,0,.793-1.2304,0-1.2304Z" fill="#f8a32d"/><path d="m494.28523,87.99854c-.6434,0-.6445.9997,0,.9997.6433,0,.6443-.9997,0-.9997Z" fill="#f8a32d"/><path d="m494.14853,90.25224c-.6186,0-.6196.9613,0,.9613.6185,0,.6195-.9613,0-.9613Z" fill="#f8a32d"/><path d="m496.19933,89.78434c-.4694,0-.6134.4898-.4466.8086-.0008.0077.0057.0085.0088.0156.0814.1436.2219.2525.4378.2525.6928,0,.6939-1.0767,0-1.0767Z" fill="#f8a32d"/><path d="m498.26633,89.14034c-1.0248,0-1.0264,1.5926,0,1.5926,1.0247,0,1.0264-1.5926,0-1.5926Z" fill="#f8a32d"/><path d="m501.05273,90.76064c-.6679,0-.6691,1.0382,0,1.0382.6681,0,.6692-1.0382,0-1.0382Z" fill="#f8a32d"/><path d="m500.36923,87.56804c-.7299,0-.7311,1.1344,0,1.1344.7299,0,.7311-1.1344,0-1.1344Z" fill="#f8a32d"/><path d="m501.32633,86.59824c-.4826,0-.4834.7498,0,.7498.4825,0,.4833-.7498,0-.7498Z" fill="#f8a32d"/><path d="m497.97673,92.06694c-.4826,0-.4834.7498,0,.7498.4824,0,.4832-.7498,0-.7498Z" fill="#f8a32d"/><path d="m495.31073,85.77784c-.4826,0-.4834.7499,0,.7499.4824,0,.4832-.7499,0-.7499Z" fill="#f8a32d"/><path d="m501.87303,88.90534c-.6803,0-.6815,1.0574,0,1.0574.6806,0,.6817-1.0574,0-1.0574Z" fill="#f8a32d"/><path d="m499.75393,92.22614c-.7175,0-.7186,1.1151,0,1.1151.7176,0,.7188-1.1151,0-1.1151Z" fill="#f8a32d"/><path d="m496.88283,87.03184c-.8041,0-.8054,1.2497,0,1.2497.8042,0,.8055-1.2497,0-1.2497Z" fill="#f8a32d"/><path d="m495.00713,92.64734c.0032.0267.0062.0534.0093.0801.0781.6735,1.0129.8874,1.2328.1668.0077-.0252.0154-.0505.0231-.0756.2889-.9466-1.3705-1.081-1.2652-.1713Z" fill="#f8a32d"/><path d="m412.63403,145.59032c4.9291-.04518,9.89888.10869,14.7958-.52068.71715-.09217.72771-1.04118,0-1.125-4.9027-.56469-9.86862-.34385-14.7958-.32307-1.26656.00534-1.26905,1.98038,0,1.96875h0Z" fill="#ed789d"/><path d="m279.25433,162.83604c6.2528,7.8141,17.0451,8.3869,26.1021,6.307,5.6597-1.2998,11.0245-3.5001,16.0843-6.2963-2.1295,2.739-4.1097,5.5667-5.9705,8.339-6.5339,9.735-12.1725,21.0499-9.7338,33.0969,1.991,9.8358,10.4355,18.1614,20.9747,17.0364,11.0378-1.1782,14.9892-12.986,17.7345-22.0882,2.2787-7.5552,3.9084-15.4306,4.7088-23.3764,1.0121,7.4489,2.6469,14.7986,4.9221,21.9651,3.7722,11.8824,9.4977,24.0146,22.8615,26.8141,11.3398,2.3754,22.5561-2.968,29.0757-12.3062,3.3605-4.8133,5.5843-10.7642,5.4449-16.69-.1576-6.7056-3.1403-13.0984-6.3147-18.8726-4.7643-8.666-11.341-17.2169-19.2337-23.845,3.0559,1.1422,6.1931,2.089,9.4042,2.8121,11.7336,2.642,26.7995,3.3035,35.8606-6.0974,7.1445-7.4124,8.4414-19.4992-.0717-26.4022-8.5047-6.8962-21.1502-6.464-31.315-4.758-.9113.1529-1.8194.3245-2.7241.5131,1.6515-1.9346,3.2191-3.9777,4.6931-6.1523,6.1386-9.0567,12.9146-22.3407,10.3147-33.5992-2.5622-11.09534-13.469-14.40441-23.2696-10.42809-10.0541,4.07919-16.9948,13.82089-20.5884,23.72259-2.2401,6.172-3.3603,12.9267-3.5428,19.7602-5.7944-16.4106-16.4938-31.7043-35.2366-33.0061-7.9064-.5491-18.0562,3.3703-19.5315,12.1163-.8151,4.8329,1.1003,10.153,2.8372,14.5826,1.9452,4.9612,4.5192,9.6552,7.6805,13.9467,2.2333,3.0321,4.8064,5.9848,7.6476,8.6984-5.6545-1.0938-11.5547-1.279-16.8365-.9226-10.2693.6928-21.9713,3.6658-29.3794,11.2684-6.1723,6.3344-8.4439,16.5563-2.5982,23.8617Z" fill="#e33069"/><path d="m364.98023,150.16134c11.9789,10.7168,20.8051,23.8566,29.7987,37.0076.2451.3585.9278.1454.7539-.3175-2.6604-7.0801-7.7062-13.4498-12.3567-19.3226-5.2124-6.5824-10.8625-12.8922-17.482-18.0925-.5018-.3943-1.2125.2789-.7139.725h0Z" fill="#ed789d"/><path d="m352.82853,159.12084c2.0873,7.1253,4.3473,14.2114,6.7926,21.222,2.3001,6.5939,4.4233,13.4983,7.6125,19.7279.2032.3967.8426.12.7189-.3028-4.0423-13.8156-9.759-27.1738-13.9937-40.9528-.2207-.7181-1.3429-.4201-1.1303.3057h0Z" fill="#ed789d"/><path d="m357.87173,155.86574c4.1217,8.6956,7.1756,18.4714,12.6355,26.4397.4757.6942,1.4977.0915,1.1244-.6636-4.3371-8.7731-8.1225-17.7889-12.3213-26.6251-.4607-.9695-1.8966-.1172-1.4386.849h0Z" fill="#ed789d"/><path d="m348.25533,154.18084c-3.5325,6.5043-6.6794,13.2441-9.4724,20.0969-2.6984,6.6203-5.9048,13.8627-6.3191,21.09-.0326.5698.8039.6461.9621.1305,4.2804-13.9461,9.2434-27.6848,15.8948-40.7057.3581-.701-.6858-1.3106-1.0654-.6117h0Z" fill="#ed789d"/><path d="m344.22383,153.00764c-4.3905,5.7118-9.2348,11.0698-13.9952,16.4716-4.2686,4.8438-10.1184,10.1213-12.8214,16.0762-.2266.4993.3335.938.7582.5757,5.3076-4.5274,9.6146-11.0299,14.1161-16.3524,4.43-5.238,8.9164-10.4511,12.9885-15.9766.4413-.5988-.5873-1.3916-1.0462-.7945h0Z" fill="#ed789d"/><path d="m346.68573,147.53914c-8.5949.4115-17.2002,2.6615-25.4955,4.7917-7.434,1.909-16.6729,3.5019-23.1444,7.879-.4223.2857-.1596.9319.3471.8241,7.6866-1.6356,15.1817-4.6508,22.7645-6.7449,8.2851-2.2881,16.905-4.7372,25.5212-5.2907.9307-.0597.9491-1.5043.0071-1.4592h0Z" fill="#ed789d"/><path d="m345.00773,142.85444c-6.2374-.2811-12.6017.4749-18.8081.9974-5.8287.4908-12.2631.4517-17.8916,2.2004-.4639.1441-.3837.8334.1106.8489,12.178.3813,24.3477-3.0111,36.5815-2.4915,1.0024.0426,1.0047-1.5102.0076-1.5552h0Z" fill="#ed789d"/><path d="m337.01283,139.09244c-7.4204-2.2315-15.1439-3.5659-22.9074-3.5841-6.3146-.0148-14.7418-.053-19.4559,4.786-.3583.3677.1004.9155.5391.6901,12.209-6.2718,28.6873-4.0657,41.4273-.4282.9418.2689,1.3301-1.1832.3969-1.4638h0Z" fill="#ed789d"/><path d="m347.69043,137.00434c-9.0593-8.7944-15.1514-20.4685-21.6187-31.1691-.1911-.3162-.7318-.1116-.6136.2585,1.938,6.0705,5.5936,11.6875,9.1393,16.9229,3.5814,5.2879,7.4004,10.6338,12.0558,15.041.6895.6527,1.7225-.3881,1.0372-1.0533h0Z" fill="#ed789d"/><path d="m361.33133,131.15134c.8842-.5452.3328.2553.0795-.7876-.1321-.5442-.6051-1.1754-.8467-1.6861-.7493-1.5836-1.401-3.2144-2.0561-4.8386-1.7558-4.3536-3.4102-8.7474-5.135-13.1132-3.1509-7.9756-6.3652-17.9446-14.4074-22.26-.3839-.206-.7669.289-.4606.6065,8.0788,8.3753,11.6859,19.0091,15.9528,29.6046.5912,1.4681,5.1798,15.5684,7.742,13.9461.9254-.5859.072-2.0516-.8685-1.4717h0Z" fill="#ed789d"/><path d="m354.24913,134.12754c-4.8801-8.5194-9.1543-17.5839-14.8185-25.6164-.3375-.4786-1.0183-.0681-.7771.4587,4.0919,8.9369,9.3316,17.448,14.2397,25.9578.5057.8768,1.8607.081,1.3559-.8001h0Z" fill="#ed789d"/><path d="m372.22223,119.29274c3.1552-11.1784,7.3737-22.2041,9.9989-33.5117.0754-.3245-.4072-.5619-.5628-.2333-4.9567,10.4684-7.757,22.2471-10.5664,33.4385-.1837.7319.9254,1.0326,1.1303.3065h0Z" fill="#ed789d"/><path d="m375.19723,132.28104c5.4449-3.3915,10.146-8.2737,14.293-13.1115,3.8802-4.5264,8.1021-9.5987,10.0189-15.3302.1182-.3534-.421-.57-.598-.2479-2.9699,5.4054-6.8539,10.2847-10.9063,14.9122-4.0235,4.5945-8.2869,9.3451-13.4516,12.6861-.681.4405-.0521,1.5249.644,1.0913h0Z" fill="#ed789d"/><path d="m375.78013,138.21844c13.7161-5.7311,29.8737-9.0156,44.7068-8.7584.4065.0071.4518-.5555.0922-.6791-6.7487-2.3185-15.746-.1048-22.4598,1.3492-7.7177,1.6714-15.5316,3.8707-22.7675,7.0714-.5674.251-.1514,1.2591.4283,1.0169h0Z" fill="#ed789d"/><path d="m377.93393,143.63364c11.9645,2.9114,25.538,6.3922,37.8721,4.1622.4528-.0819.3434-.7955-.1032-.7923-12.6054.0904-25.1229-2.0094-37.3971-4.7411-.8899-.1981-1.2636,1.1542-.3718,1.3712h0Z" fill="#ed789d"/><path d="m369.86703,132.38384c3.5185-4.247,6.7283-8.7402,9.7971-13.3218,2.9009-4.3309,6.6274-9.238,7.9246-14.371.1347-.533-.5494-.7615-.8442-.35-3.1391,4.3817-5.5168,9.3929-8.5286,13.8894-3.0309,4.5249-6.2837,8.8937-9.3497,13.3934-.4006.588.5402,1.316,1.0008.76h0Z" fill="#ed789d"/><path d="m351.80253,160.04664c9.8152,1.8834,22.1211-4.7344,25.8654-13.1433,3.2875-7.3829-1.0864-13.606-8.185-16.3797-13.1129-5.1237-39.6428,11.9374-25.1155,25.7764,2.1187,2.0183,4.6787,3.2177,7.4351,3.7466Z" fill="#7a571f"/><path d="m353.01263,149.06904c-1.2078-.9735-2.326-2.0338-3.4747-3.0736-.9906-.8966-1.9595-2.0192-3.2853-2.3758-.2378-.064-.5616.1263-.5299.4037.1652,1.45,1.2299,2.5601,2.2037,3.5836,1.1291,1.1867,2.4513,2.2007,3.7558,3.1864.9856.7446,2.3012-.9421,1.3304-1.7243Z" fill="#ffe06e"/><path d="m357.73633,144.11274c-.7712-1.3976-1.5334-2.7958-2.3627-4.1598-.667-1.0973-1.3019-2.5028-2.5094-3.0718-.3681-.1735-.7781.0343-.798.458-.0625,1.3377.872,2.548,1.5323,3.6514.8204,1.3707,1.7022,2.6982,2.5793,4.0332.6348.9663,2.1239.1138,1.5585-.911Z" fill="#ffe06e"/><path d="m363.32903,140.78044c-.5558-1.0123-1.1023-2.0305-1.6682-3.0374-.4602-.819-2.145-3.8951-3.0378-4.2973-.2809-.1266-.7509-.0578-.8057.3278-.1421,1.0013,1.5786,3.9191,2.037,4.7895.5696,1.0816,1.1778,2.1446,1.7663,3.216.6132,1.1163,2.3224.1192,1.7084-.9986Z" fill="#ffe06e"/><path d="m368.79133,139.33074c-.5661-1.6497-1.1066-3.311-1.6988-4.9515-.4542-1.2583-.9087-2.6065-2.0903-3.3352-.3157-.1946-.7166-.0022-.8202.3337-.4163,1.3511.1753,2.6781.6734,3.937.6071,1.5349,1.2514,3.0562,1.8769,4.5837.5062,1.2363,2.5147.7605,2.059-.5677Z" fill="#ffe06e"/><path d="m360.03813,152.29184c-1.1012-.8501-2.3465-2.095-3.834-2.075-.2862.0038-.4937.2759-.4214.553.3925,1.5056,2.0558,2.424,3.2175,3.2975.447.3361,1.145.0683,1.4065-.3689.3157-.5275.0687-1.0689-.3686-1.4066Z" fill="#ffe06e"/><path d="m363.85653,149.14164c-.4504-.6747-.8241-1.4747-1.5616-1.8542-.3439-.1771-.8012.0372-.7929.4549.0089.4356.0999.7315.3137,1.1117.2087.3713.4283.7368.6427,1.1048.5269.9048,1.9756.0477,1.3981-.8172Z" fill="#ffe06e"/><path d="m370.12043,147.33404c-.3203-1.4144-.5213-3.1189-1.6332-4.1456-.2159-.1993-.6477-.1435-.7088.1872-.2743,1.4824.4275,2.962.7805,4.3889.2509,1.0137,1.791.5841,1.5615-.4305Z" fill="#ffe06e"/></g></g></g></svg>